<svg xmlns="http://www.w3.org/2000/svg" viewBox="0 0 166.78 190.35"><defs><style>.cls-1{fill:#fff;}.cls-2{fill:#65c8d0;}.cls-3{fill:#2f528f;}.cls-4{fill:#d1335b;}.cls-5{fill:#2977ff;}</style></defs><title>Administration</title><g id="Calque_2" data-name="Calque 2"><g id="Calque_1-2" data-name="Calque 1"><rect class="cls-1" x="91.3" y="3.17" width="9.3" height="19.7"/><path class="cls-2" d="M146.19,159.55H127V99.84a1.17,1.17,0,0,0-1.21-1.21H112.21A1.17,1.17,0,0,0,111,99.84v59.7H91.25V99.84A1.17,1.17,0,0,0,90,98.64H76.74a1.37,1.37,0,0,0-1.44,1.21v59.7H55.77V99.84a1.37,1.37,0,0,0-1.44-1.21H41a1.17,1.17,0,0,0-1.21,1.21v59.7H20.07V81.87l126.12.78ZM132,154.49h9.13V87.67L25.12,87v67.54h9.65V99.84A6.19,6.19,0,0,1,41,93.58h13.3a6.39,6.39,0,0,1,6.49,6.26v54.65h9.42V99.84a6.39,6.39,0,0,1,6.49-6.26H90a6.19,6.19,0,0,1,6.26,6.26v54.65h9.65V99.84a6.19,6.19,0,0,1,6.26-6.26h13.54A6.19,6.19,0,0,1,132,99.84Z"/><rect class="cls-2" x="22.13" y="170.33" width="122.52" height="5.05"/><rect class="cls-2" x="37.3" y="154.49" width="92.18" height="5.05"/><rect class="cls-2" x="40.95" y="65.34" width="84.76" height="5.05"/><rect class="cls-3" x="82.56" y="3.17" width="9.3" height="19.7"/><rect class="cls-4" x="99.77" y="3.17" width="9.3" height="19.7"/><path class="cls-5" d="M158.19,190.35H8.36A8.49,8.49,0,0,1,0,181.76V163.09a8.49,8.49,0,0,1,8.36-8.6H20.07V74.41a9.3,9.3,0,0,1,9.3-9.06H39.62A46.14,46.14,0,0,1,78.41,33.82V6.26A6.19,6.19,0,0,1,84.67,0h21.94a6.39,6.39,0,0,1,6.49,6.26V19.8a6.39,6.39,0,0,1-6.49,6.26H86.73v7.67a46,46,0,0,1,40.42,31.61h10.26a9.07,9.07,0,0,1,9.06,9.06v80.09h11.71a8.71,8.71,0,0,1,8.6,8.6v18.67A8.71,8.71,0,0,1,158.19,190.35ZM8.36,159.55a3.48,3.48,0,0,0-3.31,3.54v18.67a3.48,3.48,0,0,0,3.31,3.54H158.19a3.64,3.64,0,0,0,3.54-3.54V163.09a3.64,3.64,0,0,0-3.54-3.54H141.42V74.41a4,4,0,0,0-4-4h-14l-.52-1.84a41.49,41.49,0,0,0-38.7-29.9l-2.25-.05-.8,0A41.09,41.09,0,0,0,43.93,68.54l-.51,1.85H29.36a4.18,4.18,0,0,0-4.24,4v85.14ZM83.47,21h23.15A1.37,1.37,0,0,0,108,19.8V6.26a1.37,1.37,0,0,0-1.44-1.21H84.67a1.17,1.17,0,0,0-1.21,1.21Z"/></g></g></svg>