<svg xmlns="http://www.w3.org/2000/svg" viewBox="0 0 72 117.95"><defs><style>.appli-svg-cls-1{fill:#fff;}.appli-svg-cls-2{fill:#2977ff;}.appli-svg-cls-3{fill:#65c8d0;}</style></defs><g id="Calque_2" data-name="Calque 2"><g id="Calque_1-2" data-name="Calque 1"><rect class="appli-svg-cls-1" x="1.74" y="1.72" width="68.56" height="114.51" rx="9.95" ry="9.95"/><path class="appli-svg-cls-2" d="M60.32,117.95H11.67A11.69,11.69,0,0,1,0,106.27V11.67A11.69,11.69,0,0,1,11.67,0H60.32A11.69,11.69,0,0,1,72,11.67v94.6A11.69,11.69,0,0,1,60.32,117.95ZM11.67,1.72a10,10,0,0,0-10,10v94.6a10,10,0,0,0,10,10H60.32a10,10,0,0,0,10-10V11.67a10,10,0,0,0-10-10Z"/><path class="appli-svg-cls-2" d="M69.29,15.23H2.7V11.67a8.87,8.87,0,0,1,9-9H60.32a8.87,8.87,0,0,1,9,9ZM4.42,13.51H67.57V11.67a7.17,7.17,0,0,0-7.25-7.25H11.67a7.17,7.17,0,0,0-7.25,7.25Z"/><path class="appli-svg-cls-3" d="M27.89,7.62a1.35,1.35,0,1,0,0,2.7H44.11a1.35,1.35,0,1,0,0-2.7Z"/><path class="appli-svg-cls-2" d="M69.29,96.32H2.7V16.22H69.29ZM4.42,94.6H67.57V17.94H4.42Z"/><path class="appli-svg-cls-2" d="M60.32,115.24H11.67a8.87,8.87,0,0,1-9-9v-9H69.29v9A8.87,8.87,0,0,1,60.32,115.24ZM4.42,99v7.25a7.17,7.17,0,0,0,7.25,7.25H60.32a7.17,7.17,0,0,0,7.25-7.25V99Z"/><path class="appli-svg-cls-3" d="M36,111.19a4.91,4.91,0,1,1,4.91-4.91A4.92,4.92,0,0,1,36,111.19Zm0-8.11a3.19,3.19,0,1,0,3.2,3.19A3.2,3.2,0,0,0,36,103.08Z"/><path class="appli-svg-cls-3" d="M27.8,42.26a1.84,1.84,0,1,0,1.84,1.84A1.82,1.82,0,0,0,27.8,42.26Zm0,4.92a3.08,3.08,0,1,1,0-6.16,3,3,0,0,1,3.08,3.08A3.09,3.09,0,0,1,27.8,47.19Z"/><path class="appli-svg-cls-3" d="M24.5,51l-1.21-.29.21-.86a3.81,3.81,0,0,1,1.9-2.78,5.38,5.38,0,0,1,1.33-.47,8.48,8.48,0,0,1,1.11-.09,4.55,4.55,0,0,1,1.14.1,4.37,4.37,0,0,1,1.3.47,3.83,3.83,0,0,1,1.91,2.81l.16.85L31.13,51,31,50.13a2.61,2.61,0,0,0-1.29-2,3.21,3.21,0,0,0-1-.35,4.81,4.81,0,0,0-1.77,0,4.2,4.2,0,0,0-.95.35,2.6,2.6,0,0,0-1.27,1.94Z"/><path class="appli-svg-cls-3" d="M40.14,50.84l-1.21-.29.21-.86A3.81,3.81,0,0,1,41,46.91a5.38,5.38,0,0,1,1.33-.47,8.5,8.5,0,0,1,1.11-.09,4.55,4.55,0,0,1,1.14.1,4.37,4.37,0,0,1,1.3.47,3.83,3.83,0,0,1,1.91,2.81l.16.85-1.22.23L46.6,50a2.61,2.61,0,0,0-1.29-2,3.21,3.21,0,0,0-1-.35,4.81,4.81,0,0,0-1.77,0,4.19,4.19,0,0,0-1,.35,2.6,2.6,0,0,0-1.27,1.94Z"/><path class="appli-svg-cls-3" d="M43.43,47a3.08,3.08,0,1,1,0-6.16,3,3,0,0,1,3.08,3.08A3.09,3.09,0,0,1,43.43,47Zm0-4.92a1.84,1.84,0,1,0,1.84,1.84A1.82,1.82,0,0,0,43.43,42.08Z"/><path class="appli-svg-cls-2" d="M57.9,75.87H51a2.67,2.67,0,0,1-2.67-2.67V69.33H23.59V73.2A2.61,2.61,0,0,1,21,75.87H14.13a2.67,2.67,0,0,1-2.67-2.67c0-5.32,0-10.82-.07-16.3v-.13l1.5-3.62c-3.31-.4-3.56-2.52-3.55-3.2,0-1,.6-2.2,1.42-2.2h4.61l3.2-7.2c2.08-2.91,3.67-3.89,6.31-3.89H47.14c2.64,0,4.24,1,6.31,3.89l.06.11,3.14,7.09h4.61c.8,0,1.37,1.16,1.39,2.2,0,.68-.24,2.8-3.59,3.2l1.5,3.61v.12c0,2.75,0,5.48,0,8.21s0,5.4,0,8.1A2.61,2.61,0,0,1,57.9,75.87ZM22.36,68.09H49.61V73.2A1.45,1.45,0,0,0,51,74.63H57.9a1.38,1.38,0,0,0,1.36-1.43c0-2.7,0-5.4,0-8.11s0-5.37,0-8.08l-2.08-5,.9,0c1.78,0,2.88-.55,3.18-1.45a1.84,1.84,0,0,0-.2-1.54H55.85l-3.44-7.77c-1.8-2.51-3.09-3.32-5.27-3.32H24.89c-2.18,0-3.47.81-5.27,3.32L16.18,49h-5.3a1.78,1.78,0,0,0-.22,1.51c.29.91,1.41,1.43,3.16,1.47l.9,0-2.08,5c.06,5.44.06,10.9.06,16.19a1.45,1.45,0,0,0,1.43,1.43H21a1.38,1.38,0,0,0,1.36-1.43Z"/><path class="appli-svg-cls-2" d="M54.44,51.31H17.59l.4-.88c.33-.72.65-1.44,1-2.18.73-1.64,1.48-3.34,2.4-5.17.76-1.31,1.7-2.69,3.47-2.85H47.14c1.83.16,2.77,1.54,3.51,2.82.94,1.87,1.69,3.57,2.42,5.22.33.73.65,1.45,1,2.17ZM19.51,50.07h33l-.58-1.3c-.73-1.63-1.48-3.32-2.38-5.13-.75-1.29-1.4-2.07-2.47-2.17H24.89c-1,.09-1.67.88-2.43,2.2-.88,1.77-1.63,3.46-2.36,5.08Z"/><path class="appli-svg-cls-2" d="M43,63.92H29a2.17,2.17,0,0,1,0-4.34H43a2.17,2.17,0,0,1,0,4.34Zm-14-3.1a1,1,0,0,0-.9,1,1,1,0,0,0,.9.9H43a.91.91,0,0,0,.9-.9.94.94,0,0,0-.9-1Z"/><path class="appli-svg-cls-3" d="M19.54,64.51a3.92,3.92,0,0,1-3.92-3.92,3.88,3.88,0,0,1,3.92-3.92,3.92,3.92,0,0,1,3.92,3.92A4,4,0,0,1,19.54,64.51Zm0-6.6a2.65,2.65,0,0,0-2.68,2.68,2.68,2.68,0,0,0,2.68,2.68,2.75,2.75,0,0,0,2.68-2.68A2.69,2.69,0,0,0,19.54,57.91Z"/><path class="appli-svg-cls-3" d="M52.53,64.56a3.92,3.92,0,0,1-3.92-3.92,3.88,3.88,0,0,1,3.92-3.92,3.92,3.92,0,0,1,3.92,3.92A4,4,0,0,1,52.53,64.56Zm0-6.6a2.65,2.65,0,0,0-2.68,2.68,2.69,2.69,0,0,0,2.68,2.68,2.75,2.75,0,0,0,2.68-2.68A2.69,2.69,0,0,0,52.53,58Z"/></g></g></svg>
