<svg xmlns="http://www.w3.org/2000/svg" viewBox="0 0 116.53 85.68"><defs><style>.cls-1{fill:#fff;}.cls-2{fill:#65c8d0;}.cls-3{fill:#2977ff;}</style></defs><title>AutosolisteBLANC</title><g id="Calque_2" data-name="Calque 2"><g id="Calque_1-2" data-name="Calque 1"><path class="cls-1" d="M28.45,68.69H88V79.86A3.16,3.16,0,0,0,91.13,83h15a3,3,0,0,0,3-3.12c0-5.9,0-11.8.07-17.72s.07-11.74.07-17.65l-4.55-11,2,0c3.88-.1,6.29-1.19,7-3.17a4,4,0,0,0-.44-3.36H101.65L94.13,10c-3.94-5.49-6.75-7.26-11.52-7.26H34c-4.76,0-7.57,1.77-11.52,7.26L15,27H3.36a3.9,3.9,0,0,0-.49,3.3c.63,2,3.08,3.13,6.9,3.22l2,.05L7.2,44.47c.14,11.89.14,23.83.14,35.38A3.16,3.16,0,0,0,10.46,83h15a3,3,0,0,0,3-3.12Z" transform="translate(0)"/><path class="cls-2" d="M67.31,31l-2.63-.63.45-1.88a8.32,8.32,0,0,1,4.16-6.08,11.76,11.76,0,0,1,2.9-1,18.57,18.57,0,0,1,2.42-.21,9.94,9.94,0,0,1,2.48.22,9.55,9.55,0,0,1,2.84,1,8.38,8.38,0,0,1,4.17,6.15l.36,1.87-2.66.51L81.44,29a5.71,5.71,0,0,0-2.82-4.27A7,7,0,0,0,76.49,24a10.5,10.5,0,0,0-3.87,0,9.16,9.16,0,0,0-2.08.76A5.68,5.68,0,0,0,67.77,29Z" transform="translate(0)"/><path class="cls-2" d="M74.51,22.6a6.74,6.74,0,1,1,0-13.47,6.66,6.66,0,0,1,6.74,6.74A6.74,6.74,0,0,1,74.51,22.6Zm0-10.76a4,4,0,1,0,4,4A4,4,0,0,0,74.51,11.83Z" transform="translate(0)"/><path class="cls-3" d="M106.14,85.68h-15a5.83,5.83,0,0,1-5.83-5.83V71.4H31.15v8.46a5.7,5.7,0,0,1-5.68,5.83h-15a5.83,5.83,0,0,1-5.83-5.83c0-11.63,0-23.66-.14-35.63v-.28L7.77,36C.53,35.17,0,30.55,0,29.06c0-2.28,1.31-4.81,3.1-4.81H13.19l7-15.74C24.72,2.15,28.21,0,34,0H82.61c5.78,0,9.26,2.15,13.8,8.5l.14.24,6.86,15.5h10.08c1.75,0,3,2.53,3,4.81,0,1.49-.53,6.12-7.84,7L112,43.94v.27c0,6,0,12-.07,17.94s-.07,11.81-.07,17.71A5.7,5.7,0,0,1,106.14,85.68Zm-77.69-17H88V79.86A3.16,3.16,0,0,0,91.13,83h15a3,3,0,0,0,3-3.12c0-5.9,0-11.8.07-17.72s.07-11.74.07-17.65l-4.55-11,2,0c3.88-.1,6.29-1.19,7-3.17a4,4,0,0,0-.44-3.36H101.65L94.13,10c-3.94-5.49-6.75-7.26-11.52-7.26H34c-4.76,0-7.57,1.77-11.52,7.26L15,27H3.36a3.9,3.9,0,0,0-.49,3.3c.63,2,3.08,3.13,6.9,3.22l2,.05L7.2,44.47c.14,11.89.14,23.83.14,35.38A3.16,3.16,0,0,0,10.46,83h15a3,3,0,0,0,3-3.12Z" transform="translate(0)"/><path class="cls-3" d="M98.57,32H18l.88-1.92c.72-1.57,1.42-3.15,2.14-4.77C22.63,21.73,24.28,18,26.28,14,27.94,11.16,30,8.15,33.86,7.8H82.61c4,.36,6,3.37,7.67,6.16,2,4.08,3.7,7.8,5.3,11.4.71,1.6,1.41,3.17,2.12,4.73ZM22.23,29.29H94.37L93.1,26.45c-1.59-3.57-3.23-7.26-5.2-11.22-1.63-2.81-3.06-4.53-5.41-4.74H34c-2.22.21-3.65,1.92-5.32,4.81-1.93,3.87-3.57,7.55-5.15,11.11Z" transform="translate(0)"/><path class="cls-3" d="M73.52,59.56H42.93a4.75,4.75,0,0,1,0-9.49H73.52a4.75,4.75,0,0,1,0,9.49ZM42.93,52.78a2.15,2.15,0,0,0-2,2.11,2.1,2.1,0,0,0,2,2H73.52a2,2,0,0,0,2-2,2,2,0,0,0-2-2.11Z" transform="translate(0)"/><path class="cls-2" d="M22.29,60.86a8.58,8.58,0,0,1-8.57-8.57,8.48,8.48,0,0,1,8.57-8.57,8.58,8.58,0,0,1,8.57,8.57A8.68,8.68,0,0,1,22.29,60.86Zm0-14.43a5.8,5.8,0,0,0-5.86,5.86,5.87,5.87,0,0,0,5.86,5.86,6,6,0,0,0,5.86-5.86A5.87,5.87,0,0,0,22.29,46.43Z" transform="translate(0)"/><path class="cls-2" d="M94.4,61a8.58,8.58,0,0,1-8.57-8.57,8.48,8.48,0,0,1,8.57-8.57A8.58,8.58,0,0,1,103,52.39,8.68,8.68,0,0,1,94.4,61Zm0-14.43a5.8,5.8,0,0,0-5.86,5.86,5.87,5.87,0,0,0,5.86,5.86,6,6,0,0,0,5.86-5.86A5.87,5.87,0,0,0,94.4,46.53Z" transform="translate(0)"/></g></g></svg>