<?xml version="1.0" encoding="UTF-8" standalone="no"?>
<svg
   xmlns:dc="http://purl.org/dc/elements/1.1/"
   xmlns:cc="http://creativecommons.org/ns#"
   xmlns:rdf="http://www.w3.org/1999/02/22-rdf-syntax-ns#"
   xmlns:svg="http://www.w3.org/2000/svg"
   xmlns="http://www.w3.org/2000/svg"
   xmlns:sodipodi="http://sodipodi.sourceforge.net/DTD/sodipodi-0.dtd"
   xmlns:inkscape="http://www.inkscape.org/namespaces/inkscape"
   width="51.135502"
   height="73"
   viewBox="0 0 51.135502 73"
   version="1.1"
   id="svg8"
   sodipodi:docname="Borne.svg"
   style="fill:none"
   inkscape:version="0.92.4 (33fec40, 2019-01-16)">
  <metadata
     id="metadata14">
    <rdf:RDF>
      <cc:Work
         rdf:about="">
        <dc:format>image/svg+xml</dc:format>
        <dc:type
           rdf:resource="http://purl.org/dc/dcmitype/StillImage" />
      </cc:Work>
    </rdf:RDF>
  </metadata>
  <defs
     id="defs12" />
  <sodipodi:namedview
     pagecolor="#ffffff"
     bordercolor="#666666"
     borderopacity="1"
     objecttolerance="10"
     gridtolerance="10"
     guidetolerance="10"
     inkscape:pageopacity="0"
     inkscape:pageshadow="2"
     inkscape:window-width="1853"
     inkscape:window-height="1025"
     id="namedview10"
     showgrid="false"
     inkscape:zoom="2.95"
     inkscape:cx="25.5"
     inkscape:cy="36.5"
     inkscape:window-x="67"
     inkscape:window-y="27"
     inkscape:window-maximized="1"
     inkscape:current-layer="svg8" />
  <path
     d="M 49.6355,25.5677 H 1.5 V 71.5 h 48.1355 z"
     stroke-miterlimit="10"
     id="path2"
     inkscape:connector-curvature="0"
     style="fill:#ffffff;stroke:#2977ff;stroke-width:3;stroke-miterlimit:10" />
  <path
     d="M 1.5,25.5677 C 1.5,19.1846 4.0357,13.0629 8.5493,8.5493 13.0629,4.0357 19.1846,1.5 25.5677,1.5 c 6.3832,0 12.5049,2.5357 17.0185,7.0493 4.5136,4.5136 7.0493,10.6353 7.0493,17.0184 z"
     stroke-miterlimit="10"
     id="path4"
     inkscape:connector-curvature="0"
     style="fill:#65c8d0;stroke:#2977ff;stroke-width:3;stroke-miterlimit:10" />
  <path
     d="m 23.1855,52.0903 h -2.75 l -2.9922,-4.8125 -1.0234,0.7344 v 4.0781 H 13.998 V 40.6685 h 2.4219 v 5.2265 l 0.9531,-1.3437 3.0938,-3.8828 h 2.6875 l -3.9844,5.0546 z m 6.2734,0 -2.75,-8.9609 h -0.0703 c 0.099,1.8229 0.1485,3.0391 0.1485,3.6484 v 5.3125 H 24.623 V 40.6685 h 3.2969 l 2.7031,8.7343 h 0.0469 l 2.8672,-8.7343 h 3.2968 v 11.4218 h -2.2578 v -5.4062 c 0,-0.2552 0.0026,-0.5495 0.0078,-0.8828 0.0105,-0.3334 0.0469,-1.2188 0.1094,-2.6563 H 34.623 l -2.9453,8.9453 z"
     id="path6"
     inkscape:connector-curvature="0"
     style="fill:#65c8d0" />
</svg>
