<?xml version="1.0" encoding="UTF-8" standalone="no"?>
<svg
   xmlns:dc="http://purl.org/dc/elements/1.1/"
   xmlns:cc="http://creativecommons.org/ns#"
   xmlns:rdf="http://www.w3.org/1999/02/22-rdf-syntax-ns#"
   xmlns:svg="http://www.w3.org/2000/svg"
   xmlns="http://www.w3.org/2000/svg"
   xmlns:sodipodi="http://sodipodi.sourceforge.net/DTD/sodipodi-0.dtd"
   xmlns:inkscape="http://www.inkscape.org/namespaces/inkscape"
   width="70"
   height="52.199001"
   viewBox="0 0 70 52.199001"
   version="1.1"
   id="svg22"
   sodipodi:docname="covoitureur.svg"
   style="fill:none"
   inkscape:version="0.92.4 (f8dce91, 2019-08-02)">
  <metadata
     id="metadata28">
    <rdf:RDF>
      <cc:Work
         rdf:about="">
        <dc:format>image/svg+xml</dc:format>
        <dc:type
           rdf:resource="http://purl.org/dc/dcmitype/StillImage" />
        <dc:title></dc:title>
      </cc:Work>
    </rdf:RDF>
  </metadata>
  <defs
     id="defs26" />
  <sodipodi:namedview
     pagecolor="#ffffff"
     bordercolor="#666666"
     borderopacity="1"
     objecttolerance="10"
     gridtolerance="10"
     guidetolerance="10"
     inkscape:pageopacity="0"
     inkscape:pageshadow="2"
     inkscape:window-width="1853"
     inkscape:window-height="1025"
     id="namedview24"
     showgrid="false"
     fit-margin-top="0"
     fit-margin-left="0"
     fit-margin-right="0"
     fit-margin-bottom="0"
     inkscape:zoom="2.95"
     inkscape:cx="35"
     inkscape:cy="26.199"
     inkscape:window-x="67"
     inkscape:window-y="27"
     inkscape:window-maximized="1"
     inkscape:current-layer="svg22" />
  <path
     d="m 17.09,41.8384 h 35.7906 v 6.7982 c 0.0192,0.4977 0.2229,0.9697 0.5702,1.3218 0.3474,0.3522 0.8129,0.5586 1.3037,0.5782 h 9.0184 c 0.241,-0.0038 0.4787,-0.0562 0.6995,-0.1542 0.2207,-0.0979 0.4201,-0.2394 0.5863,-0.4163 0.1663,-0.1768 0.2961,-0.3855 0.382,-0.6137 0.0859,-0.2283 0.1261,-0.4716 0.1183,-0.7158 0,-3.592 0,-7.194 0,-10.796 0,-3.602 0,-7.1545 0,-10.7565 l -2.7328,-6.6696 h 1.1907 c 2.3327,-0.0593 3.7772,-0.7223 4.1774,-1.9791 0.1056,-0.3403 0.1367,-0.6999 0.0912,-1.0536 C 68.24,17.028 68.1189,16.6885 67.9308,16.3871 H 61.0694 L 56.5504,6.066 C 54.1787,2.7213 52.4902,1.6427 49.6304,1.6427 H 20.4182 c -2.8597,0 -4.5482,1.0786 -6.9199,4.4233 L 8.9793,16.4167 H 2.02029 c -0.18792,0.2885 -0.31148,0.615 -0.36205,0.9568 -0.05057,0.3418 -0.02694,0.6907 0.06925,1.0224 0.38064,1.2072 1.85443,1.9098 4.14811,1.9791 H 7.0663 L 4.33345,27.0446 C 4.4213,34.2881 4.4213,41.5613 4.4213,48.5971 4.44057,49.0947 4.64419,49.5667 4.99153,49.9189 5.3389,50.271 5.8044,50.4775 6.2953,50.497 h 9.0184 c 0.2409,-0.0038 0.4787,-0.0562 0.6994,-0.1542 0.2208,-0.0979 0.4201,-0.2394 0.5863,-0.4163 0.1663,-0.1768 0.2961,-0.3855 0.382,-0.6137 0.0859,-0.2283 0.1262,-0.4716 0.1184,-0.7157 z"
     id="path2"
     inkscape:connector-curvature="0"
     style="fill:#ffffff" />
  <path
     d="m 24.2346,7.4513 c -0.4792,0 -0.9475,0.1442 -1.3458,0.4143 -0.3982,0.2701 -0.7085,0.654 -0.8914,1.103 -0.1829,0.449 -0.2303,0.9429 -0.1361,1.4192 0.0942,0.4763 0.3257,0.9136 0.6652,1.2564 0.3395,0.3428 0.7717,0.5758 1.2419,0.6694 0.4702,0.0935 0.9572,0.0435 1.3993,-0.1438 0.4421,-0.1872 0.8195,-0.5033 1.0842,-0.9082 0.2648,-0.4048 0.4052,-0.8803 0.4032,-1.3661 C 26.6577,9.573 26.5969,9.2531 26.476,8.9547 26.3552,8.6563 26.1768,8.3854 25.9514,8.1578 25.726,7.9301 25.458,7.7504 25.1632,7.6291 24.8684,7.5078 24.5527,7.4474 24.2346,7.4513 Z m 0,6.5608 c -0.548,0.0273 -1.0957,-0.0586 -1.61,-0.2524 -0.5143,-0.1938 -0.9844,-0.4915 -1.3817,-0.8751 -0.3974,-0.3836 -0.7138,-0.845 -0.9299,-1.3562 -0.2162,-0.5113 -0.3276,-1.0618 -0.3276,-1.618 0,-0.5563 0.1114,-1.1068 0.3276,-1.618 0.2161,-0.5113 0.5325,-0.9727 0.9299,-1.3563 0.3973,-0.3835 0.8674,-0.6813 1.3817,-0.8751 0.5143,-0.1938 1.062,-0.2796 1.61,-0.2523 0.5337,-0.0093 1.0638,0.0898 1.5592,0.2914 0.4954,0.2016 0.9459,0.5017 1.3252,0.8825 0.3792,0.3808 0.6795,0.8347 0.8831,1.335 0.2036,0.5002 0.3065,1.0367 0.3025,1.5779 0,0.541 -0.1054,1.0766 -0.3102,1.5761 -0.2048,0.4996 -0.5049,0.9532 -0.8831,1.3348 -0.3781,0.3816 -0.827,0.6837 -1.3207,0.8889 -0.4936,0.2052 -1.0224,0.3095 -1.556,0.3069 z"
     id="path4"
     inkscape:connector-curvature="0"
     style="fill:#65c8d0" />
  <path
     d="m 19.9107,19.1083 -1.5811,-0.386 0.2733,-1.1479 c 0.1055,-0.7734 0.3859,-1.5117 0.8194,-2.1571 0.4334,-0.6454 1.0081,-1.1805 1.6792,-1.5636 0.5493,-0.2872 1.1334,-0.5001 1.7373,-0.6333 0.4814,-0.0751 0.9672,-0.1181 1.4543,-0.1286 0.5015,-0.0176 1.0032,0.0289 1.4933,0.1385 0.5983,0.1146 1.1749,0.3251 1.708,0.6234 0.6734,0.3863 1.25,0.9246 1.685,1.5733 0.435,0.6487 0.7167,1.3903 0.8234,2.1672 l 0.2537,1.2073 -1.6006,0.3068 -0.2148,-1.1479 c -0.0632,-0.5381 -0.2497,-1.0537 -0.5446,-1.5055 -0.2949,-0.4519 -0.69,-0.8276 -1.1536,-1.0971 -0.4076,-0.2454 -0.853,-0.4193 -1.3177,-0.5145 -0.7676,-0.1457 -1.5552,-0.1457 -2.3229,0 -0.4334,0.1033 -0.8529,0.2595 -1.2493,0.4651 -0.455,0.2693 -0.8425,0.6416 -1.132,1.088 -0.2896,0.4463 -0.4733,0.9545 -0.537,1.4848 z"
     id="path6"
     inkscape:connector-curvature="0"
     style="fill:#65c8d0" />
  <path
     d="m 40.4364,18.8708 -1.5812,-0.3859 0.2733,-1.1479 c 0.1084,-0.7699 0.3901,-1.5042 0.8234,-2.146 0.4333,-0.6418 1.0065,-1.1739 1.6752,-1.5549 0.5493,-0.2873 1.1334,-0.5002 1.7373,-0.6333 0.4813,-0.0784 0.9671,-0.1247 1.4543,-0.1386 0.5015,-0.0176 1.0032,0.029 1.4933,0.1386 0.5984,0.1146 1.1749,0.325 1.708,0.6234 0.6734,0.3862 1.25,0.9246 1.685,1.5733 0.435,0.6487 0.7168,1.3903 0.8234,2.1672 l 0.2245,1.1578 -1.6105,0.277 -0.2147,-1.1478 C 48.8645,17.1156 48.678,16.6 48.3831,16.1481 c -0.2949,-0.4518 -0.69,-0.8275 -1.1536,-1.097 -0.3992,-0.2206 -0.831,-0.3743 -1.2786,-0.4552 -0.7677,-0.1458 -1.5553,-0.1458 -2.3229,0 -0.4335,0.1033 -0.853,0.2594 -1.2494,0.4651 -0.455,0.2693 -0.8425,0.6417 -1.132,1.088 -0.2895,0.4464 -0.4733,0.9546 -0.5369,1.4849 z"
     id="path8"
     inkscape:connector-curvature="0"
     style="fill:#65c8d0" />
  <path
     d="M 44.7698,13.7648 C 44.2218,13.792 43.674,13.7062 43.1597,13.5124 42.6455,13.3186 42.1754,13.0208 41.778,12.6373 41.3807,12.2537 41.0643,11.7923 40.8481,11.281 40.632,10.7698 40.5205,10.2193 40.5205,9.663 c 0,-0.5562 0.1115,-1.1067 0.3276,-1.6179 0.2162,-0.5113 0.5326,-0.9727 0.9299,-1.3563 0.3974,-0.3836 0.8675,-0.6813 1.3817,-0.8751 0.5143,-0.1938 1.0621,-0.2797 1.6101,-0.2524 0.5312,-0.0039 1.0579,0.0994 1.5494,0.304 0.4915,0.2046 0.9378,0.5064 1.3131,0.8877 0.3752,0.3814 0.6717,0.8346 0.8724,1.3334 0.2006,0.4988 0.3012,1.0331 0.296,1.5717 0,1.0857 -0.424,2.1273 -1.1794,2.8969 -0.7554,0.7695 -1.7807,1.2045 -2.8515,1.2098 z m 0,-6.5608 c -0.4788,0 -0.9468,0.1439 -1.3448,0.4136 -0.3981,0.2697 -0.7083,0.6529 -0.8915,1.1014 -0.1832,0.4484 -0.2312,0.9418 -0.1378,1.4179 0.0934,0.476 0.324,0.9133 0.6625,1.2565 0.3385,0.3432 0.7698,0.5769 1.2393,0.6716 0.4696,0.0947 0.9563,0.0461 1.3985,-0.1396 0.4423,-0.1858 0.8204,-0.5003 1.0863,-0.9039 0.266,-0.4036 0.408,-0.878 0.408,-1.3634 C 47.1942,9.3347 47.1343,9.0138 47.014,8.7143 46.8938,8.4147 46.7156,8.1426 46.4901,7.9139 46.2645,7.6852 45.9961,7.5046 45.7007,7.3827 45.4052,7.2608 45.0887,7.2 44.7698,7.204 Z"
     id="path10"
     inkscape:connector-curvature="0"
     style="fill:#65c8d0" />
  <path
     d="m 63.7632,52.1891 h -9.0184 c -0.9293,0 -1.8205,-0.3743 -2.4776,-1.0405 -0.6571,-0.6662 -1.0263,-1.5698 -1.0263,-2.512 V 43.4909 H 18.72 v 5.1556 c 0.0104,0.4619 -0.0702,0.9213 -0.2371,1.3512 -0.1669,0.4299 -0.4167,0.8218 -0.7348,1.1526 -0.3182,0.3308 -0.6982,0.594 -1.1179,0.7741 -0.4196,0.18 -0.8705,0.2734 -1.3262,0.2746 H 6.2856 c -0.9293,0 -1.82057,-0.3743 -2.47768,-1.0405 -0.65711,-0.6662 -1.02627,-1.5698 -1.02627,-2.512 0,-7.0852 0,-14.4079 -0.08784,-21.7009 V 26.7773 L 4.64584,21.9681 C 0.31233,21.4238 0,18.6036 0,17.7031 0,16.3177 0.79057,14.7345 1.86419,14.7345 H 7.9253 L 12.1319,5.1457 C 14.855,1.3062 16.9437,0 20.4183,0 h 29.2122 c 3.4746,0 5.5633,1.3062 8.2864,5.1754 l 0.0781,0.1484 4.1188,9.4403 h 6.061 c 1.0541,0 1.8057,1.5438 1.8252,2.9687 0,0.9104 -0.3221,3.7306 -4.7142,4.265 l 1.9521,4.8092 v 0.1682 c 0,3.6614 0,7.303 0,10.8851 0,3.5822 0,7.1941 0,10.7862 0.0092,0.4661 -0.0742,0.9293 -0.2453,1.3621 -0.1712,0.4327 -0.4264,0.8261 -0.7507,1.1566 -0.3242,0.3306 -0.7108,0.5916 -1.1366,0.7675 -0.4259,0.1759 -0.8823,0.2631 -1.3421,0.2564 z M 17.0901,41.8384 h 35.7808 v 6.7982 c 0.0193,0.4976 0.2229,0.9696 0.5702,1.3218 0.3474,0.3522 0.8129,0.5586 1.3037,0.5781 h 9.0184 c 0.241,-0.0038 0.4788,-0.0562 0.6995,-0.1541 0.2208,-0.098 0.4201,-0.2395 0.5863,-0.4163 0.1663,-0.1769 0.2961,-0.3855 0.382,-0.6138 0.0859,-0.2282 0.1262,-0.4715 0.1184,-0.7157 0,-3.5921 0,-7.1941 0,-10.796 0,-3.602 0,-7.1545 0,-10.7565 l -2.7329,-6.6696 h 1.1907 c 2.3327,-0.0594 3.7772,-0.7224 4.1774,-1.9791 0.1056,-0.3403 0.1367,-0.6999 0.0912,-1.0537 C 68.2303,17.028 68.1092,16.6885 67.9211,16.387 H 61.0694 L 56.5505,6.066 C 54.1787,2.7213 52.4902,1.6427 49.6305,1.6427 H 20.4183 c -2.8597,0 -4.5483,1.0786 -6.92,4.4233 L 8.9794,16.4167 H 2.02036 c -0.18792,0.2884 -0.31148,0.6149 -0.36206,0.9568 -0.05057,0.3418 -0.02694,0.6907 0.06925,1.0223 0.38065,1.2073 1.85444,1.9099 4.14805,1.9791 h 1.1908 l -2.73288,6.6696 c 0.08784,7.2436 0.08784,14.5168 0.08784,21.5525 0.01927,0.4977 0.22289,0.9696 0.57024,1.3218 0.3473,0.3522 0.8129,0.5586 1.3037,0.5782 h 9.0184 c 0.241,-0.0039 0.4787,-0.0563 0.6995,-0.1542 0.2207,-0.0979 0.42,-0.2395 0.5863,-0.4163 0.1662,-0.1769 0.2961,-0.3855 0.382,-0.6137 0.0859,-0.2283 0.1261,-0.4716 0.1183,-0.7158 z"
     id="path12"
     inkscape:connector-curvature="0"
     style="fill:#2977ff" />
  <path
     d="M 59.2247,19.4943 H 10.824 l 0.527,-1.1677 c 0.4295,-0.9896 0.8492,-1.9197 1.2884,-2.8994 0.976,-2.1869 1.952,-4.4431 3.1525,-6.9269 0.976,-1.7416 2.2253,-3.5822 4.558,-3.79 h 29.2805 c 2.401,0.2177 3.6308,2.0484 4.6068,3.7504 1.2298,2.4838 2.2254,4.7499 3.1819,6.9269 0.4294,0.9896 0.8491,1.9791 1.2785,2.8796 z M 13.3519,17.812 H 56.687 L 55.9258,16.0803 C 54.9497,13.9033 53.9737,11.657 52.8025,9.2524 51.8265,7.5405 50.9676,6.4915 49.5524,6.3629 H 20.4182 c -1.3371,0.1286 -2.196,1.1677 -3.2013,2.9686 -1.1615,2.3552 -2.1472,4.6015 -3.094,6.7686 z"
     id="path14"
     inkscape:connector-curvature="0"
     style="fill:#2977ff" />
  <path
     d="M 44.1744,36.277 H 25.796 c -0.7558,0 -1.4807,-0.3044 -2.0152,-0.8463 -0.5345,-0.5419 -0.8348,-1.2768 -0.8348,-2.0432 0,-0.7663 0.3003,-1.5013 0.8348,-2.0431 0.5345,-0.5419 1.2594,-0.8464 2.0152,-0.8464 h 18.3784 c 0.7559,0 1.4808,0.3045 2.0153,0.8464 0.5344,0.5418 0.8347,1.2768 0.8347,2.0431 0,0.7664 -0.3003,1.5013 -0.8347,2.0432 -0.5345,0.5419 -1.2594,0.8463 -2.0153,0.8463 z M 25.796,32.1506 c -0.3194,0.0271 -0.6174,0.1739 -0.8358,0.4117 -0.2183,0.2379 -0.3414,0.5498 -0.3452,0.8747 0.0186,0.3114 0.1489,0.6052 0.3665,0.8258 0.2176,0.2206 0.5074,0.3528 0.8145,0.3716 h 18.3784 c 0.3117,-0.0051 0.6092,-0.1329 0.8296,-0.3564 0.2203,-0.2234 0.3464,-0.525 0.3514,-0.841 0.0106,-0.329 -0.1077,-0.649 -0.3289,-0.89 -0.2213,-0.241 -0.5276,-0.3835 -0.8521,-0.3964 z"
     id="path16"
     inkscape:connector-curvature="0"
     style="fill:#2977ff" />
  <path
     d="M 13.3909,37.0687 C 12.0275,37.0661 10.7207,36.5158 9.7567,35.5384 8.7926,34.5609 8.2499,33.236 8.2473,31.8537 8.2408,31.1671 8.3694,30.486 8.6256,29.8503 c 0.2561,-0.6357 0.6348,-1.2132 1.1137,-1.6988 0.4789,-0.4856 1.0486,-0.8695 1.6756,-1.1292 0.627,-0.2597 1.2987,-0.3901 1.976,-0.3835 1.3651,0 2.6744,0.5491 3.6406,1.5268 0.9661,0.9777 1.5102,2.3041 1.5128,3.6881 -0.0202,1.3784 -0.57,2.6945 -1.5323,3.6684 -0.9624,0.9738 -2.2615,1.5287 -3.6211,1.5466 z m 0,-8.7873 c -0.4641,-0.0053 -0.9247,0.0835 -1.3545,0.2612 -0.4298,0.1776 -0.8203,0.4406 -1.1486,0.7733 -0.3282,0.3328 -0.5875,0.7287 -0.7628,1.1645 -0.1752,0.4358 -0.2627,0.9027 -0.2575,1.3733 0,0.9475 0.3712,1.8561 1.032,2.526 0.6608,0.67 1.557,1.0463 2.4914,1.0463 0.9275,-0.0226 1.8108,-0.4062 2.4668,-1.0713 0.656,-0.6651 1.0343,-1.5606 1.0566,-2.501 0,-0.4691 -0.0911,-0.9336 -0.2682,-1.367 -0.177,-0.4334 -0.4366,-0.8272 -0.7637,-1.159 -0.3272,-0.3317 -0.7156,-0.5948 -1.1431,-0.7743 -0.4275,-0.1796 -0.8857,-0.272 -1.3484,-0.272 z"
     id="path18"
     inkscape:connector-curvature="0"
     style="fill:#65c8d0" />
  <path
     d="m 56.7162,37.1281 c -1.3634,-0.0026 -2.6702,-0.5529 -3.6342,-1.5303 -0.9641,-0.9774 -1.5068,-2.3023 -1.5094,-3.6846 -0.0039,-0.685 0.1266,-1.364 0.3839,-1.9974 0.2574,-0.6334 0.6364,-1.2086 1.1151,-1.692 0.4787,-0.4835 1.0474,-0.8656 1.6731,-1.1241 0.6257,-0.2585 1.2959,-0.3883 1.9715,-0.3817 1.3634,0.0026 2.6702,0.5529 3.6342,1.5303 0.9641,0.9774 1.5068,2.3024 1.5094,3.6847 -0.0252,1.3732 -0.5758,2.6828 -1.5355,3.6522 -0.9598,0.9694 -2.2535,1.5226 -3.6081,1.5429 z m 0,-8.7872 c -0.4641,-0.0053 -0.9247,0.0835 -1.3545,0.2611 -0.4299,0.1776 -0.8204,0.4406 -1.1486,0.7734 -0.3282,0.3327 -0.5875,0.7287 -0.7628,1.1645 -0.1752,0.4358 -0.2627,0.9027 -0.2575,1.3733 0,0.9474 0.3712,1.856 1.032,2.526 0.6607,0.6699 1.5569,1.0463 2.4914,1.0463 0.9275,-0.0226 1.8108,-0.4063 2.4668,-1.0714 0.656,-0.6651 1.0343,-1.5606 1.0566,-2.5009 0,-0.9475 -0.3712,-1.8561 -1.032,-2.526 -0.6607,-0.67 -1.5569,-1.0463 -2.4914,-1.0463 z"
     id="path20"
     inkscape:connector-curvature="0"
     style="fill:#65c8d0" />
</svg>
