<svg xmlns="http://www.w3.org/2000/svg" viewBox="0 0 130.88 68.56"><defs><style>.co2-svg-cls-1{fill:#2977ff;}.co2-svg-cls-2{fill:#fff;}.co2-svg-cls-3{font-size:38.01px;}.co2-svg-cls-3,.co2-svg-cls-4{fill:#65c8d0;font-family:Evolventa-Bold, Evolventa;font-weight:700;}.co2-svg-cls-4{font-size:32.95px;}}</style></defs><title>CO2BLANC</title><g id="Calque_2" data-name="Calque 2"><g id="Calque_1-2" data-name="Calque 1"><path class="co2-svg-cls-1" d="M100.62,68.56H27.83C13.57,68.56,1.4,59.4.12,47.71S8.14,25.36,21.59,23C25.74,9.57,40.25,0,56.77,0c14.74,0,27.86,7.48,33.5,18.84a34.51,34.51,0,0,1,12.33-1.51c15.24.85,27.65,11.63,28.25,24.55.33,7.05-2.66,13.73-8.42,18.8A32.83,32.83,0,0,1,100.62,68.56ZM56.77,4.62c-14.58,0-27.31,8.77-30.27,20.84l-.39,1.6-1.91.22c-11.54,1.35-19.73,10.14-18.65,20,1,9.34,10.81,16.66,22.28,16.66h72.79a26.91,26.91,0,0,0,17.89-6.46,19.2,19.2,0,0,0,6.9-15.42c-.49-10.59-10.67-19.42-23.16-20.12A28.27,28.27,0,0,0,89.9,24l-2.8,1.14-1-2.5C81.94,11.86,70.14,4.62,56.77,4.62Z"/><path class="co2-svg-cls-2" d="M56.77,4.62c-14.58,0-27.31,8.77-30.27,20.84l-.39,1.6-1.91.22c-11.54,1.35-19.73,10.14-18.65,20,1,9.34,10.81,16.66,22.28,16.66h72.79a26.91,26.91,0,0,0,17.89-6.46,19.2,19.2,0,0,0,6.9-15.42c-.49-10.59-10.67-19.42-23.16-20.12A28.27,28.27,0,0,0,89.9,24l-2.8,1.14-1-2.5C81.94,11.86,70.14,4.62,56.77,4.62Z"/><text class="co2-svg-cls-3" transform="translate(31.72 44.82)">co</text><text class="co2-svg-cls-4" transform="translate(83.54 57.1)">2</text></g></g></svg>
