<?xml version="1.0" encoding="UTF-8" standalone="no"?>
<svg
   xmlns:dc="http://purl.org/dc/elements/1.1/"
   xmlns:cc="http://creativecommons.org/ns#"
   xmlns:rdf="http://www.w3.org/1999/02/22-rdf-syntax-ns#"
   xmlns:svg="http://www.w3.org/2000/svg"
   xmlns="http://www.w3.org/2000/svg"
   xmlns:sodipodi="http://sodipodi.sourceforge.net/DTD/sodipodi-0.dtd"
   xmlns:inkscape="http://www.inkscape.org/namespaces/inkscape"
   viewBox="0 0 130.88 68.56"
   version="1.1"
   id="svg18"
   sodipodi:docname="CO2BLANC.svg"
   inkscape:version="0.92.4 (f8dce91, 2019-08-02)">
  <metadata
     id="metadata22">
    <rdf:RDF>
      <cc:Work
         rdf:about="">
        <dc:format>image/svg+xml</dc:format>
        <dc:type
           rdf:resource="http://purl.org/dc/dcmitype/StillImage" />
      </cc:Work>
    </rdf:RDF>
  </metadata>
  <sodipodi:namedview
     pagecolor="#ffffff"
     bordercolor="#666666"
     borderopacity="1"
     objecttolerance="10"
     gridtolerance="10"
     guidetolerance="10"
     inkscape:pageopacity="0"
     inkscape:pageshadow="2"
     inkscape:window-width="1853"
     inkscape:window-height="1025"
     id="namedview20"
     showgrid="false"
     inkscape:zoom="3.4422405"
     inkscape:cx="65.440002"
     inkscape:cy="34.279999"
     inkscape:window-x="67"
     inkscape:window-y="27"
     inkscape:window-maximized="1"
     inkscape:current-layer="Calque_1-2" />
  <defs
     id="defs4">
    <style
       id="style2">.co2-cls-1{fill:#2977ff;}.co2-cls-2{fill:#fff;}.co2-cls-3{font-size:38.01px;}.co2-cls-3,.co2-cls-4{fill:#65c8d0;font-family:Evolventa-Bold, Evolventa;font-weight:700;}.co2-cls-4{font-size:32.95px;}</style>
  </defs>
  <g
     id="Calque_2"
     data-name="Calque 2">
    <g
       id="Calque_1-2"
       data-name="Calque 1">
      <path
         class="co2-cls-1"
         d="M100.62,68.56H27.83C13.57,68.56,1.4,59.4.12,47.71S8.14,25.36,21.59,23C25.74,9.57,40.25,0,56.77,0c14.74,0,27.86,7.48,33.5,18.84a34.51,34.51,0,0,1,12.33-1.51c15.24.85,27.65,11.63,28.25,24.55.33,7.05-2.66,13.73-8.42,18.8A32.83,32.83,0,0,1,100.62,68.56ZM56.77,4.62c-14.58,0-27.31,8.77-30.27,20.84l-.39,1.6-1.91.22c-11.54,1.35-19.73,10.14-18.65,20,1,9.34,10.81,16.66,22.28,16.66h72.79a26.91,26.91,0,0,0,17.89-6.46,19.2,19.2,0,0,0,6.9-15.42c-.49-10.59-10.67-19.42-23.16-20.12A28.27,28.27,0,0,0,89.9,24l-2.8,1.14-1-2.5C81.94,11.86,70.14,4.62,56.77,4.62Z"
         id="path8" />
      <path
         class="co2-cls-2"
         d="M56.77,4.62c-14.58,0-27.31,8.77-30.27,20.84l-.39,1.6-1.91.22c-11.54,1.35-19.73,10.14-18.65,20,1,9.34,10.81,16.66,22.28,16.66h72.79a26.91,26.91,0,0,0,17.89-6.46,19.2,19.2,0,0,0,6.9-15.42c-.49-10.59-10.67-19.42-23.16-20.12A28.27,28.27,0,0,0,89.9,24l-2.8,1.14-1-2.5C81.94,11.86,70.14,4.62,56.77,4.62Z"
         id="path10" />
      <g
         aria-label="co"
         transform="translate(31.72 44.82)"
         style="font-weight:700;font-size:38.00999832px;font-family:Evolventa-Bold, Evolventa;fill:#65c8d0"
         id="text12">
        <path
           d="m 19.988656,-20.137133 v 5.419394 q -1.354848,-0.927978 -2.728256,-1.373408 -1.354849,-0.445429 -2.821055,-0.445429 -2.783935,0 -4.342939,1.633242 -1.5404445,1.614682 -1.5404445,4.528535 0,2.9138521 1.5404445,4.5470942 1.559004,1.6146825 4.342939,1.6146825 1.559004,0 2.950972,-0.4639892 1.410527,-0.4639892 2.598339,-1.3734082 v 5.43795391 q -1.559003,0.57534665 -3.173686,0.85374019 -1.596123,0.29695312 -3.210806,0.29695312 -5.6235491,0 -8.7972355,-2.87673332 -3.1736864,-2.8952928 -3.1736864,-8.0362932 0,-5.141001 3.1736864,-8.017734 3.1736864,-2.895293 8.7972355,-2.895293 1.633243,0 3.210806,0.296953 1.596123,0.278393 3.173686,0.85374 z"
           style="font-weight:700;font-size:38.00999832px;font-family:Evolventa-Bold, Evolventa;fill:#65c8d0"
           id="path3727" />
        <path
           d="m 35.652932,-16.536576 q -2.208589,0 -3.377841,1.596123 -1.150694,1.577563 -1.150694,4.565654 0,2.9880903 1.150694,4.5842133 1.169252,1.5775634 3.377841,1.5775634 2.17147,0 3.322163,-1.5775634 1.150693,-1.596123 1.150693,-4.5842133 0,-2.988091 -1.150693,-4.565654 -1.150693,-1.596123 -3.322163,-1.596123 z m 0,-4.75125 q 5.363716,0 8.370366,2.895293 3.02521,2.895292 3.02521,8.017734 0,5.1224408 -3.02521,8.0177337 -3.00665,2.89529282 -8.370366,2.89529282 -5.382275,0 -8.426044,-2.89529282 -3.02521,-2.8952929 -3.02521,-8.0177337 0,-5.122442 3.02521,-8.017734 3.043769,-2.895293 8.426044,-2.895293 z"
           style="font-weight:700;font-size:38.00999832px;font-family:Evolventa-Bold, Evolventa;fill:#65c8d0"
           id="path3729" />
      </g>
      <g
         aria-label="2"
         transform="translate(83.54 57.1)"
         style="font-weight:700;font-size:32.95000076px;font-family:Evolventa-Bold, Evolventa;fill:#65c8d0"
         id="text14">
        <path
           d="M 9.4924319,-4.5531495 H 20.062818 V 0 H 2.6063965 v -4.5531495 l 8.7684325,-7.7387455 q 1.174488,-1.061865 1.737598,-2.075464 0.56311,-1.013598 0.56311,-2.107641 0,-1.689331 -1.142309,-2.719019 -1.126221,-1.029688 -3.0086184,-1.029688 -1.4479981,0 -3.1695069,0.627466 -1.7215088,0.611377 -3.6843507,1.834131 v -5.277148 q 2.0915528,-0.691822 4.134839,-1.045777 2.0432862,-0.370044 4.006128,-0.370044 4.311817,0 6.692969,1.898487 2.397241,1.898486 2.397241,5.293237 0,1.962842 -1.013598,3.668262 -1.013599,1.689331 -4.26355,4.5370606 z"
           style="font-weight:700;font-size:32.95000076px;font-family:Evolventa-Bold, Evolventa;fill:#65c8d0"
           id="path3732" />
      </g>
    </g>
  </g>
</svg>
