<svg xmlns="http://www.w3.org/2000/svg" viewBox="0 0 103.28 54.11"><defs><style>.cls-1{fill:#2977ff;}.cls-2{fill:#fff;}.cls-3{font-size:30px;}.cls-3,.cls-4{fill:#65c8d0;font-family:Evolventa-Bold, Evolventa;font-weight:700;}.cls-4{font-size:26px;}</style></defs><title>CO2</title><g id="Calque_2" data-name="Calque 2"><g id="Calque_1-2" data-name="Calque 1"><path class="cls-1" d="M79.4,54.11H22C10.71,54.11,1.11,46.88.09,37.65S6.43,20,17,18.14C20.32,7.56,31.76,0,44.8,0c11.63,0,22,5.9,26.44,14.87A27.24,27.24,0,0,1,81,13.68c12,.67,21.82,9.18,22.3,19.37a18.48,18.48,0,0,1-6.64,14.84A25.91,25.91,0,0,1,79.4,54.11ZM44.8,3.65c-11.51,0-21.55,6.92-23.89,16.45l-.31,1.26-1.5.18C10,22.6,3.52,29.53,4.38,37.31,5.19,44.69,12.91,50.46,22,50.46H79.4a21.24,21.24,0,0,0,14.12-5.09A15.15,15.15,0,0,0,99,33.2c-.39-8.35-8.42-15.33-18.28-15.88a22.31,22.31,0,0,0-9.74,1.61l-2.21.9-.77-2C64.67,9.36,55.36,3.65,44.8,3.65Z"/><path class="cls-2" d="M44.8,3.65c-11.51,0-21.55,6.92-23.89,16.45l-.31,1.26-1.5.18C10,22.6,3.52,29.53,4.38,37.31,5.19,44.69,12.91,50.46,22,50.46H79.4a21.24,21.24,0,0,0,14.12-5.09A15.15,15.15,0,0,0,99,33.2c-.39-8.35-8.42-15.33-18.28-15.88a22.31,22.31,0,0,0-9.74,1.61l-2.21.9-.77-2C64.67,9.36,55.36,3.65,44.8,3.65Z"/><text class="cls-3" transform="translate(25.03 35.37)">co</text><text class="cls-4" transform="translate(65.93 45.07)">2</text></g></g></svg>