<svg xmlns="http://www.w3.org/2000/svg" viewBox="0 0 99.42 119"><defs><style>.doc_cls-1{fill:#fff;}.doc_cls-2{fill:#2977ff;}.doc_cls-3{fill:#65c8d0;}</style></defs><title>DocumentationBLANC</title><g id="Calque_2" data-name="Calque 2"><g id="Calque_1-2" data-name="Calque 1"><rect class="doc_cls-1" x="46.22" y="21.29" width="6.99" height="95.71"/><path class="doc_cls-2" d="M53.21,119h-7a2,2,0,0,1-2-2V21.29a2,2,0,0,1,2-2h7a2,2,0,0,1,2,2V117A2,2,0,0,1,53.21,119Zm-5-4h3V23.29h-3Z"/><polygon class="doc_cls-1" points="97.42 97.71 53.2 117 53.2 21.3 97.42 2 97.42 97.71"/><path class="doc_cls-2" d="M53.21,119a2,2,0,0,1-2-2V21.29a2,2,0,0,1,1.2-1.83L96.62.17A2,2,0,0,1,99.42,2V97.71a2,2,0,0,1-1.2,1.83L54,118.83A2,2,0,0,1,53.21,119Zm2-96.4v91.34L95.42,96.4V5.05Zm42.22,75.1h0Z"/><polygon class="doc_cls-1" points="2 97.71 46.22 117 46.22 21.3 2 2 2 97.71"/><path class="doc_cls-2" d="M46.22,119a2,2,0,0,1-.8-.17L1.2,99.54A2,2,0,0,1,0,97.71V2A2,2,0,0,1,2.8.17L47,19.46a2,2,0,0,1,1.2,1.83V117a2,2,0,0,1-2,2ZM4,96.4l40.22,17.55V22.6L4,5.05Z"/><line class="doc_cls-1" x1="10.1" y1="17.35" x2="38.88" y2="30.5"/><path class="doc_cls-3" d="M38.88,32.5a2,2,0,0,1-.83-.18L9.27,19.17a2,2,0,1,1,1.66-3.64L39.71,28.69a2,2,0,0,1-.83,3.82Z"/><line class="doc_cls-1" x1="9.72" y1="33.6" x2="38.5" y2="46.76"/><path class="doc_cls-3" d="M38.5,48.76a2,2,0,0,1-.83-.18L8.89,35.42a2,2,0,0,1,1.66-3.64L39.33,44.94a2,2,0,0,1-.83,3.82Z"/><line class="doc_cls-1" x1="9.72" y1="49.86" x2="38.5" y2="63.01"/><path class="doc_cls-3" d="M38.5,65a2,2,0,0,1-.83-.18L8.89,51.68A2,2,0,0,1,10.55,48L39.33,61.19A2,2,0,0,1,38.5,65Z"/></g></g></svg>
