<svg xmlns="http://www.w3.org/2000/svg" viewBox="0 0 20.58 13.41"><defs><style>.cls-1{fill:#65c8d0;}</style></defs><title>Equipe</title><g id="Calque_2" data-name="Calque 2"><g id="Calque_1-2" data-name="Calque 1"><path class="cls-1" d="M4.63,4.26a1.9,1.9,0,1,0,1.9,1.9A1.88,1.88,0,0,0,4.63,4.26Zm0,5.07A3.17,3.17,0,1,1,4.63,3,3.14,3.14,0,0,1,7.8,6.16,3.17,3.17,0,0,1,4.63,9.33Z"/><path class="cls-1" d="M1.24,13.27,0,13l.21-.89a3.92,3.92,0,0,1,2-2.86,5.54,5.54,0,0,1,1.36-.49,8.72,8.72,0,0,1,1.14-.1,4.68,4.68,0,0,1,1.17.1,4.49,4.49,0,0,1,1.34.48,3.94,3.94,0,0,1,2,2.89l.17.88-1.25.24-.17-.89a2.69,2.69,0,0,0-1.33-2,3.31,3.31,0,0,0-1-.36,5,5,0,0,0-1.82,0,4.32,4.32,0,0,0-1,.36,2.67,2.67,0,0,0-1.3,2Z"/><path class="cls-1" d="M4.63,4.26a1.9,1.9,0,1,0,1.9,1.9A1.88,1.88,0,0,0,4.63,4.26Zm0,5.07A3.17,3.17,0,1,1,4.63,3,3.14,3.14,0,0,1,7.8,6.16,3.17,3.17,0,0,1,4.63,9.33Z"/><path class="cls-1" d="M1.24,13.27,0,13l.21-.89a3.92,3.92,0,0,1,2-2.86,5.54,5.54,0,0,1,1.36-.49,8.72,8.72,0,0,1,1.14-.1,4.68,4.68,0,0,1,1.17.1,4.49,4.49,0,0,1,1.34.48,3.94,3.94,0,0,1,2,2.89l.17.88-1.25.24-.17-.89a2.69,2.69,0,0,0-1.33-2,3.31,3.31,0,0,0-1-.36,5,5,0,0,0-1.82,0,4.32,4.32,0,0,0-1,.36,2.67,2.67,0,0,0-1.3,2Z"/><path class="cls-1" d="M15.9,4.4a1.9,1.9,0,1,0,1.9,1.9A1.88,1.88,0,0,0,15.9,4.4Zm0,5.07a3.17,3.17,0,1,1,0-6.34A3.14,3.14,0,0,1,19.07,6.3,3.17,3.17,0,0,1,15.9,9.47Z"/><path class="cls-1" d="M12.5,13.41l-1.24-.29.21-.89a3.92,3.92,0,0,1,2-2.86,5.54,5.54,0,0,1,1.36-.49,8.72,8.72,0,0,1,1.14-.1,4.68,4.68,0,0,1,1.17.1,4.49,4.49,0,0,1,1.34.48,3.94,3.94,0,0,1,2,2.89l.17.88-1.25.24-.17-.89a2.69,2.69,0,0,0-1.33-2,3.31,3.31,0,0,0-1-.36,5,5,0,0,0-1.82,0,4.32,4.32,0,0,0-1,.36,2.67,2.67,0,0,0-1.3,2Z"/><path class="cls-1" d="M10,1.27a1.9,1.9,0,1,0,1.9,1.9A1.88,1.88,0,0,0,10,1.27Zm0,5.07A3.17,3.17,0,1,1,10,0a3.14,3.14,0,0,1,3.17,3.17A3.17,3.17,0,0,1,10,6.34Z"/><path class="cls-1" d="M6.6,10.28,5.36,10l.21-.89a3.92,3.92,0,0,1,2-2.86A5.54,5.54,0,0,1,8.9,5.75,8.72,8.72,0,0,1,10,5.66a4.68,4.68,0,0,1,1.17.1,4.49,4.49,0,0,1,1.34.48,3.94,3.94,0,0,1,2,2.89l.17.88-1.25.24-.17-.89a2.69,2.69,0,0,0-1.33-2,3.31,3.31,0,0,0-1-.36A5,5,0,0,0,9.1,7a4.32,4.32,0,0,0-1,.36,2.67,2.67,0,0,0-1.3,2Z"/></g></g></svg>