<svg xmlns="http://www.w3.org/2000/svg" viewBox="0 0 128.55 115.99"><defs><style>.cls-1,.cls-2{fill:none;stroke-linecap:round;stroke-width:4px;}.cls-1,.cls-2,.cls-5{stroke:#65c8d0;}.cls-1,.cls-2,.cls-3,.cls-4,.cls-5{stroke-miterlimit:10;}.cls-2{stroke-dasharray:12.71 12.71;}.cls-3{fill:#fff;fill-rule:evenodd;}.cls-3,.cls-4{stroke:#2977ff;}.cls-4{fill:#2977ff;}.cls-5{fill:#65c8d0;}</style></defs><title>Trajet</title><g id="Calque_2" data-name="Calque 2"><g id="Calque_1-2" data-name="Calque 1"><path class="cls-1" d="M22.9,114s1.71-1.48,4.73-3.69"/><path class="cls-2" d="M38.26,103.34a93.1,93.1,0,0,1,26.8-10.82c13.94-3,25.89-14.31,33.14-22.8"/><path class="cls-1" d="M102.19,64.77c2.24-2.95,3.47-4.89,3.47-4.89"/><path class="cls-3" d="M22.9,112.63s-21.4-20-21.4-37a21.4,21.4,0,1,1,42.8,0C44.3,92.64,22.9,112.63,22.9,112.63Z"/><path class="cls-4" d="M22.9,114l-.68-.64C21.33,112.53.5,92.88.5,75.65a22.4,22.4,0,1,1,44.8,0c0,17.23-20.83,36.88-21.72,37.71Zm0-58.74A20.42,20.42,0,0,0,2.5,75.65c0,14.67,16.77,32,20.4,35.59,3.62-3.57,20.4-20.92,20.4-35.59A20.42,20.42,0,0,0,22.9,55.25Z"/><path class="cls-5" d="M22.9,89.1A14.86,14.86,0,1,1,37.76,74.24,14.88,14.88,0,0,1,22.9,89.1Zm0-27.72A12.86,12.86,0,1,0,35.76,74.24,12.87,12.87,0,0,0,22.9,61.38Z"/><path class="cls-3" d="M105.65,59.88s-21.4-20-21.4-37a21.4,21.4,0,1,1,42.8,0C127.05,39.89,105.65,59.88,105.65,59.88Z"/><path class="cls-4" d="M105.65,61.24l-.68-.64c-.89-.83-21.72-20.48-21.72-37.71a22.4,22.4,0,1,1,44.8,0c0,17.23-20.83,36.88-21.72,37.71Zm0-58.74a20.42,20.42,0,0,0-20.4,20.4c0,14.67,16.77,32,20.4,35.59,3.62-3.57,20.4-20.92,20.4-35.59A20.42,20.42,0,0,0,105.65,2.5Z"/><path class="cls-5" d="M105.65,36.35a14.86,14.86,0,1,1,14.86-14.86A14.88,14.88,0,0,1,105.65,36.35Zm0-27.72a12.86,12.86,0,1,0,12.86,12.86A12.87,12.87,0,0,0,105.65,8.63Z"/></g></g></svg>