<svg xmlns="http://www.w3.org/2000/svg" viewBox="0 0 129.55 116.49"><defs><style>.journey-svg-cls-1{fill:#65c8d0;}.journey-svg-cls-2{fill:#fff;fill-rule:evenodd;}.journey-svg-cls-3{fill:#2977ff;}</style></defs><g id="Calque_2" data-name="Calque 2"><g id="Calque_1-2" data-name="Calque 1"><path class="journey-svg-cls-1" d="M23.4,116.49A2,2,0,0,1,22.09,113c.07-.06,1.81-1.56,4.85-3.79a2,2,0,0,1,2.36,3.23c-2.9,2.13-4.58,3.58-4.6,3.59A2,2,0,0,1,23.4,116.49Z"/><path class="journey-svg-cls-1" d="M38.76,105.84a2,2,0,0,1-1-3.73,111,111,0,0,1,11.53-5.87,2,2,0,0,1,1.59,3.67,107.1,107.1,0,0,0-11.12,5.66A2,2,0,0,1,38.76,105.84Zm23.3-10a2,2,0,0,1-.51-3.93c1.2-.32,2.41-.61,3.59-.86a38.59,38.59,0,0,0,8.19-2.79A2,2,0,1,1,75,91.9,42.56,42.56,0,0,1,66,95c-1.12.24-2.26.51-3.4.82A2,2,0,0,1,62.06,95.86ZM85,85.43a2,2,0,0,1-1.22-3.59A83.94,83.94,0,0,0,93,73.54a2,2,0,1,1,2.88,2.78A87.89,87.89,0,0,1,86.19,85,2,2,0,0,1,85,85.43Z"/><path class="journey-svg-cls-1" d="M102.68,67.27a2,2,0,0,1-1.59-3.21c2.15-2.83,3.36-4.74,3.37-4.75a2,2,0,0,1,3.38,2.14c-.05.08-1.3,2-3.56,5A2,2,0,0,1,102.68,67.27Z"/><path class="journey-svg-cls-2" d="M23.4,113.13S2,93.14,2,76.15a21.4,21.4,0,1,1,42.8,0C44.8,93.14,23.4,113.13,23.4,113.13Z"/><path class="journey-svg-cls-3" d="M23.4,114.49l-.68-.64C21.83,113,1,93.38,1,76.15a22.4,22.4,0,1,1,44.8,0C45.8,93.38,25,113,24.08,113.86Zm0-58.74A20.42,20.42,0,0,0,3,76.15c0,14.67,16.77,32,20.4,35.59C27,108.16,43.8,90.81,43.8,76.15A20.42,20.42,0,0,0,23.4,55.75Z"/><path class="journey-svg-cls-3" d="M23.4,114.49l-.68-.64C21.83,113,1,93.38,1,76.15a22.4,22.4,0,1,1,44.8,0C45.8,93.38,25,113,24.08,113.86Zm0-58.74A20.42,20.42,0,0,0,3,76.15c0,14.67,16.77,32,20.4,35.59C27,108.16,43.8,90.81,43.8,76.15A20.42,20.42,0,0,0,23.4,55.75Z"/><path class="journey-svg-cls-3" d="M23.4,115.86,22,114.59c-.9-.84-22-20.78-22-38.44a23.4,23.4,0,1,1,46.8,0c0,17.66-21.13,37.6-22,38.44ZM2,76.17c0,15.86,18.3,34,21.08,36.65l-.38-.37C19.24,109,2,91.29,2,76.17Zm42.8,0c0,15.11-17.24,32.87-20.7,36.27l-.37.37C26.52,110.13,44.78,92,44.8,76.17ZM23.4,56.75A19.42,19.42,0,0,0,4,76.15c0,13.51,14.88,29.6,19.4,34.17,4.52-4.57,19.4-20.67,19.4-34.17A19.42,19.42,0,0,0,23.4,56.75ZM44.8,76.16h0ZM2,76.16H2Z"/><path class="journey-svg-cls-1" d="M23.4,89.6A14.86,14.86,0,1,1,38.26,74.74,14.88,14.88,0,0,1,23.4,89.6Zm0-27.72A12.86,12.86,0,1,0,36.26,74.74,12.87,12.87,0,0,0,23.4,61.88Z"/><path class="journey-svg-cls-1" d="M23.4,91.1A16.36,16.36,0,1,1,39.76,74.74,16.38,16.38,0,0,1,23.4,91.1Zm0-27.72A11.36,11.36,0,1,0,34.76,74.74,11.37,11.37,0,0,0,23.4,63.38Z"/><path class="journey-svg-cls-2" d="M106.15,60.38s-21.4-20-21.4-37a21.4,21.4,0,1,1,42.8,0C127.55,40.39,106.15,60.38,106.15,60.38Z"/><path class="journey-svg-cls-3" d="M106.15,61.74l-.68-.64c-.89-.83-21.72-20.48-21.72-37.71a22.4,22.4,0,1,1,44.8,0c0,17.23-20.83,36.88-21.72,37.71Zm0-58.74a20.42,20.42,0,0,0-20.4,20.4c0,14.67,16.77,32,20.4,35.59,3.62-3.57,20.4-20.92,20.4-35.59A20.42,20.42,0,0,0,106.15,3Z"/><path class="journey-svg-cls-3" d="M106.15,61.74l-.68-.64c-.89-.83-21.72-20.48-21.72-37.71a22.4,22.4,0,1,1,44.8,0c0,17.23-20.83,36.88-21.72,37.71Zm0-58.74a20.42,20.42,0,0,0-20.4,20.4c0,14.67,16.77,32,20.4,35.59,3.62-3.57,20.4-20.92,20.4-35.59A20.42,20.42,0,0,0,106.15,3Z"/><path class="journey-svg-cls-3" d="M106.15,63.11l-1.36-1.27c-.9-.84-22-20.78-22-38.44a23.4,23.4,0,1,1,46.8,0c0,17.66-21.13,37.6-22,38.44ZM84.76,23.42c0,15.86,18.3,34,21.08,36.65l-.38-.37C102,56.29,84.77,38.54,84.76,23.42Zm42.8,0c0,15.11-17.24,32.87-20.7,36.27l-.37.37C109.28,57.38,127.54,39.27,127.55,23.42ZM106.15,4a19.42,19.42,0,0,0-19.4,19.4c0,13.51,14.88,29.6,19.4,34.17,4.52-4.57,19.4-20.67,19.4-34.17A19.42,19.42,0,0,0,106.15,4Zm21.4,19.41h0Zm-42.8,0h0Z"/><path class="journey-svg-cls-1" d="M106.15,36.85A14.86,14.86,0,1,1,121,22,14.88,14.88,0,0,1,106.15,36.85Zm0-27.72A12.86,12.86,0,1,0,119,22,12.87,12.87,0,0,0,106.15,9.13Z"/><path class="journey-svg-cls-1" d="M106.15,38.35A16.36,16.36,0,1,1,122.51,22,16.38,16.38,0,0,1,106.15,38.35Zm0-27.72A11.36,11.36,0,1,0,117.51,22,11.37,11.37,0,0,0,106.15,10.63Z"/></g></g></svg>
