<?xml version="1.0" encoding="UTF-8"?>
<svg width="128" height="128" enable-background="new 0 0 100 100" version="1.1" viewBox="0 0 128 128" xml:space="preserve" xmlns="http://www.w3.org/2000/svg"><g transform="matrix(1.1746 0 0 1.1746 5.3671 1.5505)"><g transform="translate(0,3)"><path d="m50.384 58.572c-0.491 0-0.991-0.059-1.496-0.177-2.242-0.525-3.561-2.406-4.265-3.861-1.866 1.87-5.042 3.652-8.733 2.009-0.203-0.09-0.398-0.185-0.586-0.284-0.514-0.272-0.71-0.91-0.438-1.424 0.272-0.515 0.909-0.711 1.423-0.438 0.146 0.077 0.297 0.151 0.455 0.222 4.233 1.883 7.215-2.537 7.34-2.727 0.23-0.349 0.642-0.531 1.059-0.458 0.412 0.071 0.743 0.378 0.844 0.785 8e-3 0.032 0.92 3.55 3.381 4.126 1.608 0.381 3.046-0.11 4.269-1.451 0.391-0.431 1.056-0.462 1.486-0.07s0.462 1.059 0.07 1.488c-1.351 1.485-3.021 2.26-4.809 2.26z"/><path d="m59.467 48.127c-0.392 0-0.772-0.201-0.986-0.562-0.322-0.543-0.142-1.246 0.401-1.567 0.933-0.552 1.604-1.304 1.993-2.235 0.703-1.681 0.76-3.299 0.163-4.683-0.628-1.456-1.951-2.599-3.827-3.305-0.351-0.132-0.615-0.428-0.706-0.791-0.092-0.364 0-0.749 0.245-1.032 0.136-0.155 0.26-0.226 0.433-0.324 2.194-1.247 5.601-3.942 3.771-7.988-0.799-1.768-2.06-2.9-3.743-3.366-2.146-0.594-4.78-0.013-7.042 1.557-0.329 0.227-0.752 0.269-1.118 0.105-0.366-0.163-0.619-0.503-0.67-0.9-0.194-1.527-0.943-3.655-1.812-4.428-0.999-0.887-2.136-1.249-3.294-1.048-1.352 0.236-2.598 1.236-3.419 2.745-0.302 0.555-0.998 0.758-1.553 0.457-0.555-0.302-0.76-0.998-0.458-1.553 1.157-2.123 2.992-3.546 5.035-3.904 1.841-0.317 3.69 0.245 5.209 1.592 1.119 0.996 1.829 2.741 2.22 4.184 2.468-1.274 5.182-1.654 7.511-1.012 2.337 0.646 4.142 2.247 5.22 4.629 1.631 3.604 0.464 7.194-3.108 9.868 1.483 0.918 2.577 2.141 3.21 3.608 0.848 1.967 0.795 4.206-0.154 6.473-0.584 1.395-1.572 2.513-2.938 3.32-0.184 0.109-0.385 0.16-0.583 0.16z"/><path d="m30.723 33c-1.593 0-3.231-0.425-4.723-1.248-1.942-1.07-3.339-2.805-3.932-4.887-0.597-2.093-0.327-4.311 0.758-6.244 0.311-0.551 1.008-0.748 1.559-0.438s0.747 1.007 0.438 1.558c-0.785 1.398-0.981 2.995-0.554 4.498 0.425 1.489 1.432 2.735 2.836 3.509 1.731 0.956 3.688 1.218 5.374 0.714 1.291-0.383 2.279-1.161 2.858-2.251 0.407-0.761 0.578-1.61 0.511-2.523-0.046-0.631 0.427-1.179 1.058-1.226 0.626-0.049 1.179 0.429 1.225 1.058 0.098 1.334-0.169 2.637-0.773 3.768-0.86 1.619-2.362 2.816-4.227 3.37-0.773 0.228-1.585 0.342-2.408 0.342z"/><path d="m63.122 78.641c-1.794-1.755-3.978-2.648-6.486-2.648-2.578 0-4.801 0.894-6.605 2.648-1.795 1.772-2.71 3.976-2.71 6.547 0 2.511 0.913 4.696 2.71 6.49 1.804 1.803 4.021 2.72 6.605 2.72 2.509 0 4.696-0.917 6.489-2.717 1.798-1.795 2.71-3.979 2.71-6.493-2e-3 -2.576-0.912-4.782-2.713-6.547zm-3.758 9.29c-0.753 0.757-1.664 1.127-2.729 1.127s-1.974-0.371-2.734-1.127c-0.758-0.763-1.135-1.67-1.135-2.743 0-1.055 0.379-1.962 1.135-2.721 0.761-0.762 1.67-1.15 2.734-1.15s1.976 0.389 2.729 1.15c0.761 0.76 1.142 1.666 1.142 2.721-2e-3 1.073-0.381 1.981-1.142 2.743z"/></g><g transform="translate(0,3)"><path d="m93.364 48.246h5.926v-5.052h-23.488c-1.521 0-3.552 0.567-4.518 2.176l-7.257 13.454-10.701-15.742-2.785 1.893 10.635 15.644h-14.054c-3.645 0-6.602 2.717-6.602 6.072v0.972h0.015v2.882 4.292h-2.738v5.351c0 1.888 0.954 2.843 2.848 2.843h2.618c0.228-3.187 1.692-5.899 4.381-8.142 2.697-2.232 5.541-3.182 8.882-3.182 4.15 0 8.17 1.759 10.659 5.001 2.722 3.549 2.295 7.804 2.295 7.804l29.81 0.011v-24.353l-7.782-0.039-3e-3 -10.025c0-1.031 0.828-1.86 1.859-1.86zm-24.148 11.903 5.252-10.79c0.511-0.813 1.17-1.058 2.077-1.058h8.467c1.446 0 2.165 0.721 2.165 2.168l8e-3 9.679h-17.969z"/><path d="m47.407 42.731h-14.085c0.956-1.089 1.759-2.347 2.34-3.735 1.9 1.097 4.459 1.653 6.297 1.554 2.894-0.151 5.285-1.653 6.56-4.122 1.273-2.466 1.146-5.449-0.334-7.783-0.338-0.535-1.046-0.695-1.58-0.354-0.534 0.338-0.692 1.045-0.354 1.579 1.046 1.65 1.136 3.761 0.233 5.507-0.892 1.728-2.585 2.779-4.645 2.887-1.768 0.091-4.65-0.673-5.955-1.918-0.29-0.278-0.703-0.383-1.087-0.278-0.386 0.103-0.689 0.401-0.801 0.784-0.918 3.15-3.083 5.734-5.789 6.912-2.204 0.958-4.582 0.902-6.697-0.163-5.458-2.745-4.193-8.181-2.953-11.176 0.092-0.222 0.153-0.369 0.161-0.59 0.013-0.374-0.159-0.731-0.458-0.956-0.3-0.224-0.692-0.287-1.046-0.17-2.93 0.975-5.896 0.767-7.93-0.548-1.572-1.017-2.514-2.63-2.721-4.663-0.234-2.292 0.341-4.161 1.708-5.556 1.486-1.516 3.6-2.094 4.927-1.979 0.014 1e-3 0.026-5e-3 0.04-5e-3 0.429 1.765 1.341 3.427 2.677 4.783 0.224 0.227 0.52 0.341 0.815 0.341 0.291 0 0.58-0.11 0.803-0.33 0.45-0.444 0.456-1.168 0.012-1.618-1.585-1.608-2.42-3.752-2.289-5.883 0.082-1.345 0.598-3.279 2.586-4.856 2.329-1.85 5.515-2.6 8.316-1.954 2.569 0.59 4.6 2.302 5.875 4.954 0.274 0.568 0.957 0.809 1.527 0.535s0.81-0.958 0.536-1.528c-2.005-4.168-5.144-5.668-7.425-6.192-3.462-0.79-7.39 0.124-10.251 2.394-2.066 1.639-3.292 3.951-3.448 6.51-0.011 0.187-3e-3 0.374-3e-3 0.561-1.896-0.029-4.457 0.755-6.332 2.667-1.283 1.308-2.732 3.652-2.351 7.39 0.034 0.338 0.085 0.67 0.152 0.993-0.038 0.021-0.081 0.027-0.117 0.052-2.619 1.87-4.051 4.997-3.738 8.161 0.458 4.652 4.46 8.146 9.124 8.145 0.293 0 0.59-0.013 0.888-0.041 1.962-0.186 3.766-0.978 5.211-2.245 0.167 0.421 0.375 0.822 0.606 1.21-2.458 1.308-3.875 3.994-3.875 6.756v17.669c-9e-3 3.478 4.532 3.478 4.532 0v-17.3h1.859l0.012 42.022c0 1.791 1.456 3.244 3.246 3.244 1.792 0 3.157-1.363 3.157-3.153l-9e-3 -22.387 1.862-0.011 3e-3 22.307c0 1.791 1.125 3.244 2.92 3.244 1.791 0 3.246-1.453 3.246-3.244l-9e-3 -43.372h14.05c1.395 0 2.526-1.13 2.526-2.525s-1.13-2.526-2.525-2.526zm-32.2-4.526c-0.059 0.046-0.126 0.08-0.177 0.14-1.17 1.386-2.821 2.245-4.65 2.417-3.787 0.355-7.155-2.354-7.519-6.048-0.215-2.178 0.696-4.323 2.381-5.739 0.649 1.26 1.59 2.326 2.799 3.108 2.125 1.374 4.86 1.834 7.734 1.343-0.505 1.708-0.692 3.31-0.568 4.779z"/></g></g></svg>
