<svg width="80" height="80" viewBox="0 0 80 80" fill="none" xmlns="http://www.w3.org/2000/svg">
  <path fill-rule="evenodd" clip-rule="evenodd"
        d="M74.9999 17.4219C74.9999 19.533 76.7172 21.2501 78.8281 21.2501C79.4754 21.2501 80 21.7747 80 22.422C80 23.0693 79.4754 23.5939 78.8281 23.5939C76.717 23.5939 74.9999 25.3112 74.9999 27.4221C74.9999 28.0694 74.4753 28.594 73.828 28.594C73.1807 28.594 72.6561 28.0694 72.6561 27.4221C72.6561 25.3112 70.9388 23.5939 68.8279 23.5939C68.1806 23.5939 67.656 23.0693 67.656 22.422C67.656 21.7747 68.1806 21.2501 68.8279 21.2501C70.9389 21.2501 72.6561 19.5328 72.6561 17.4219C72.6561 16.7746 73.1807 16.25 73.828 16.25C74.4753 16.25 74.9999 16.7746 74.9999 17.4219ZM72.4427 22.422C72.9742 22.8075 73.4426 23.2758 73.8281 23.8074C74.2136 23.276 74.6819 22.8075 75.2136 22.422C74.6821 22.0365 74.2136 21.5682 73.8281 21.0366C73.4428 21.5681 72.9743 22.0365 72.4427 22.422Z"
        fill="#007AD9"/>
  <path fill-rule="evenodd" clip-rule="evenodd"
        d="M7.49973 17.4219C7.49973 19.533 9.21716 21.2501 11.3279 21.2501C11.9751 21.2501 12.4998 21.7747 12.4998 22.422C12.4998 23.0693 11.9751 23.5939 11.3279 23.5939C9.21716 23.5939 7.49973 25.3112 7.49973 27.4221C7.49973 28.0694 6.97497 28.594 6.3278 28.594C5.68063 28.594 5.15587 28.0694 5.15587 27.4221C5.15587 25.3112 3.43844 23.5939 1.32772 23.5939C0.680549 23.5939 0.155792 23.0693 0.155792 22.422C0.155792 21.7747 0.680549 21.2501 1.32772 21.2501C3.43844 21.2501 5.15587 19.5328 5.15587 17.4219C5.15587 16.7746 5.68063 16.25 6.3278 16.25C6.97497 16.25 7.49973 16.7746 7.49973 17.4219ZM4.94238 22.422C5.474 22.8075 5.9423 23.2758 6.3278 23.8074C6.7133 23.276 7.18176 22.8075 7.71322 22.422C7.1816 22.0365 6.7133 21.5682 6.3278 21.0366C5.94246 21.5681 5.47415 22.0365 4.94238 22.422Z"
        fill="#007AD9"/>
  <path fill-rule="evenodd" clip-rule="evenodd"
        d="M41.2498 1.17177C41.2498 3.97209 43.5278 6.24998 46.328 6.24998C46.9753 6.24998 47.5 6.77474 47.5 7.42207C47.5 8.0694 46.9754 8.594 46.3281 8.594C43.528 8.594 41.2499 10.872 41.2499 13.6722C41.2499 14.3195 40.7253 14.8441 40.078 14.8441C39.4308 14.8441 38.9061 14.3195 38.9061 13.6722C38.9061 10.872 36.6278 8.594 33.8278 8.594C33.1807 8.594 32.6559 8.0694 32.6559 7.42207C32.6559 6.77474 33.1807 6.25014 33.8278 6.25014C36.6278 6.25014 38.9061 3.97209 38.9061 1.17193C38.9061 0.5246 39.4308 0 40.078 0C40.7253 0 41.2499 0.5246 41.2498 1.17177ZM37.8269 7.42191C38.7291 8.00125 39.4986 8.77084 40.078 9.67283C40.6573 8.77084 41.4269 8.00125 42.3289 7.42191C41.4269 6.84257 40.6573 6.07298 40.078 5.17099C39.4986 6.07298 38.7291 6.84257 37.8269 7.42191Z"
        fill="#007AD9"/>
  <path fill-rule="evenodd" clip-rule="evenodd"
        d="M59.918 26.6159L64.4766 39.5319C64.6032 39.8906 64.5477 40.2884 64.328 40.5989C64.1084 40.9092 63.7517 41.0939 63.3715 41.0939H16.4719C15.6775 41.0939 15.1021 40.2822 15.3669 39.5319L19.9255 26.6158C20.2665 25.6494 21.1843 25 22.2093 25H57.6342C58.659 25 59.5769 25.6494 59.918 26.6159ZM22.1355 27.3958L18.1282 38.75H61.7152L57.7079 27.3959C57.6972 27.3657 57.6661 27.3437 57.6342 27.3437H22.2091C22.1772 27.3437 22.1461 27.3657 22.1355 27.3958Z"
        fill="#007AD9"/>
  <path fill-rule="evenodd" clip-rule="evenodd"
        d="M54.9999 59.9222C54.9999 57.1623 58.26 55.0002 62.4218 55.0002C66.5837 55.0002 69.8437 57.1623 69.8437 59.9222C69.8437 62.6821 66.5837 64.8441 62.4218 64.8441C58.26 64.8441 54.9999 62.6821 54.9999 59.9222ZM57.3436 59.9222C57.3436 61.1392 59.5153 62.5003 62.4218 62.5003C65.3283 62.5003 67.5 61.1392 67.5 59.9222C67.5 58.7052 65.3283 57.3441 62.4218 57.3441C59.5152 57.3441 57.3436 58.7052 57.3436 59.9222Z"
        fill="#007AD9"/>
  <path fill-rule="evenodd" clip-rule="evenodd"
        d="M9.99969 59.9222C9.99969 57.1623 13.2597 55.0002 17.4216 55.0002C21.5835 55.0002 24.8435 57.1623 24.8435 59.9222C24.8435 62.6821 21.5835 64.8441 17.4216 64.8441C13.2597 64.8441 9.99969 62.6821 9.99969 59.9222ZM12.3434 59.9222C12.3434 61.1392 14.5153 62.5003 17.4216 62.5003C20.3281 62.5003 22.4998 61.1392 22.4998 59.9222C22.4998 58.7052 20.3281 57.3441 17.4216 57.3441C14.5151 57.3441 12.3434 58.7052 12.3434 59.9222Z"
        fill="#007AD9"/>
  <path fill-rule="evenodd" clip-rule="evenodd"
        d="M71.1719 37.5001H77.4219C78.0692 37.5001 78.5937 38.0246 78.5935 38.6721V43.6721C78.5935 44.3195 78.0689 44.8441 77.4216 44.8441H70.9486L74.9438 50.4372C75.6958 51.4898 76.0934 52.7305 76.0934 54.0246V68.6722C76.0934 70.7019 75.1083 72.5055 73.5914 73.631C73.5919 73.6447 73.5935 73.6583 73.5935 73.6721V77.4222C73.5935 78.7575 72.5071 79.844 71.1716 79.844H63.6716C62.3362 79.844 61.2498 78.7577 61.2498 77.4222V74.8441H18.5934V77.4222C18.5934 78.7575 17.5071 79.844 16.1715 79.844H8.67151C7.33615 79.844 6.24967 78.7577 6.24967 77.4222V73.6721C6.24967 73.664 6.25022 73.6559 6.25076 73.6478L6.25129 73.6395L6.2517 73.631C4.73482 72.5055 3.74971 70.7019 3.74971 68.6722V54.0246C3.74971 52.7307 4.14722 51.49 4.89919 50.4372L8.89435 44.8441H2.42153C1.77435 44.8441 1.2496 44.3195 1.2496 43.6721V38.6721C1.2496 38.0247 1.77435 37.5001 2.42153 37.5001H8.67166C9.20921 37.5001 9.67798 37.866 9.8085 38.3878L10.6317 41.6807L16.3892 25.3679C17.2585 22.9049 19.5974 21.25 22.2093 21.25H57.6342C60.2461 21.25 62.585 22.9049 63.4542 25.3677L69.2119 41.6806L70.0351 38.3878C70.1655 37.8661 70.6342 37.5001 71.1719 37.5001ZM3.59346 39.8438V42.5001H8.42059L7.75657 39.8438H3.59346ZM16.2498 77.4222C16.2498 77.4652 16.2149 77.5003 16.1717 77.5003H8.67166C8.62862 77.5003 8.59353 77.4652 8.59353 77.4222V74.8441H9.92172H16.2498V77.4222ZM71.1718 77.5003C71.2148 77.5003 71.2499 77.4652 71.2499 77.4222V74.8441H69.9217H63.5936V77.4222C63.5936 77.4652 63.6287 77.5003 63.6717 77.5003H71.1718ZM69.9219 72.5002H9.92156C8.21942 72.5002 6.77381 71.3833 6.27759 69.844H73.5657C73.0695 71.3833 71.624 72.5002 69.9219 72.5002ZM49.9998 62.5002V59.844H29.8436V62.5002H49.9998ZM30.0278 57.5001C30.524 55.9608 31.9694 54.8439 33.6717 54.8439H46.1719C47.874 54.8439 49.3196 55.9608 49.8158 57.5001H30.0278ZM49.9998 67.5001V64.8439H29.8436V67.5001H49.9998ZM73.037 51.7994C73.5035 52.4523 73.75 53.2218 73.75 54.0244V67.5003H52.3437V58.6721C52.3437 55.2689 49.5749 52.5002 46.1719 52.5002H33.6717C30.2685 52.5002 27.4999 55.269 27.4999 58.6721V67.5003H6.09342V54.0244C6.09342 53.2218 6.33997 52.4523 6.8064 51.7994L11.7747 44.8439H54.9216C55.569 44.8439 56.0936 44.3193 56.0936 43.672C56.0936 43.0247 55.569 42.5001 54.9216 42.5001H12.8279L18.5993 26.1478C19.1386 24.6203 20.5892 23.5937 22.2093 23.5937H57.6343C59.2543 23.5937 60.7049 24.6201 61.2443 26.1478L67.0155 42.5001H59.9217C59.2744 42.5001 58.7498 43.0247 58.7498 43.672C58.7498 44.3193 59.2744 44.8439 59.9217 44.8439H68.0688L73.037 51.7994ZM71.4227 42.5001H76.25V39.8438H72.0867L71.4227 42.5001Z"
        fill="#007AD9"/>
  <path
    d="M21.1716 51.2502H13.6716C13.0244 51.2502 12.4996 51.7748 12.4996 52.4222C12.4996 53.0695 13.0244 53.5941 13.6716 53.5941H21.1716C21.8188 53.5941 22.3435 53.0695 22.3435 52.4222C22.3435 51.7748 21.8188 51.2502 21.1716 51.2502Z"
    fill="#007AD9"/>
  <path
    d="M66.1718 51.2502H58.6718C58.0245 51.2502 57.4999 51.7748 57.4999 52.4222C57.4999 53.0695 58.0245 53.5941 58.6718 53.5941H66.1718C66.8192 53.5941 67.3438 53.0695 67.3438 52.4222C67.3438 51.7748 66.8192 51.2502 66.1718 51.2502Z"
    fill="#007AD9"/>
</svg>
