<svg xmlns="http://www.w3.org/2000/svg" viewBox="0 0 90.92 102.77"><defs><style>.cls-1{fill:#fff;}.cls-2{fill:#65c8d0;}</style></defs><g id="Calque_2" data-name="Calque 2"><g id="Calque_1-2" data-name="Calque 1"><circle class="cls-1" cx="45.46" cy="29.65" r="27.65"/><path class="cls-1" d="M2,100.77a43.46,43.46,0,1,1,86.92,0"/><path class="cls-2" d="M88.92,102.77a2,2,0,0,1-2-2,41.46,41.46,0,1,0-82.92,0,2,2,0,0,1-4,0,45.46,45.46,0,1,1,90.92,0A2,2,0,0,1,88.92,102.77Z"/><path class="cls-2" d="M45.46,59.31A29.65,29.65,0,1,1,75.12,29.65,29.69,29.69,0,0,1,45.46,59.31ZM45.46,4A25.65,25.65,0,1,0,71.12,29.65,25.68,25.68,0,0,0,45.46,4Z"/></g></g></svg>
