<svg xmlns="http://www.w3.org/2000/svg" viewBox="0 0 97.27 118.74"><defs><style>.petrol-cls-1,.petrol-cls-3{fill:#fff;}.petrol-cls-2{fill:#2977ff;}.petrol-cls-3{stroke:#2977ff;stroke-miterlimit:10;stroke-width:3px;}.petrol-cls-4{fill:#65c8d0;}</style></defs><g id="Calque_2" data-name="Calque 2"><g id="Calque_1-2" data-name="Calque 1"><rect class="petrol-cls-1" x="12.3" y="7.41" width="73.05" height="103.93"/><path class="petrol-cls-2" d="M87.35,113.33H10.3V5.41H87.35Zm-73.05-4H83.35V9.41H14.3Z"/><rect class="petrol-cls-1" x="3.1" y="105.93" width="91.44" height="10.82" rx="2.02" ry="2.02"/><path class="petrol-cls-2" d="M92.52,118.74H5.12a4,4,0,0,1-4-4v-6.78a4,4,0,0,1,4-4H92.52a4,4,0,0,1,4,4v6.78A4,4,0,0,1,92.52,118.74ZM5.12,107.93l0,6.8,87.42,0a0,0,0,0,0,0,0v-6.78Z"/><rect class="petrol-cls-1" x="2" y="52.26" width="91.44" height="10.82" rx="2.02" ry="2.02"/><path class="petrol-cls-2" d="M91.42,65.08H4a4,4,0,0,1-4-4V54.28a4,4,0,0,1,4-4H91.42a4,4,0,0,1,4,4v6.78A4,4,0,0,1,91.42,65.08ZM4,54.26l0,6.8,87.42,0a0,0,0,0,0,0,0V54.28Z"/><path class="petrol-cls-3" d="M40.61,12.82"/><rect class="petrol-cls-4" x="30.71" y="13.26" width="30.63" height="10.82" rx="3.68" ry="3.68" transform="translate(27.35 64.68) rotate(-90)"/><path class="petrol-cls-4" d="M47.75,35.48H44.29a5.18,5.18,0,0,1-5.18-5.18V7a5.18,5.18,0,0,1,5.18-5.18h3.46A5.18,5.18,0,0,1,52.93,7V30.3A5.18,5.18,0,0,1,47.75,35.48ZM44.29,4.85A2.18,2.18,0,0,0,42.11,7V30.3a2.18,2.18,0,0,0,2.18,2.18h3.46a2.18,2.18,0,0,0,2.18-2.18V7a2.18,2.18,0,0,0-2.18-2.18Z"/><rect class="petrol-cls-4" x="53.29" y="19.26" width="30.63" height="10.82" rx="3.68" ry="3.68" transform="translate(43.93 93.28) rotate(-90)"/><path class="petrol-cls-4" d="M70.34,41.48H66.87a5.18,5.18,0,0,1-5.18-5.18V13a5.18,5.18,0,0,1,5.18-5.18h3.46A5.18,5.18,0,0,1,75.51,13V36.31A5.18,5.18,0,0,1,70.34,41.48ZM66.87,10.86A2.18,2.18,0,0,0,64.69,13V36.31a2.18,2.18,0,0,0,2.18,2.18h3.46a2.18,2.18,0,0,0,2.18-2.18V13a2.18,2.18,0,0,0-2.18-2.18Z"/><rect class="petrol-cls-1" x="3.84" y="2" width="91.44" height="10.82" rx="2.02" ry="2.02"/><path class="petrol-cls-2" d="M93.25,14.82H5.86a4,4,0,0,1-4-4V4a4,4,0,0,1,4-4H93.25a4,4,0,0,1,4,4V10.8A4,4,0,0,1,93.25,14.82ZM5.86,4l0,6.8,87.42,0a0,0,0,0,0,0,0V4Z"/></g></g></svg>
