<svg width="115" height="100" viewBox="0 0 115 100" fill="none" xmlns="http://www.w3.org/2000/svg">
    <g clip-path="url(#clip0)">
        <path d="M54.8626 1.43077C54.8626 1.43077 48.468 -0.128253 47.431 2.9898C46.394 6.10784 47.431 9.05267 47.431 10.4385C47.431 11.8243 48.1223 11.9143 44.1473 13.8614C40.1722 15.8084 37.407 16.3281 37.407 17.3675C37.3815 17.8173 37.5026 18.2633 37.7519 18.6382C38.0013 19.0131 38.3655 19.2967 38.7896 19.4462C39.6537 19.7926 38.4439 22.2178 35.1602 20.832C31.8764 19.4462 32.0493 17.3675 30.8395 19.2729C29.6297 21.1784 29.4569 19.0997 28.9384 16.8478C28.4199 14.5959 28.4199 13.903 25.6546 14.7691C22.8894 15.6352 21.5067 11.9975 22.8894 15.6352C24.272 19.2729 21.8524 18.9265 23.7604 22.2178C25.6685 25.509 28.254 28.2806 24.6177 27.761C20.9813 27.2413 19.9513 30.8305 18.3958 27.8233C16.8404 24.8161 17.7045 24.1232 14.4208 24.4697C11.137 24.8161 8.02613 25.1626 4.7424 25.6823C1.45866 26.2019 -0.0967985 27.3729 1.97714 29.0394C4.05108 30.7058 8.37179 30.5326 5.60654 31.3987C2.84128 32.2648 2.66846 33.9971 4.56957 35.0364C6.47068 36.0758 7.68048 36.4222 11.4827 37.808C15.2849 39.1938 12.174 39.5403 16.6676 41.7922C21.1611 44.0441 17.7045 43.0047 21.1611 48.7212C24.6177 54.4376 27.0373 52.7053 27.2101 56.5163C27.3829 60.3272 26.8644 61.0201 28.7655 62.4059C30.6666 63.7917 31.7036 66.9098 31.7036 66.9098C31.7036 66.9098 28.6895 62.2327 27.9498 63.6185C27.2101 65.0043 23.7535 71.2404 25.4818 71.4136C27.2101 71.5869 26.1731 71.5869 25.309 76.2639C24.4448 80.941 18.0502 84.752 20.8154 86.311C23.5807 87.87 22.3709 89.2558 25.4818 89.9487C28.5927 90.6416 27.9014 93.7597 33.0862 93.4132C38.2711 93.0667 38.9624 91.1613 42.7646 92.3738C46.5669 93.5864 55.0354 97.3974 54.8626 97.3974C54.6898 97.3974 56.7637 100.169 59.8746 97.3974C62.9856 94.6258 57.1094 91.8542 59.8746 89.429C62.6399 87.0039 59.8746 84.9252 65.578 85.2716C71.2813 85.6181 74.5651 86.8307 75.2564 86.1378C75.9477 85.4449 81.8238 90.8148 85.7989 89.6022C89.7739 88.3897 87.0087 87.5236 89.9468 84.9252C92.8849 82.3268 94.9588 80.941 95.8229 78.1694C96.6871 75.3978 95.3045 73.3191 93.0577 74.1852C90.8109 75.0514 87.3544 75.7443 89.0826 72.7994C90.8109 69.8546 92.1936 69.8546 90.2924 68.4688C88.3913 67.083 89.4283 67.7759 89.9468 64.4846C90.4653 61.1934 89.2555 61.713 89.2555 58.2485C89.2555 54.784 89.4283 54.2644 87.7 52.0124C85.9717 49.7605 87.7 46.9647 84.5891 49.8367C81.4782 52.7088 84.4163 48.3747 86.1446 46.296C87.8728 44.2173 86.1446 40.2332 88.737 40.2332C91.3294 40.2332 92.712 41.9654 92.712 38.1545C92.712 34.3435 90.4653 31.7451 93.5762 27.5877C96.6871 23.4303 99.4523 22.391 94.2675 21.6981C89.0826 21.0052 86.4902 21.1784 84.4163 18.9265C82.3423 16.6746 81.8238 16.5013 78.1945 17.021C74.5651 17.5407 70.9357 16.245 71.2813 13.8614C71.627 11.4778 69.8987 11.3046 66.0965 9.22589C62.2942 7.14719 61.0844 8.53299 59.7018 5.24172C58.3192 1.95045 54.8626 1.43077 54.8626 1.43077Z" fill="white" stroke="#2977FF" stroke-width="4" stroke-miterlimit="10"/>
        <path d="M70.7998 51.5613L68.1618 55.849C67.6418 56.6943 67.9039 57.8021 68.7472 58.3233L108.587 82.9467C109.43 83.468 110.535 83.2053 111.055 82.36L113.693 78.0723C114.213 77.2271 113.951 76.1193 113.108 75.5981L73.2684 50.9746C72.425 50.4534 71.3198 50.7161 70.7998 51.5613Z" fill="white" stroke="#65C8D0" stroke-width="4" stroke-miterlimit="10"/>
        <path d="M81.73 61.2742C86.742 53.1278 84.2161 42.4515 76.0883 37.428C67.9605 32.4045 57.3087 34.9362 52.2967 43.0826C47.2847 51.229 49.8105 61.9053 57.9383 66.9288C66.0661 71.9523 76.718 69.4207 81.73 61.2742Z" fill="white" stroke="#65C8D0" stroke-width="4" stroke-miterlimit="10"/>
        <path d="M77.0607 58.3884C80.4825 52.8266 78.758 45.5376 73.209 42.1079C67.6599 38.6782 60.3876 40.4067 56.9658 45.9684C53.5439 51.5302 55.2684 58.8192 60.8175 62.2489C66.3665 65.6786 73.6388 63.9501 77.0607 58.3884Z" fill="white" stroke="#65C8D0" stroke-width="4" stroke-miterlimit="10"/>
    </g>
    <defs>
        <clipPath id="clip0">
            <rect width="115" height="99.6667" fill="white"/>
        </clipPath>
    </defs>
</svg>
