<?xml version="1.0" encoding="UTF-8" standalone="no"?>
<svg
   xmlns:dc="http://purl.org/dc/elements/1.1/"
   xmlns:cc="http://creativecommons.org/ns#"
   xmlns:rdf="http://www.w3.org/1999/02/22-rdf-syntax-ns#"
   xmlns:svg="http://www.w3.org/2000/svg"
   xmlns="http://www.w3.org/2000/svg"
   xmlns:sodipodi="http://sodipodi.sourceforge.net/DTD/sodipodi-0.dtd"
   xmlns:inkscape="http://www.inkscape.org/namespaces/inkscape"
   viewBox="0 0 231 40"
   stroke-miterlimit="1.414"
   version="1.1"
   id="svg8"
   sodipodi:docname="betagouvfr.svg"
   inkscape:version="0.92.3 (unknown)"
   width="231"
   height="40"
   style="clip-rule:evenodd;fill-rule:evenodd;stroke-linejoin:round;stroke-miterlimit:1.41400003">
  <metadata
     id="metadata14">
    <rdf:RDF>
      <cc:Work
         rdf:about="">
        <dc:format>image/svg+xml</dc:format>
        <dc:type
           rdf:resource="http://purl.org/dc/dcmitype/StillImage" />
        <dc:title></dc:title>
      </cc:Work>
    </rdf:RDF>
  </metadata>
  <defs
     id="defs12" />
  <sodipodi:namedview
     pagecolor="#ffffff"
     bordercolor="#666666"
     borderopacity="1"
     objecttolerance="10"
     gridtolerance="10"
     guidetolerance="10"
     inkscape:pageopacity="0"
     inkscape:pageshadow="2"
     inkscape:window-width="1535"
     inkscape:window-height="876"
     id="namedview10"
     showgrid="false"
     showguides="true"
     inkscape:guide-bbox="true"
     inkscape:zoom="1.3080357"
     inkscape:cx="22.009793"
     inkscape:cy="7.1535049"
     inkscape:window-x="65"
     inkscape:window-y="24"
     inkscape:window-maximized="1"
     inkscape:current-layer="g6" />
  <g
     id="g6"
     transform="translate(62.307167,-0.38225256)"
     style="fill:#373c42;fill-rule:nonzero">
    <g
       id="g18"
       transform="translate(47.62176,0.54058675)">
      <path
         inkscape:connector-curvature="0"
         id="path2"
         d="M 0,25.052 V 12.784 H 2.343 V 16.7 c 0.46,-0.427 0.92,-0.731 1.383,-0.912 0.462,-0.181 1.012,-0.272 1.649,-0.272 0.931,0 1.772,0.211 2.524,0.633 a 4.562,4.562 0 0 1 1.766,1.747 c 0.425,0.743 0.638,1.574 0.638,2.493 0,1.249 -0.382,2.338 -1.146,3.268 -0.896,1.076 -2.102,1.614 -3.618,1.614 -0.724,0 -1.344,-0.106 -1.861,-0.316 C 3.161,24.744 2.65,24.384 2.145,23.876 v 1.176 z m 5.005,-7.509 c -0.816,0 -1.486,0.271 -2.012,0.811 -0.525,0.541 -0.788,1.23 -0.788,2.068 0,0.827 0.27,1.504 0.81,2.031 0.54,0.527 1.232,0.791 2.076,0.791 0.839,0 1.522,-0.261 2.05,-0.783 C 7.67,21.94 7.934,21.26 7.934,20.422 7.934,19.573 7.662,18.881 7.12,18.346 6.577,17.811 5.872,17.543 5.005,17.543 Z m 17.267,3.892 H 14.7 c 0.143,0.557 0.456,0.998 0.939,1.322 0.482,0.324 1.071,0.487 1.765,0.487 0.483,0 0.885,-0.069 1.206,-0.207 0.322,-0.138 0.635,-0.374 0.939,-0.71 h 2.559 c -0.138,0.417 -0.396,0.844 -0.775,1.282 -1.011,1.108 -2.303,1.662 -3.877,1.662 a 5.84,5.84 0 0 1 -2.085,-0.373 5.255,5.255 0 0 1 -1.684,-1.01 4.71,4.71 0 0 1 -1.115,-1.524 4.39,4.39 0 0 1 -0.414,-1.877 c 0,-0.887 0.229,-1.702 0.685,-2.445 a 4.908,4.908 0 0 1 1.869,-1.76 5.356,5.356 0 0 1 2.598,-0.644 c 0.959,0 1.823,0.212 2.593,0.636 a 4.612,4.612 0 0 1 1.804,1.768 c 0.434,0.754 0.651,1.601 0.651,2.542 0,0.303 -0.029,0.587 -0.086,0.851 z m -7.641,-1.946 h 5.418 C 19.9,18.9 19.593,18.449 19.127,18.135 c -0.465,-0.313 -1.059,-0.47 -1.783,-0.47 -0.7,0 -1.282,0.155 -1.744,0.466 -0.463,0.311 -0.786,0.764 -0.969,1.358 z m 10.323,5.563 V 17.86 h -1.146 v -2.011 h 1.146 v -3.065 h 2.343 v 3.065 h 1.413 v 2.011 h -1.413 v 7.192 z m 15.604,-9.203 v 9.203 H 38.413 V 23.86 c -0.471,0.503 -0.957,0.863 -1.46,1.082 -0.502,0.219 -1.098,0.329 -1.787,0.329 -0.942,0 -1.788,-0.204 -2.537,-0.612 a 4.448,4.448 0 0 1 -1.758,-1.707 c -0.422,-0.73 -0.633,-1.552 -0.633,-2.465 0,-0.925 0.213,-1.756 0.638,-2.494 a 4.516,4.516 0 0 1 1.774,-1.731 c 0.758,-0.416 1.614,-0.624 2.567,-0.624 0.707,0 1.315,0.115 1.827,0.344 0.511,0.23 0.967,0.596 1.369,1.099 v -1.232 z m -5.134,1.816 c -0.815,0 -1.489,0.27 -2.02,0.811 -0.531,0.54 -0.797,1.227 -0.797,2.059 0,0.806 0.269,1.459 0.806,1.959 0.537,0.5 1.233,0.75 2.089,0.75 0.85,0 1.534,-0.254 2.054,-0.763 0.52,-0.508 0.78,-1.173 0.78,-1.994 0,-0.833 -0.272,-1.511 -0.814,-2.035 -0.543,-0.525 -1.242,-0.787 -2.098,-0.787 z m 9.178,5.726 a 0.958,0.958 0 0 0 -0.971,0.947 c 0,0.481 0.442,0.897 0.953,0.897 0.547,0 1.006,-0.399 1.006,-0.897 0,-0.515 -0.459,-0.947 -0.988,-0.947 z m 11.59,-7.542 h 2.239 v 7.46 c 0,0.913 -0.084,1.671 -0.254,2.274 a 3.857,3.857 0 0 1 -0.822,1.545 c -0.931,1.065 -2.26,1.597 -3.989,1.597 -1.194,0 -2.231,-0.257 -3.11,-0.77 a 4.496,4.496 0 0 1 -1.912,-2.157 h 2.662 c 0.344,0.357 0.703,0.609 1.077,0.758 0.373,0.149 0.832,0.223 1.378,0.223 0.873,0 1.536,-0.243 1.99,-0.73 0.453,-0.486 0.7,-1.224 0.741,-2.213 -0.46,0.508 -0.938,0.874 -1.435,1.098 -0.496,0.225 -1.089,0.337 -1.779,0.337 -0.918,0 -1.744,-0.208 -2.476,-0.625 a 4.394,4.394 0 0 1 -1.71,-1.739 c -0.408,-0.743 -0.612,-1.582 -0.612,-2.518 0,-1.362 0.457,-2.494 1.37,-3.397 0.913,-0.903 2.062,-1.354 3.446,-1.354 1.401,0 2.466,0.459 3.196,1.378 z m -2.964,1.816 c -0.804,0 -1.451,0.258 -1.942,0.774 -0.491,0.517 -0.737,1.199 -0.737,2.048 0,0.838 0.249,1.507 0.745,2.007 0.497,0.5 1.165,0.75 2.003,0.75 0.85,0 1.528,-0.253 2.033,-0.759 0.506,-0.505 0.758,-1.182 0.758,-2.031 0,-0.832 -0.263,-1.505 -0.788,-2.019 -0.525,-0.513 -1.216,-0.77 -2.072,-0.77 z m 12.77,-2.027 c 0.931,0 1.792,0.216 2.584,0.649 a 4.942,4.942 0 0 1 1.878,1.763 c 0.46,0.743 0.69,1.55 0.69,2.421 0,0.864 -0.232,1.666 -0.694,2.404 a 4.951,4.951 0 0 1 -1.891,1.751 5.397,5.397 0 0 1 -2.601,0.645 5.443,5.443 0 0 1 -2.615,-0.645 4.981,4.981 0 0 1 -1.899,-1.751 4.427,4.427 0 0 1 -0.698,-2.404 c 0,-0.66 0.136,-1.288 0.409,-1.886 a 4.735,4.735 0 0 1 1.111,-1.54 5.317,5.317 0 0 1 1.676,-1.026 5.573,5.573 0 0 1 2.05,-0.381 z m -0.095,2.027 c -0.758,0 -1.411,0.274 -1.959,0.823 -0.549,0.549 -0.823,1.204 -0.823,1.966 0,0.768 0.276,1.425 0.827,1.971 a 2.726,2.726 0 0 0 1.99,0.819 c 0.781,0 1.45,-0.272 2.007,-0.815 0.557,-0.544 0.836,-1.196 0.836,-1.958 0,-0.79 -0.279,-1.455 -0.836,-1.995 -0.557,-0.541 -1.238,-0.811 -2.042,-0.811 z m 16.225,-1.816 v 9.203 h -2.171 v -0.884 c -0.448,0.405 -0.88,0.691 -1.297,0.855 -0.416,0.165 -0.917,0.248 -1.503,0.248 -0.66,0 -1.252,-0.126 -1.774,-0.377 a 3.201,3.201 0 0 1 -1.267,-1.075 3.651,3.651 0 0 1 -0.534,-1.232 c -0.103,-0.449 -0.155,-1.049 -0.155,-1.8 v -4.938 h 2.352 v 4.5 c 0,0.638 0.037,1.136 0.112,1.496 0.075,0.359 0.201,0.642 0.379,0.847 0.339,0.368 0.792,0.552 1.361,0.552 0.408,0 0.771,-0.077 1.09,-0.231 0.318,-0.155 0.561,-0.372 0.728,-0.653 0.126,-0.206 0.214,-0.472 0.262,-0.799 0.049,-0.327 0.074,-0.785 0.074,-1.374 v -4.338 z m 5.818,9.203 -3.937,-9.203 h 2.61 l 2.257,6.097 2.223,-6.097 h 2.653 l -3.937,9.203 z m 7.042,-1.66 c -0.498,0 -0.913,0.415 -0.913,0.946 0,0.481 0.415,0.896 0.896,0.896 0.515,0 0.946,-0.398 0.946,-0.896 0,-0.515 -0.431,-0.946 -0.929,-0.946 z" />
      <path
         inkscape:connector-curvature="0"
         id="path4"
         d="m 98.103,16.537 h 1.927 l -1.949,9.023 c -0.508,2.33 -1.207,3.495 -2.118,3.495 -0.254,0 -0.423,-0.148 -0.423,-0.36 0,-0.063 0.021,-0.106 0.084,-0.212 a 0.63,0.63 0 0 0 0.106,-0.36 0.832,0.832 0 0 0 -0.847,-0.826 c -0.445,0 -0.784,0.403 -0.784,0.911 0,0.72 0.742,1.292 1.674,1.292 1.927,0 3.431,-2.118 4.363,-6.079 l 1.589,-6.884 h 2.351 l 0.127,-0.678 h -2.309 c 0.635,-3.389 1.462,-4.893 2.648,-4.893 0.296,0 0.466,0.106 0.466,0.275 0,0.043 -0.021,0.106 -0.085,0.212 a 0.72,0.72 0 0 0 -0.127,0.445 c 0,0.508 0.318,0.847 0.784,0.847 0.487,0 0.91,-0.402 0.91,-0.868 0,-0.784 -0.783,-1.377 -1.842,-1.377 -1.038,0 -1.886,0.466 -2.669,1.462 -0.636,0.847 -1.081,1.821 -1.737,3.897 h -1.991 z m 7.477,8.515 c 1.165,-3.707 1.525,-4.575 2.499,-6.206 0.741,-1.208 1.335,-1.864 1.695,-1.864 0.148,0 0.254,0.084 0.36,0.296 0.169,0.36 0.339,0.466 0.762,0.466 0.636,0 0.996,-0.381 0.996,-1.059 0,-0.678 -0.403,-1.101 -0.996,-1.101 -0.487,0 -1.08,0.317 -1.631,0.91 -0.889,0.89 -1.779,2.182 -2.118,3.008 l -0.318,0.784 1.187,-4.66 -0.064,-0.042 c -1.546,0.275 -1.779,0.317 -3.326,0.572 v 0.36 c 0.466,-0.085 0.551,-0.106 0.721,-0.106 0.466,0 0.741,0.212 0.741,0.593 0,0.275 -0.169,1.144 -0.339,1.779 l -1.8,6.27 z" />
      <text
         id="text18"
         y="25.044369"
         x="-99.726959"
         style="font-style:normal;font-weight:normal;font-size:40px;line-height:1.25;font-family:sans-serif;letter-spacing:0px;word-spacing:0px;fill:#000000;fill-opacity:1;stroke:none"
         xml:space="preserve"><tspan
           style="font-style:normal;font-variant:normal;font-weight:normal;font-stretch:normal;font-size:16px;font-family:Evolventa;-inkscape-font-specification:Evolventa;fill:#333333"
           y="25.044369"
           x="-99.726959"
           id="tspan16"
           sodipodi:role="line">covoiturage. </tspan></text>
    </g>
  </g>
</svg>
