<svg xmlns="http://www.w3.org/2000/svg" viewBox="0 0 448.59 370.06"><defs><style>.cls-1,.cls-6{fill:#65c8d0;}.cls-1{opacity:0.75;}.cls-2,.cls-5{fill:none;}.cls-2{stroke:#2977ff;stroke-miterlimit:10;stroke-width:2px;}.cls-3{fill:#fff;}.cls-4{fill:#2977ff;}</style></defs><title>Logo</title><g id="Calque_2" data-name="Calque 2"><g id="Calque_1-2" data-name="Calque 1"><circle class="cls-1" cx="208.69" cy="185.03" r="185.03"/><line class="cls-2" x1="68.45" y1="302.76" x2="144.45" y2="222.5"/><line class="cls-2" x1="354.8" y1="296.16" x2="278.81" y2="215.89"/><path class="cls-2" d="M8.08,201.74s52.38-24.5,88.49-24.5,32.42-5.54,47.88-8.77S162,165.28,162,165.28"/><path class="cls-2" d="M254.51,161.08s62.3-2.67,70.61,3.28,60.45,12.91,79.38,10.35a118.35,118.35,0,0,0,34.15-10.35"/><path class="cls-3" d="M66.94,167.56c-7.64,0-13.86,6.52-13.86,14.54a9.19,9.19,0,0,0,.11,1.22l.06.49a1,1,0,0,1-.66,1,11.07,11.07,0,0,0-7.79,10.68,11.46,11.46,0,0,0,1.84,6.26,1,1,0,0,1-.17,1.28c-4,3.45-6,7.58-6,11.94,0,10.65,12.58,19.32,28,19.32s28-8.67,28-19.32c0-5.1-2.88-9.91-8.11-13.56a1,1,0,0,1-.32-1.21,11.46,11.46,0,0,0,1-4.71,11.08,11.08,0,0,0-7.79-10.68,1,1,0,0,1-.66-1l.06-.49a9.19,9.19,0,0,0,.11-1.22C80.8,174.09,74.58,167.56,66.94,167.56Z"/><path class="cls-4" d="M68.45,236.25c-16.47,0-29.87-9.53-29.87-21.24,0-4.65,2.16-9.19,6.1-12.87A13.47,13.47,0,0,1,43,195.54a13,13,0,0,1,8.37-12.28,9.71,9.71,0,0,1-.08-1.15c0-9.08,7-16.46,15.7-16.46s15.7,7.38,15.7,16.46a9.71,9.71,0,0,1-.08,1.15,13,13,0,0,1,8.37,12.28A13.34,13.34,0,0,1,90,200.3c5.35,4,8.29,9.16,8.29,14.71C98.33,226.73,84.92,236.25,68.45,236.25Zm-1.51-68.69c-7.64,0-13.86,6.52-13.86,14.54a9.19,9.19,0,0,0,.11,1.22l.06.49a1,1,0,0,1-.66,1,11.07,11.07,0,0,0-7.79,10.68,11.46,11.46,0,0,0,1.84,6.26,1,1,0,0,1-.17,1.28c-4,3.45-6,7.58-6,11.94,0,10.65,12.58,19.32,28,19.32s28-8.67,28-19.32c0-5.1-2.88-9.91-8.11-13.56a1,1,0,0,1-.32-1.21,11.46,11.46,0,0,0,1-4.71,11.08,11.08,0,0,0-7.79-10.68,1,1,0,0,1-.66-1l.06-.49a9.19,9.19,0,0,0,.11-1.22C80.8,174.09,74.58,167.56,66.94,167.56Z"/><path class="cls-4" d="M67.49,256a1,1,0,0,1-1-1V193.27a1,1,0,0,1,1.92,0V255A1,1,0,0,1,67.49,256Z"/><path class="cls-4" d="M67.49,216.35a1,1,0,0,1-.67-.27l-9.32-9.12a1,1,0,1,1,1.34-1.37l9.32,9.12a1,1,0,0,1-.67,1.65Z"/><path class="cls-4" d="M67.49,200.95a1,1,0,0,1-.67-1.65l9.32-9.12a1,1,0,0,1,1.34,1.37l-9.32,9.12A1,1,0,0,1,67.49,200.95Z"/><path class="cls-3" d="M334.69,166.58a12.86,12.86,0,0,0-12.85,12.85,7.75,7.75,0,0,0,.1,1.08l.06.43a.85.85,0,0,1-.62.92,9.79,9.79,0,0,0-5.52,15,.85.85,0,0,1-.16,1.13c-3.66,3-5.6,6.7-5.6,10.55,0,9.41,11.66,17.07,26,17.07s26-7.66,26-17.07c0-4.5-2.67-8.76-7.51-12a.85.85,0,0,1-.3-1.07,9.73,9.73,0,0,0,1-4.16,9.85,9.85,0,0,0-7.22-9.44.85.85,0,0,1-.62-.92l.06-.43a7.75,7.75,0,0,0,.1-1.08A12.86,12.86,0,0,0,334.69,166.58Z"/><path class="cls-4" d="M336.09,227.27c-15.26,0-27.68-8.42-27.68-18.77,0-4.1,2-8.12,5.65-11.37a11.49,11.49,0,0,1,6.17-16.69,8.19,8.19,0,0,1-.08-1,14.54,14.54,0,1,1,29.09,0,8.19,8.19,0,0,1-.08,1,11.55,11.55,0,0,1,7.76,10.85,11.3,11.3,0,0,1-.82,4.21c5,3.5,7.68,8.1,7.68,13C363.77,218.85,351.35,227.27,336.09,227.27Zm-1.4-60.69a12.86,12.86,0,0,0-12.85,12.85,7.75,7.75,0,0,0,.1,1.08l.06.43a.85.85,0,0,1-.62.92,9.79,9.79,0,0,0-5.52,15,.85.85,0,0,1-.16,1.13c-3.66,3-5.6,6.7-5.6,10.55,0,9.41,11.66,17.07,26,17.07s26-7.66,26-17.07c0-4.5-2.67-8.76-7.51-12a.85.85,0,0,1-.3-1.07,9.73,9.73,0,0,0,1-4.16,9.85,9.85,0,0,0-7.22-9.44.85.85,0,0,1-.62-.92l.06-.43a7.75,7.75,0,0,0,.1-1.08A12.86,12.86,0,0,0,334.69,166.58Z"/><path class="cls-4" d="M336.09,244.69a.85.85,0,0,1-.85-.85V189.3a.85.85,0,0,1,1.7,0v54.55A.85.85,0,0,1,336.09,244.69Z"/><path class="cls-4" d="M336.09,204.07a.85.85,0,0,1-.59-.24l-8.23-8.06a.85.85,0,1,1,1.19-1.21l8.23,8.06a.85.85,0,0,1-.59,1.46Z"/><path class="cls-4" d="M336.09,219.44a.85.85,0,0,1-.59-1.46l8.23-8.06a.85.85,0,1,1,1.19,1.21l-8.23,8.06A.85.85,0,0,1,336.09,219.44Z"/><path class="cls-3" d="M376.46,194.77c-9.77,0-17.72,8.34-17.72,18.59a11.75,11.75,0,0,0,.14,1.56l.08.62a1.22,1.22,0,0,1-.85,1.33,14.16,14.16,0,0,0-10,13.66,14.65,14.65,0,0,0,2.35,8,1.27,1.27,0,0,1-.22,1.64c-5.06,4.41-7.73,9.69-7.73,15.27,0,13.62,16.08,24.7,35.85,24.7s35.85-11.08,35.85-24.7c0-6.52-3.68-12.67-10.37-17.34a1.26,1.26,0,0,1-.41-1.54,14.65,14.65,0,0,0,1.32-6,14.16,14.16,0,0,0-10-13.66,1.22,1.22,0,0,1-.85-1.33l.08-.62a11.75,11.75,0,0,0,.14-1.56C394.18,203.11,386.23,194.77,376.46,194.77Z"/><path class="cls-4" d="M378.4,282.59c-21.06,0-38.19-12.18-38.19-27.16,0-5.94,2.76-11.74,7.79-16.45a17.22,17.22,0,0,1-2.19-8.45,16.67,16.67,0,0,1,10.7-15.7,12.42,12.42,0,0,1-.11-1.47c0-11.6,9-21,20.07-21s20.07,9.44,20.07,21a12.42,12.42,0,0,1-.11,1.47,16.67,16.67,0,0,1,10.7,15.7,17.05,17.05,0,0,1-1.14,6.09c6.85,5.07,10.6,11.71,10.6,18.8C416.59,270.4,399.45,282.59,378.4,282.59Zm-1.93-87.82c-9.77,0-17.72,8.34-17.72,18.59a11.75,11.75,0,0,0,.14,1.56l.08.62a1.22,1.22,0,0,1-.85,1.33,14.16,14.16,0,0,0-10,13.66,14.65,14.65,0,0,0,2.35,8,1.27,1.27,0,0,1-.22,1.64c-5.06,4.41-7.73,9.69-7.73,15.27,0,13.62,16.08,24.7,35.85,24.7s35.85-11.08,35.85-24.7c0-6.52-3.68-12.67-10.37-17.34a1.26,1.26,0,0,1-.41-1.54,14.65,14.65,0,0,0,1.32-6,14.16,14.16,0,0,0-10-13.66,1.22,1.22,0,0,1-.85-1.33l.08-.62a11.75,11.75,0,0,0,.14-1.56C394.18,203.11,386.23,194.77,376.46,194.77Z"/><path class="cls-4" d="M377.17,307.79a1.23,1.23,0,0,1-1.23-1.23V227.64a1.23,1.23,0,0,1,2.46,0v78.93A1.23,1.23,0,0,1,377.17,307.79Z"/><path class="cls-4" d="M377.17,257.13a1.23,1.23,0,0,1-.86-.35L364.4,245.12a1.23,1.23,0,1,1,1.72-1.76L378,255a1.23,1.23,0,0,1-.86,2.11Z"/><path class="cls-4" d="M377.17,237.45a1.23,1.23,0,0,1-.86-2.11l11.91-11.66a1.23,1.23,0,1,1,1.72,1.76L378,237.1A1.23,1.23,0,0,1,377.17,237.45Z"/><rect class="cls-5" y="59.79" width="448.59" height="272.74"/><path d="M81.55,296.12"/><path class="cls-4" d="M79.72,145.27H39.18c-7.94,0-14.72-5.1-15.43-11.61s4.47-12.45,12-13.77c2.31-7.47,10.39-12.8,19.59-12.8,8.21,0,15.51,4.16,18.66,10.49a19.22,19.22,0,0,1,6.86-.84c8.49.47,15.4,6.48,15.73,13.67a13,13,0,0,1-4.69,10.47A18.28,18.28,0,0,1,79.72,145.27ZM55.3,109.66c-8.12,0-15.21,4.88-16.86,11.61l-.22.89-1.06.12c-6.43.75-11,5.64-10.39,11.14.57,5.2,6,9.28,12.41,9.28H79.72a15,15,0,0,0,10-3.59,10.69,10.69,0,0,0,3.84-8.59c-.28-5.9-5.94-10.82-12.9-11.2a15.74,15.74,0,0,0-6.87,1.14l-1.56.63-.54-1.39C69.32,113.69,62.75,109.66,55.3,109.66Z"/><path class="cls-3" d="M55.3,109.66c-8.12,0-15.21,4.88-16.86,11.61l-.22.89-1.06.12c-6.43.75-11,5.64-10.39,11.14.57,5.2,6,9.28,12.41,9.28H79.72a15,15,0,0,0,10-3.59,10.69,10.69,0,0,0,3.84-8.59c-.28-5.9-5.94-10.82-12.9-11.2a15.74,15.74,0,0,0-6.87,1.14l-1.56.63-.54-1.39C69.32,113.69,62.75,109.66,55.3,109.66Z"/><path class="cls-4" d="M285.9,125.78c5.76,0,9.94,3.94,10.24,8.24,3.49,1,6,3.75,6,7,0,4.1-4,7.44-8.82,7.44H271c-5.13,0-8.82-3-8.82-6.65a7,7,0,0,1,5.66-6.49,6.11,6.11,0,0,1,3.38-4.94,8.13,8.13,0,0,1,5.92-.46,10.6,10.6,0,0,1,8.72-4.15Zm0,1.57a8.58,8.58,0,0,0-7.53,3.86,1,1,0,0,1-1.24.36h0a6,6,0,0,0-4.9.16,4.51,4.51,0,0,0-2.57,4.23.83.83,0,0,1-.77.77,5.47,5.47,0,0,0-4.8,5.1c0,2.83,2.65,5.09,7,5.09h22.29c3.86,0,7-2.62,7-5.87,0-2.75-2.24-5-5.25-5.69a.82.82,0,0,1-.7-.77c0-3.67-3.48-7.24-8.44-7.24Z"/><path class="cls-3" d="M285.9,127.35a8.58,8.58,0,0,0-7.53,3.86,1,1,0,0,1-1.24.36h0a6,6,0,0,0-4.9.16,4.51,4.51,0,0,0-2.57,4.23.83.83,0,0,1-.77.77,5.47,5.47,0,0,0-4.8,5.1c0,2.83,2.65,5.09,7,5.09h22.29c3.86,0,7-2.62,7-5.87,0-2.75-2.24-5-5.25-5.69a.82.82,0,0,1-.7-.77c0-3.67-3.48-7.24-8.44-7.24Z"/><path class="cls-3" d="M172.18,232.35h76.43v14.33a4.06,4.06,0,0,0,4,4h19.26a3.87,3.87,0,0,0,3.82-4c0-7.57,0-15.14.09-22.74s.09-15.06.09-22.65L270,187.24l2.53-.06c5-.12,8.07-1.53,8.92-4.07a5.16,5.16,0,0,0-.57-4.31H266.11L256.46,157c-5.06-7-8.67-9.31-14.78-9.31h-62.4c-6.11,0-9.72,2.27-14.78,9.31l-9.64,21.8H140a5,5,0,0,0-.62,4.24c.81,2.54,4,4,8.85,4.14l2.53.06-5.84,14c.18,15.26.18,30.58.18,45.4a4.06,4.06,0,0,0,4,4h19.26a3.87,3.87,0,0,0,3.82-4Z"/><path class="cls-6" d="M187.49,159.91a5.17,5.17,0,1,0,5.17,5.17A5.11,5.11,0,0,0,187.49,159.91Zm0,13.81a8.64,8.64,0,1,1,0-17.29,8.55,8.55,0,0,1,8.64,8.64A8.65,8.65,0,0,1,187.49,173.72Z"/><path class="cls-6" d="M178.24,184.47l-3.38-.8.58-2.42a10.68,10.68,0,0,1,5.34-7.8,15.09,15.09,0,0,1,3.72-1.33,23.77,23.77,0,0,1,3.1-.26,12.77,12.77,0,0,1,3.19.28,12.25,12.25,0,0,1,3.64,1.32,10.75,10.75,0,0,1,5.36,7.89l.46,2.4-3.41.65-.46-2.42a7.32,7.32,0,0,0-3.62-5.48,9,9,0,0,0-2.72-1,13.49,13.49,0,0,0-5,0,11.78,11.78,0,0,0-2.66,1,7.29,7.29,0,0,0-3.56,5.43Z"/><path class="cls-6" d="M222.09,184l-3.38-.8.58-2.42a10.68,10.68,0,0,1,5.34-7.8,15.09,15.09,0,0,1,3.72-1.33,23.83,23.83,0,0,1,3.1-.26,12.76,12.76,0,0,1,3.18.28,12.25,12.25,0,0,1,3.64,1.32,10.75,10.75,0,0,1,5.36,7.89l.46,2.4-3.41.65-.46-2.42A7.32,7.32,0,0,0,236.6,176a9,9,0,0,0-2.72-1,13.48,13.48,0,0,0-5,0,11.76,11.76,0,0,0-2.66,1,7.29,7.29,0,0,0-3.56,5.43Z"/><path class="cls-6" d="M231.34,173.21a8.64,8.64,0,0,1,0-17.29,8.55,8.55,0,0,1,8.64,8.64A8.65,8.65,0,0,1,231.34,173.21Zm0-13.81a5.17,5.17,0,1,0,5.17,5.17A5.11,5.11,0,0,0,231.34,159.4Z"/><path class="cls-4" d="M271.91,254.16H252.65a7.49,7.49,0,0,1-7.48-7.48V235.83H175.7v10.86a7.31,7.31,0,0,1-7.29,7.48H149.15a7.49,7.49,0,0,1-7.48-7.48c0-14.93,0-30.36-.18-45.72v-.36l4.21-10.14c-9.29-1.12-10-7.06-10-9,0-2.92,1.68-6.18,4-6.18h12.94l9-20.2c5.83-8.16,10.3-10.91,17.71-10.91h62.4c7.41,0,11.88,2.75,17.71,10.91l.17.31,8.8,19.89h12.94c2.25,0,3.85,3.25,3.89,6.17,0,1.92-.68,7.86-10.06,9l4.21,10.13v.35c0,7.71,0,15.38-.09,23s-.09,15.15-.09,22.72A7.31,7.31,0,0,1,271.91,254.16Zm-99.69-21.81h76.43v14.33a4.06,4.06,0,0,0,4,4h19.26a3.87,3.87,0,0,0,3.82-4c0-7.57,0-15.14.09-22.74s.09-15.06.09-22.65l-5.84-14.06,2.53-.06c5-.12,8.07-1.53,8.92-4.07a5.16,5.16,0,0,0-.57-4.31H266.15L256.51,157c-5.06-7-8.67-9.31-14.78-9.31h-62.4c-6.11,0-9.72,2.27-14.78,9.31l-9.64,21.8H140a5,5,0,0,0-.62,4.24c.81,2.54,4,4,8.85,4.14l2.53.06-5.84,14c.18,15.26.18,30.58.18,45.4a4.06,4.06,0,0,0,4,4H168.4a3.87,3.87,0,0,0,3.82-4Z"/><path class="cls-4" d="M262.21,185.28H158.85l1.12-2.46c.92-2,1.82-4,2.74-6.11,2-4.6,4.16-9.36,6.73-14.49,2.13-3.68,4.76-7.54,9.73-8h62.56c5.13.46,7.76,4.32,9.84,7.9,2.62,5.24,4.75,10,6.8,14.63.91,2.05,1.81,4.07,2.72,6.07Zm-98-3.47h92.56l-1.63-3.65c-2-4.58-4.14-9.31-6.68-14.39-2.09-3.61-3.92-5.81-6.94-6.08H179.33c-2.85.27-4.68,2.47-6.83,6.17-2.48,5-4.58,9.69-6.61,14.26Z"/><path class="cls-4" d="M230.06,220.64H190.81a6.09,6.09,0,0,1,0-12.18h39.26a6.09,6.09,0,0,1,0,12.18Zm-39.26-8.7a2.76,2.76,0,0,0-2.52,2.71,2.69,2.69,0,0,0,2.52,2.52h39.26a2.56,2.56,0,0,0,2.52-2.52,2.62,2.62,0,0,0-2.52-2.71Z"/><path class="cls-6" d="M164.33,222.31a11,11,0,0,1-11-11,10.88,10.88,0,0,1,11-11,11,11,0,0,1,11,11A11.14,11.14,0,0,1,164.33,222.31Zm0-18.52a7.44,7.44,0,0,0-7.52,7.52,7.53,7.53,0,0,0,7.52,7.52,7.72,7.72,0,0,0,7.52-7.52A7.53,7.53,0,0,0,164.33,203.79Z"/><path class="cls-6" d="M256.85,222.44a11,11,0,0,1-11-11,10.88,10.88,0,0,1,11-11,11,11,0,0,1,11,11A11.14,11.14,0,0,1,256.85,222.44Zm0-18.52a7.44,7.44,0,0,0-7.52,7.52,7.53,7.53,0,0,0,7.52,7.52,7.72,7.72,0,0,0,7.52-7.52A7.53,7.53,0,0,0,256.85,203.92Z"/><path class="cls-4" d="M198.54,95.74c5.76,0,9.94,3.94,10.24,8.24,3.49,1,6,3.75,6,7,0,4.1-4,7.44-8.82,7.44H183.68c-5.13,0-8.82-3-8.82-6.65a7,7,0,0,1,5.66-6.49,6.11,6.11,0,0,1,3.38-4.94,8.13,8.13,0,0,1,5.92-.46,10.6,10.6,0,0,1,8.72-4.15Zm0,1.57a8.58,8.58,0,0,0-7.53,3.86,1,1,0,0,1-1.24.36h0a6,6,0,0,0-4.9.16,4.51,4.51,0,0,0-2.57,4.23.83.83,0,0,1-.77.77,5.47,5.47,0,0,0-4.8,5.1c0,2.83,2.65,5.09,7,5.09H206c3.86,0,7-2.62,7-5.87,0-2.75-2.24-5-5.25-5.69a.82.82,0,0,1-.7-.77c0-3.67-3.48-7.24-8.44-7.24Z"/><path class="cls-3" d="M198.54,97.31a8.58,8.58,0,0,0-7.53,3.86,1,1,0,0,1-1.24.36h0a6,6,0,0,0-4.9.16,4.51,4.51,0,0,0-2.57,4.23.83.83,0,0,1-.77.77,5.47,5.47,0,0,0-4.8,5.1c0,2.83,2.65,5.09,7,5.09H206c3.86,0,7-2.62,7-5.87,0-2.75-2.24-5-5.25-5.69a.82.82,0,0,1-.7-.77c0-3.67-3.48-7.24-8.44-7.24Z"/><path class="cls-4" d="M393.53,126.8H362.22c-6.13,0-11.37-3.94-11.92-9s3.45-9.61,9.23-10.64c1.79-5.77,8-9.89,15.13-9.89,6.34,0,12,3.22,14.41,8.11a14.85,14.85,0,0,1,5.3-.65c6.56.36,11.89,5,12.15,10.56a10.07,10.07,0,0,1-3.62,8.09A14.12,14.12,0,0,1,393.53,126.8ZM374.67,99.29c-6.27,0-11.75,3.77-13,9l-.17.69-.82.1c-5,.58-8.49,4.36-8,8.6.44,4,4.65,7.17,9.58,7.17h31.31a11.58,11.58,0,0,0,7.69-2.78,8.26,8.26,0,0,0,3-6.63c-.21-4.55-4.59-8.36-10-8.65a12.16,12.16,0,0,0-5.31.88l-1.2.49-.42-1.08C385.49,102.41,380.42,99.29,374.67,99.29Z"/><path class="cls-3" d="M374.67,99.29c-6.27,0-11.75,3.77-13,9l-.17.69-.82.1c-5,.58-8.49,4.36-8,8.6.44,4,4.65,7.17,9.58,7.17h31.31a11.58,11.58,0,0,0,7.69-2.78,8.26,8.26,0,0,0,3-6.63c-.21-4.55-4.59-8.36-10-8.65a12.16,12.16,0,0,0-5.31.88l-1.2.49-.42-1.08C385.49,102.41,380.42,99.29,374.67,99.29Z"/></g></g></svg>