<?xml version="1.0" encoding="UTF-8"?>
<svg width="128" height="128" version="1.1" viewBox="0 0 128 128" xmlns="http://www.w3.org/2000/svg">
 <defs>
  <style>.cls-1{fill:#2977ff;}.cls-2{fill:#fff;}.cls-3{font-size:30px;}.cls-3,.cls-4{fill:#65c8d0;font-family:Evolventa-Bold, Evolventa;font-weight:700;}.cls-4{font-size:26px;}</style>
 </defs>
 <title>CO2</title>
 <g transform="matrix(1.1776 0 0 1.1776 3.1115 31.567)" data-name="Calque 2">
  <g data-name="Calque 1">
   <path class="cls-1" d="m79.4 54.11h-57.4c-11.29 0-20.89-7.23-21.91-16.46s6.34-17.65 16.91-19.51c3.32-10.58 14.76-18.14 27.8-18.14 11.63 0 22 5.9 26.44 14.87a27.24 27.24 0 0 1 9.76-1.19c12 0.67 21.82 9.18 22.3 19.37a18.48 18.48 0 0 1-6.64 14.84 25.91 25.91 0 0 1-17.26 6.22zm-34.6-50.46c-11.51 0-21.55 6.92-23.89 16.45l-0.31 1.26-1.5 0.18c-9.1 1.06-15.58 7.99-14.72 15.77 0.81 7.38 8.53 13.15 17.62 13.15h57.4a21.24 21.24 0 0 0 14.12-5.09 15.15 15.15 0 0 0 5.48-12.17c-0.39-8.35-8.42-15.33-18.28-15.88a22.31 22.31 0 0 0-9.74 1.61l-2.21 0.9-0.77-2c-3.33-8.47-12.64-14.18-23.2-14.18z" fill="#2977ff"/>
   <path class="cls-2" d="m44.8 3.65c-11.51 0-21.55 6.92-23.89 16.45l-0.31 1.26-1.5 0.18c-9.1 1.06-15.58 7.99-14.72 15.77 0.81 7.38 8.53 13.15 17.62 13.15h57.4a21.24 21.24 0 0 0 14.12-5.09 15.15 15.15 0 0 0 5.48-12.17c-0.39-8.35-8.42-15.33-18.28-15.88a22.31 22.31 0 0 0-9.74 1.61l-2.21 0.9-0.77-2c-3.33-8.47-12.64-14.18-23.2-14.18z" fill="#fff"/>
   <text x="13.524276" y="36.243706" fill="#000000" font-family="sans-serif" font-size="33.968px" letter-spacing="0px" stroke-width=".8492" word-spacing="0px" style="line-height:1.25" xml:space="preserve"><tspan x="13.524276" y="66.297256" stroke-width=".8492"/></text>
   <text x="47.125267" y="33.179462" fill="#000000" font-family="sans-serif" font-size="33.968px" letter-spacing="0px" stroke-width=".8492" word-spacing="0px" style="line-height:1.25" xml:space="preserve"><tspan x="47.125267" y="63.233009" stroke-width=".8492"/></text>
   <g transform="matrix(1.2774 0 0 1.2774 -7.7665 -9.1766)" fill="#65c8d0">
    <g aria-label="C">
     <path d="m31.442 31.629q0 3.2959 1.0254 5.083t3.0615 1.7871q0.65918 0 1.2012-0.26367 0.54199-0.26367 0.9668-0.73242 0.43945-0.4834 0.76172-1.1426 0.33691-0.65918 0.58594-1.4355l3.999 0.76172q-0.4541 1.4502-1.1426 2.6074-0.67383 1.1426-1.6113 1.9482-0.92285 0.79102-2.124 1.2305-1.1865 0.4248-2.6807 0.4248-2.2266 0-3.8232-0.73242-1.5967-0.74707-2.6221-2.0947-1.0254-1.3477-1.5088-3.2373-0.4834-1.8896-0.4834-4.2041 0-2.4463 0.49805-4.3213t1.5234-3.1641q1.04-1.2891 2.6074-1.9482 1.5674-0.65918 3.6914-0.65918 1.5234 0 2.6953 0.4248 1.1865 0.4248 2.0654 1.1865 0.89355 0.74707 1.5088 1.8018 0.61523 1.04 0.99609 2.2852l-3.9844 0.9668q-0.19043-0.70312-0.49805-1.3037-0.29297-0.60059-0.70312-1.04-0.41016-0.43945-0.92285-0.67383-0.49805-0.24902-1.0986-0.24902-1.9922 0-2.9883 1.6992-0.99609 1.6846-0.99609 4.9951z"/>
    </g>
    <g stroke-width=".50818" aria-label="2">
     <path d="m58.394 45.81v-1.2581q0.23226-0.50967 0.54193-0.94193 0.31613-0.43225 0.66451-0.80644 0.35484-0.38064 0.72258-0.70322 0.37419-0.32258 0.72258-0.60645 0.35484-0.29032 0.67096-0.55483 0.31613-0.26451 0.54838-0.51612t0.36774-0.49677q0.14193-0.25161 0.14193-0.51612 0-0.46451-0.30322-0.72903t-0.89032-0.26451q-0.58064 0-0.89032 0.31613-0.30322 0.30968-0.39354 0.93548l-1.8258-0.10322q0.06452-0.53548 0.26451-1.0064 0.2-0.47096 0.56774-0.8258 0.37419-0.35484 0.92902-0.55483 0.56129-0.20645 1.3355-0.20645 0.73548 0 1.3032 0.18064 0.56774 0.17419 0.95483 0.49032 0.38709 0.31613 0.58709 0.74838 0.2 0.43226 0.2 0.94193 0 0.57419-0.25161 1.0516-0.25161 0.47096-0.64516 0.89032-0.39354 0.4129-0.87741 0.78709-0.47742 0.37419-0.92902 0.73548-0.45161 0.36129-0.8258 0.73548-0.36774 0.36774-0.54838 0.78709h4.2193v1.4903z"/>
    </g>
    <g aria-label="O">
     <path d="m58.876 31.747q0 5.0537-2.0508 7.6465-2.0508 2.5928-5.8887 2.5928-3.8379 0-5.9033-2.5928-2.0508-2.5928-2.0508-7.6465t2.0508-7.5879q2.0654-2.5342 5.9033-2.5342 3.8379 0 5.8887 2.5342 2.0508 2.5342 2.0508 7.5879zm-4.3799 0q0-3.4131-0.89356-5.0684-0.89355-1.6553-2.666-1.6553t-2.6807 1.6846q-0.89356 1.6699-0.89356 5.0391t0.89356 5.1123q0.9082 1.7285 2.6807 1.7285t2.666-1.7285q0.89356-1.7432 0.89356-5.1123z"/>
    </g>
   </g>
  </g>
 </g>
</svg>
