<?xml version="1.0" encoding="UTF-8"?>
<svg width="128" height="128" version="1.1" viewBox="0 0 128 128" xmlns="http://www.w3.org/2000/svg">
 <defs>
  <style>.cls-1{fill:#65c8d0;}</style>
 </defs>
 <title>Equipe</title>
 <g transform="matrix(5.4602 0 0 5.4602 7.6231 27.39)" data-name="Calque 2">
  <g fill="#65c8d0" data-name="Calque 1">
   <path class="cls-1" d="m4.63 4.26a1.9 1.9 0 1 0 1.9 1.9 1.88 1.88 0 0 0-1.9-1.9zm0 5.07a3.17 3.17 0 1 1 0-6.33 3.14 3.14 0 0 1 3.17 3.16 3.17 3.17 0 0 1-3.17 3.17z"/>
   <path class="cls-1" d="m1.24 13.27-1.24-0.27 0.21-0.89a3.92 3.92 0 0 1 2-2.86 5.54 5.54 0 0 1 1.36-0.49 8.72 8.72 0 0 1 1.14-0.1 4.68 4.68 0 0 1 1.17 0.1 4.49 4.49 0 0 1 1.34 0.48 3.94 3.94 0 0 1 2 2.89l0.17 0.88-1.25 0.24-0.17-0.89a2.69 2.69 0 0 0-1.33-2 3.31 3.31 0 0 0-1-0.36 5 5 0 0 0-1.82 0 4.32 4.32 0 0 0-1 0.36 2.67 2.67 0 0 0-1.3 2z"/>
   <path class="cls-1" d="m4.63 4.26a1.9 1.9 0 1 0 1.9 1.9 1.88 1.88 0 0 0-1.9-1.9zm0 5.07a3.17 3.17 0 1 1 0-6.33 3.14 3.14 0 0 1 3.17 3.16 3.17 3.17 0 0 1-3.17 3.17z"/>
   <path class="cls-1" d="m1.24 13.27-1.24-0.27 0.21-0.89a3.92 3.92 0 0 1 2-2.86 5.54 5.54 0 0 1 1.36-0.49 8.72 8.72 0 0 1 1.14-0.1 4.68 4.68 0 0 1 1.17 0.1 4.49 4.49 0 0 1 1.34 0.48 3.94 3.94 0 0 1 2 2.89l0.17 0.88-1.25 0.24-0.17-0.89a2.69 2.69 0 0 0-1.33-2 3.31 3.31 0 0 0-1-0.36 5 5 0 0 0-1.82 0 4.32 4.32 0 0 0-1 0.36 2.67 2.67 0 0 0-1.3 2z"/>
   <path class="cls-1" d="m15.9 4.4a1.9 1.9 0 1 0 1.9 1.9 1.88 1.88 0 0 0-1.9-1.9zm0 5.07a3.17 3.17 0 1 1 0-6.34 3.14 3.14 0 0 1 3.17 3.17 3.17 3.17 0 0 1-3.17 3.17z"/>
   <path class="cls-1" d="m12.5 13.41-1.24-0.29 0.21-0.89a3.92 3.92 0 0 1 2-2.86 5.54 5.54 0 0 1 1.36-0.49 8.72 8.72 0 0 1 1.14-0.1 4.68 4.68 0 0 1 1.17 0.1 4.49 4.49 0 0 1 1.34 0.48 3.94 3.94 0 0 1 2 2.89l0.17 0.88-1.25 0.24-0.17-0.89a2.69 2.69 0 0 0-1.33-2 3.31 3.31 0 0 0-1-0.36 5 5 0 0 0-1.82 0 4.32 4.32 0 0 0-1 0.36 2.67 2.67 0 0 0-1.3 2z"/>
   <path class="cls-1" d="m10 1.27a1.9 1.9 0 1 0 1.9 1.9 1.88 1.88 0 0 0-1.9-1.9zm0 5.07a3.17 3.17 0 1 1 0-6.34 3.14 3.14 0 0 1 3.17 3.17 3.17 3.17 0 0 1-3.17 3.17z"/>
   <path class="cls-1" d="m6.6 10.28-1.24-0.28 0.21-0.89a3.92 3.92 0 0 1 2-2.86 5.54 5.54 0 0 1 1.33-0.5 8.72 8.72 0 0 1 1.1-0.09 4.68 4.68 0 0 1 1.17 0.1 4.49 4.49 0 0 1 1.34 0.48 3.94 3.94 0 0 1 2 2.89l0.17 0.88-1.25 0.24-0.17-0.89a2.69 2.69 0 0 0-1.33-2 3.31 3.31 0 0 0-1-0.36 5 5 0 0 0-1.83 0 4.32 4.32 0 0 0-1 0.36 2.67 2.67 0 0 0-1.3 2z"/>
  </g>
 </g>
</svg>
