<?xml version="1.0" encoding="UTF-8"?>
<svg width="128mm" height="128mm" version="1.1" viewBox="0 0 128 128" xmlns="http://www.w3.org/2000/svg">
 <defs>
  <style>.cls-1{fill:#fff;}.cls-1,.cls-2{stroke:#2977ff;stroke-miterlimit:10;stroke-width:3px;}.cls-2,.cls-3{fill:#65c8d0;}.cls-3{font-size:26px;font-family:Evolventa-Bold, Evolventa;font-weight:700;}</style>
 </defs>
 <g transform="matrix(4.3481 0 0 4.3481 25.118 8.0565)">
  <g transform="matrix(.26458 0 0 .26458 34.751 59.692)" data-name="Calque 2">
   <rect class="cls-1" x="-129.88" y="-191.67" width="64.67" height="61.71" fill="#fff" stroke="#2977ff" stroke-miterlimit="10" stroke-width="3px"/>
   <path class="cls-2" d="m-129.88-191.67a32.335 32.335 0 0 1 64.67 0z" fill="#65c8d0" stroke="#2977ff" stroke-miterlimit="10" stroke-width="3px"/>
   <g fill="#65c8d0" stroke-width="1.0641" aria-label="KM">
    <path d="m-116.71-143.94t0-20.44q0 0 3.7961 0 0 0 0 8.8216 0 0 6.3359-8.8216 0 0 4.5662 0 0 0-7.6868 10.037 0 0 7.6868 10.402 0 0-4.5662 0 0 0-6.3359-8.9972 0 0 0 8.9972 0 0-3.7961 0z"/>
    <path d="m-99.741-143.94t0-20.44q0 0 5.2011 0 0 0 5.5118 15.482 0 0 5.4443-15.482 0 0 5.2011 0 0 0 0 20.44 0 0-3.7826 0 0 0 0-15.333 0 0-5.3362 15.333 0 0-3.1071 0 0 0-5.3362-15.333 0 0 0 15.333 0 0-3.7961 0z"/>
   </g>
  </g>
 </g>
</svg>
