<svg viewBox="0 0 32 32" xmlns="http://www.w3.org/2000/svg" fill-rule="evenodd" clip-rule="evenodd" stroke-linejoin="round" stroke-miterlimit="1.414"><path d="M28.188 1H3.812A2.821 2.821 0 0 0 1 3.813v24.375A2.821 2.821 0 0 0 3.813 31h24.375A2.821 2.821 0 0 0 31 28.187V3.812A2.821 2.821 0 0 0 28.187 1zM12.251 23.5a7.493 7.493 0 0 1-7.5-7.5c0-4.148 3.352-7.5 7.5-7.5 2.027 0 3.721.738 5.028 1.963l-2.039 1.958c-.557-.534-1.529-1.154-2.989-1.154-2.56 0-4.653 2.121-4.653 4.734s2.092 4.734 4.653 4.734c2.971 0 4.084-2.133 4.254-3.234h-4.253v-2.573h7.084c.064.375.117.75.117 1.243 0 4.289-2.872 7.33-7.201 7.33l-.001-.001zm15-7.5h-1.875v1.875h-1.875V16h-1.875v-1.875h1.875V12.25h1.875v1.875h1.875V16z" fill-rule="nonzero"/></svg>