<svg viewBox="0 0 32 32" xmlns="http://www.w3.org/2000/svg" fill-rule="evenodd" clip-rule="evenodd" stroke-linejoin="round" stroke-miterlimit="1.414"><g fill-rule="nonzero"><path d="M30.1 5.419c-9.355-.002-18.733-.005-28.1-.005A1.06 1.06 0 0 0 .975 6.439v19.122A1.06 1.06 0 0 0 2 26.586h28a1.061 1.061 0 0 0 1.025-1.025V6.439a1.056 1.056 0 0 0-.925-1.02zM3.025 7.464h25.95v17.072H3.025V7.464z"/><path d="M30.06 9.513c.933.098 1.382 1.395.393 1.945L16.54 18.287c-.438.188-.479.178-.893 0L1.733 11.458c-1.743-.968-.065-2.254.894-1.842l13.466 6.61 13.562-6.651c.3-.094.312-.062.405-.062z"/></g></svg>