<svg viewBox="0 0 32 32" xmlns="http://www.w3.org/2000/svg" fill-rule="evenodd" clip-rule="evenodd" stroke-linejoin="round" stroke-miterlimit="1.414"><path d="M16 1.371c-8.284 0-15 6.715-15 15 0 6.627 4.298 12.25 10.258 14.233.75.138 1.026-.326 1.026-.722 0-.357-.014-1.54-.021-2.793-4.174.907-5.054-1.77-5.054-1.77-.682-1.733-1.665-2.195-1.665-2.195-1.361-.931.103-.912.103-.912 1.506.106 2.299 1.546 2.299 1.546 1.338 2.293 3.509 1.63 4.365 1.247.134-.969.523-1.631.952-2.006-3.331-.379-6.834-1.666-6.834-7.413 0-1.638.586-2.976 1.546-4.027-.156-.378-.669-1.903.145-3.969 0 0 1.26-.403 4.126 1.537a14.453 14.453 0 0 1 3.755-.505c1.274.006 2.558.173 3.757.505 2.864-1.94 4.121-1.537 4.121-1.537.816 2.066.303 3.591.147 3.969.962 1.05 1.544 2.389 1.544 4.027 0 5.761-3.509 7.029-6.849 7.401.538.466 1.017 1.379 1.017 2.778 0 2.007-.018 3.623-.018 4.117 0 .399.27.867 1.03.72C26.707 28.616 31 22.996 31 16.371c0-8.285-6.716-15-15-15z" fill-rule="nonzero"/></svg>