<svg viewBox="0 0 32 32" xmlns="http://www.w3.org/2000/svg" fill-rule="evenodd" clip-rule="evenodd" stroke-linejoin="round" stroke-miterlimit="1.414"><path d="M30.07 26.529l-7.106-6.043c-.735-.662-1.521-.964-2.155-.936a11.194 11.194 0 0 0 2.691-7.299c0-6.214-5.036-11.25-11.25-11.25S1 6.037 1 12.251s5.036 11.25 11.25 11.25c2.786 0 5.334-1.012 7.299-2.691-.03.634.274 1.42.936 2.155l6.043 7.106c1.035 1.149 2.725 1.247 3.756.216 1.031-1.032.934-2.723-.216-3.756l.002-.002zm-17.82-6.78a7.5 7.5 0 1 1 0-15 7.5 7.5 0 0 1 0 15z" fill-rule="nonzero"/></svg>