<svg xmlns="http://www.w3.org/2000/svg" viewBox="0 0 1101.51 488.29"><defs><style>.cls-1,.cls-4{fill:#999;}.cls-16,.cls-2{fill:#e4ddd7;}.cls-3{opacity:0.2;}.cls-29,.cls-3{isolation:isolate;}.cls-16,.cls-22,.cls-23,.cls-24,.cls-25,.cls-26,.cls-4,.cls-5{fill-rule:evenodd;}.cls-14,.cls-15,.cls-25,.cls-5{fill:#fff;}.cls-6{fill:#ff6a6a;}.cls-7{fill:#e48868;}.cls-24,.cls-8{fill:#007ad9;}.cls-9{fill:#ba745d;}.cls-10,.cls-26{fill:#fab348;}.cls-11,.cls-23{fill:#65c8cf;}.cls-12,.cls-22{fill:#2f3031;}.cls-13,.cls-15,.cls-19,.cls-25{opacity:0.2;}.cls-17{fill:#a77860;}.cls-18{fill:#072643;}.cls-19,.cls-27,.cls-29{fill:none;stroke-miterlimit:10;}.cls-19,.cls-27{stroke:#fff;}.cls-19{stroke-width:4px;}.cls-20{fill:#dc5955;}.cls-21{fill:#004a90;}.cls-27{stroke-linecap:round;stroke-width:3px;}.cls-28{fill:#444176;}.cls-29{stroke:#000;opacity:0.1;}.cls-30{opacity:0.05;}</style></defs><title>VoitureErreur</title><g id="Calque_2" data-name="Calque 2"><g id="Calque_1-2" data-name="Calque 1"><ellipse class="cls-1" cx="1034.61" cy="326.77" rx="66.9" ry="13.82"/><path class="cls-2" d="M1002.79,303.35s22.41-.69,29.16-5.5,34.46-10.55,36.14-2.84,33.67,38.35,8.37,38.56-58.77-3.94-65.51-8S1002.79,303.35,1002.79,303.35Z"/><path class="cls-3" d="M1076.92,330.88c-25.3.21-58.78-3.94-65.52-8-5.13-3.13-7.18-14.35-7.86-19.52h-.75s1.42,18.07,8.16,22.17,40.22,8.25,65.51,8c7.31-.06,9.83-2.66,9.69-6.51C1085.14,329.39,1082.35,330.84,1076.92,330.88Z"/><ellipse class="cls-1" cx="935.89" cy="424.74" rx="66.9" ry="13.82"/><path class="cls-2" d="M993.28,398.29S966.89,393,959.86,386s-38.7-19.34-42.22-10.55-47.49,38.7-17.59,44,70.36,7,79.16,3.52S993.28,398.29,993.28,398.29Z"/><path class="cls-3" d="M900.05,416.1c29.91,5.27,70.36,7,79.16,3.51,6.69-2.68,11.35-15.55,13.19-21.54l.88.19s-5.28,21.1-14.07,24.62-49.25,1.76-79.16-3.52c-8.63-1.52-11.1-5.1-10.17-9.62C890.62,412.72,893.63,415,900.05,416.1Z"/><path class="cls-4" d="M375.14,20.21C333.22,37.85,315,119,311.69,150.72c137.92-9.42,274.9-8.64,411.15,0C719.49,119,701.31,37.85,659.39,20.21,642,12.87,579.5,8.64,517.26,8.29,455,8.64,392.57,12.87,375.14,20.21Z"/><path class="cls-5" d="M423,31.16H623.73c22,0,40,16.19,40,36V92.85c0,19.78-18,36-40,36H423c-22,0-40-16.19-40-36V67.13C382.94,47.34,401,31.16,423,31.16Z"/><path class="cls-6" d="M335.64,109.89c-5.64,13.2-25,15.6-31.38,28.45-4.29,8.64-.95,19.58,5.76,26.51s16.1,10.55,25.4,13.1c20.73,5.69,43.07,7,63.61.68,7.36-2.26,14.55-5.56,20.29-10.7s9.94-12.29,10.43-20-3.19-15.78-9.92-19.54c-4.07-2.28-9.06-3-12.53-6.09-5.14-4.61-5.06-12.53-4.87-19.43a246.16,246.16,0,0,0-2-38.56c-1.28-9.85-3.42-20.18-10.08-27.55-7.27-8-19.28-11.1-29.8-8.45s-19.36,10.56-24.11,20.31-5.61,21.15-3.42,31.78C335.09,90.26,339.59,100.65,335.64,109.89Z"/><path class="cls-7" d="M323.54,110.76c-9.09,5.6-47.64,48.74-49.38,54s45.28,63.38,45.28,63.38l6.76-11.74-26-45,30.29-34.89Z"/><path class="cls-7" d="M411.49,112.61c9.09,5.6,45.44,46.89,47.18,52.12s-45.28,63.38-45.28,63.38l-6.76-11.74,26-45-30.29-34.89Z"/><path class="cls-8" d="M393.43,200.1l9.26-40.73c8.33-7.87,8.8-20.37,8.8-25.92V112.61s-37-18.05-45.36-18.05-42.59,16.2-42.59,16.2V133c-2.78,16.2,9.72,26.85,9.72,26.85l7.41,40.27"/><path class="cls-7" d="M358.68,79V99.4s10.32,17.44,19.79.41L377.64,79Z"/><path class="cls-7" d="M362.83,30.76c-17.56,2.3-20.37,22.6-16.15,38.63,3.15,12,10.32,24.05,21.59,23.76S386.33,77.46,388.35,68C391.59,52.81,391,27.07,362.83,30.76Z"/><path class="cls-7" d="M348.78,65s-.68-6.72-6.1-4.48,1.19,17.39,7.23,15.65S348.78,65,348.78,65Z"/><path class="cls-7" d="M384.85,64.62s.2-6.75,5.76-4.91.06,17.43-6.09,16.13S384.85,64.62,384.85,64.62Z"/><path class="cls-9" d="M368.35,94a15.09,15.09,0,0,1-7.65-2,.87.87,0,1,1,.89-1.5A13.8,13.8,0,0,0,375.89,90a.87.87,0,1,1,1,1.44A15.18,15.18,0,0,1,368.35,94Z"/><path class="cls-6" d="M377.09,41.86c.17,5-2.66,10.08-10.3,17.54-6.42,6.27-14,5.1-24.61,6.08-3.77-9.22-3.32-12.3-3.32-12.3,1.23-9.89,5.27-12.48,13.25-18.44s19.44-7.5,28.14-2.64c7.28,4.07,11.82,11.93,13.77,20s2,7.2,1.65,15.53C383.49,61.19,375.39,55.54,377.09,41.86Z"/><path class="cls-7" d="M406.63,216.38s-2.76-6.58-3.63-6.43-7.85,8-8.29,9,1,3.05,1,3.05l2.76-1.45,1.16,4.07h2.73s-2.88,2-2.73,3.49a2.34,2.34,0,0,0,1.6,1.89l4.3-2.62,3.17,5.82,4.67-5.09Z"/><path class="cls-9" d="M401.25,230.88a.92.92,0,0,1-.25,0,3.16,3.16,0,0,1-2.21-2.64,3.78,3.78,0,0,1,1.27-2.7h-.4a.87.87,0,0,1-.84-.63l-.87-3-1.81,1a.86.86,0,0,1-1.11-.26c-.41-.57-1.7-2.54-1.11-3.9a.86.86,0,0,1,1.13-.45.87.87,0,0,1,.47,1.14,2.91,2.91,0,0,0,.52,1.56l2-1.08a.85.85,0,0,1,.75,0,.87.87,0,0,1,.49.56l1,3.44h2.07a.87.87,0,0,1,.5,1.58c-1.16.82-2.42,2.15-2.37,2.69a1.32,1.32,0,0,0,.67,1l3.91-2.38a.87.87,0,0,1,.91,1.49l-4.3,2.62A.89.89,0,0,1,401.25,230.88Z"/><path class="cls-7" d="M326.2,216.38s2.76-6.58,3.63-6.43,7.85,8,8.29,9-1,3.05-1,3.05l-2.76-1.45-1.16,4.07h-2.73s2.88,2,2.73,3.49a2.34,2.34,0,0,1-1.6,1.89l-4.3-2.62-3.17,5.82-4.67-5.09Z"/><path class="cls-9" d="M331.58,230.88a.89.89,0,0,1-.45-.13l-4.3-2.62a.87.87,0,0,1,.91-1.49l3.91,2.38a1.33,1.33,0,0,0,.67-1c.05-.54-1.21-1.86-2.37-2.69a.87.87,0,0,1,.5-1.58h2.08l1-3.44a.87.87,0,0,1,1.24-.53l2.05,1.08a2.93,2.93,0,0,0,.52-1.56.87.87,0,0,1,1.6-.69c.59,1.36-.7,3.33-1.11,3.9a.88.88,0,0,1-1.11.27l-1.81-1-.87,3a.87.87,0,0,1-.84.63h-.4a3.81,3.81,0,0,1,1.27,2.7,3.16,3.16,0,0,1-2.22,2.64A.92.92,0,0,1,331.58,230.88Z"/><path class="cls-10" d="M613.22,104c-11.72-12.58-9.66-21.33,3.22-30s-3.51-36.92,5.27-48.83,52.09,6.37,58.39,19.34S673,113,673,113Z"/><path class="cls-7" d="M650.82,30.86c-12.28-.79-23.85,6.1-20.64,32,.25,2,0,9.87.43,11.6,2.55,11.25,13.19,18.25,18.12,18.29,7.67,0,15.09-7.8,18.92-19.18A43.1,43.1,0,0,0,669.8,62.2C671,46.53,667.74,31.94,650.82,30.86Z"/><path class="cls-10" d="M664,31.78c-7-7.14-22.81-3.34-31.47,1.68s-10.55,18.09-10.78,28.09a62.56,62.56,0,0,0,35.49-19.36,78.42,78.42,0,0,0,12.46,32.22c.74-6.08,1.49-12.23.86-18.33S668.27,36.15,664,31.78Z"/><path class="cls-6" d="M672.76,196.95s17.56-84.9,12.51-88.86-29.21-9.66-29.21-9.66H637.83s-32.07,1.54-34.27,2.86-4,29.43-4,29.43l1.32,72.41"/><path class="cls-7" d="M639.06,86.51v15.82c0,3.51,3.6,8.4,3.6,8.4.66,0,7-5.05,7.91-6.15S656.06,89,656.06,89Z"/><polygon class="cls-6" points="636.7 106.56 635.87 94.07 656.61 95.27 652.78 106.56 642.35 112.97 636.7 106.56"/><path class="cls-9" d="M651.83,91.51a14.14,14.14,0,0,1-8.87-.86.88.88,0,1,1,.72-1.6,12.51,12.51,0,0,0,9.54.19.89.89,0,0,1,1.14.49.88.88,0,0,1-.49,1.14A13.76,13.76,0,0,1,651.83,91.51Z"/><path class="cls-11" d="M645.59,67.54H629.83V57.66h15.76ZM643.86,59h-12.3v7.27h12.3Z"/><path class="cls-11" d="M649.59,64.15a2.49,2.49,0,0,0-1.79-1.38A3.1,3.1,0,0,0,645.59,64l-1.33-1.1c.07-.08,1.68-1.91,3.65-1.81A4.07,4.07,0,0,1,651,63.22Z"/><path class="cls-11" d="M665.29,67.54H649.53V57.66h15.76ZM663.55,59h-12.3v7.27h12.3Z"/><path class="cls-12" d="M483.15,101.56s-9.68.39-11.23-5.81a21.06,21.06,0,0,1,0-10.84S461.47,79.1,463,72.33s7-6.65,7-6.65-6.19-8.25-2.71-12.51,13.94-4.72,13.94-4.72-3.48-9.6,0-12.7,12.77,0,12.77,0,3.48-11.35,12-11.67,10.06,4.32,10.06,4.32,3.1-6.7,11.61-4.32,10.06,8.72,10.06,8.72,6.19-4.5,11.23,0,3.1,9.53,3.1,9.53,4.26-1.16,7.36,3.48,0,10.84,0,10.84,7.74.21,9.29,5.91-4.26,9.76-4.26,9.76,3.79-3.48,5.57,6.49-8.9,8.42-8.9,8.42,7.19,5.42,3.71,11.61-14.71,5.21-14.71,5.21Z"/><path class="cls-11" d="M541.85,214.41l9.67-42.57c8.71-8.22,9.19-21.28,9.19-27.09s-2.51-23.7-2.51-23.7-36.19-16.93-44.9-16.93-40.86,16.93-40.86,16.93l-3.65,23.22C465.9,161.2,479,172.33,479,172.33l6.38,41.83"/><path class="cls-11" d="M558.21,121.05c9.11,5,17,33.91,17.62,44.35s-.23,55.92-14.52,57.23-76-8.49-76-8.49l1.36-14.77,59.83-5.56,4.67-50.18Z"/><path class="cls-11" d="M472.45,121.05c-13.91,7.4-16.48,48.18-15.8,62.12s-3.81,36.83,7.85,37.54S530.65,216,530.65,216l11.24-21.11-52.4-5Z"/><g class="cls-13"><path class="cls-14" d="M523.33,147l-.19,0a42.63,42.63,0,0,1-24.08-15.29.87.87,0,1,1,1.38-1.07,40.87,40.87,0,0,0,23.09,14.65.87.87,0,0,1-.19,1.72Z"/></g><g class="cls-13"><path class="cls-14" d="M551.2,171.65a.87.87,0,0,1-.74-1.34,35.27,35.27,0,0,0,2.5-32.14.86.86,0,0,1,0-.74c.7-1.35,1.35-2.81,2-4.26s1.34-3,2.05-4.35a.87.87,0,1,1,1.55.8c-.7,1.35-1.35,2.81-2,4.26s-1.22,2.71-1.86,4a37.05,37.05,0,0,1-2.79,33.38A.87.87,0,0,1,551.2,171.65Z"/></g><g class="cls-13"><path class="cls-14" d="M478.63,171.65a.87.87,0,0,1-.74-.41,37.05,37.05,0,0,1-2.79-33.38c-.64-1.28-1.25-2.63-1.86-4s-1.31-2.91-2-4.26a.87.87,0,1,1,1.55-.8c.72,1.38,1.38,2.86,2.05,4.35s1.31,2.91,2,4.26a.86.86,0,0,1,0,.74,35.27,35.27,0,0,0,2.5,32.14.87.87,0,0,1-.28,1.2A.86.86,0,0,1,478.63,171.65Z"/></g><path class="cls-7" d="M505.53,91.55v21.28s10.78,18.22,20.68.43l-.87-21.71Z"/><path class="cls-7" d="M509.87,41.09C491.52,43.5,488.58,64.71,493,81.47c3.29,12.5,10.78,25.13,22.56,24.83s18.87-16.4,21-26.28C539.93,64.13,539.3,37.24,509.87,41.09Z"/><path class="cls-7" d="M495.18,76.83s-.71-7-6.38-4.68,1.25,18.18,7.56,16.36S495.18,76.83,495.18,76.83Z"/><path class="cls-7" d="M532.88,76.48s.2-7.06,6-5.13.06,18.22-6.36,16.86S532.88,76.48,532.88,76.48Z"/><path class="cls-12" d="M531.16,41.66A13.46,13.46,0,0,0,527.1,41a3.56,3.56,0,0,0-1.91-1.88c-5.65-2.44-19-2.07-24.92,0S487.56,49.8,486,54.77c-1.64,5.29,0,10.84,1.64,16.13.47,1.52,1.1,3.21,2.83,4,6.29,2.74,16.8-5.53,20.59-8.65A41.86,41.86,0,0,0,523.84,49c-2.08,5.5-.11,26.15,11.3,25.78a3.09,3.09,0,0,0,2.39-1.88c1.83-3.19,3.69-6.49,3.83-10S535.17,43.08,531.16,41.66Z"/><path class="cls-9" d="M515.63,107.17a15.74,15.74,0,0,1-8-2.13.87.87,0,1,1,.89-1.5,14.46,14.46,0,0,0,15-.49.87.87,0,1,1,1,1.44A15.84,15.84,0,0,1,515.63,107.17Z"/><path class="cls-15" d="M492.8,197.8a.94.94,0,0,1-.1-1.88L539.57,191l7.59-13.22a.94.94,0,0,1,1.63.94l-8.07,14.05-47.83,5Z"/><path class="cls-15" d="M516.87,195.29h-.1L493,192.81l-8.07-14.05a.94.94,0,0,1,1.63-.94L494.17,191l22.8,2.38a.94.94,0,0,1-.1,1.88Z"/><path class="cls-16" d="M580.78,88.32h47.06c31.8,0,57.82,23.38,57.82,52v8.67q-81.16-4.28-162.69-4.61v-4.06C523,111.7,549,88.32,580.78,88.32Z"/><path class="cls-16" d="M386,87.08h41.94c28.34,0,51.53,23.38,51.53,52v5.32q-72.32.42-145,5.26V139C334.44,110.46,357.63,87.08,386,87.08Z"/><path class="cls-16" d="M481.75,21.08h66.59c3.46,0,6.28,2.54,6.28,5.65V37.45c0,3.1-2.83,5.65-6.28,5.65H481.75c-3.46,0-6.28-2.54-6.28-5.65V26.73C475.47,23.62,478.29,21.08,481.75,21.08Z"/><rect class="cls-2" x="509.94" y="8.69" width="7.54" height="16.72"/><path class="cls-12" d="M595.37,43.08c-8.56,40.72-18.07,59.37-18.07,59.37s20.13-1.55,35.9-1.58,37.65,1.58,37.65,1.58S641.05,52.55,642,45,595.37,43.08,595.37,43.08Z"/><path class="cls-7" d="M619.77,104.89c-11.6-2.7-9.13-10.63-9.13-10.63s.54-4.48.75-10.15c.05-1.45.09-3,.08-4.52,0-2.35-.1-4.76-.32-7-.95-9.57,21.05-3.87,21.05-3.87S630.93,88.09,634,93.9,631.36,107.59,619.77,104.89Z"/><path class="cls-7" d="M599,96.31s23.39,27,32,33.27c0,0,9.94-9,3.81-32.69C634.85,96.89,623.56,91.24,599,96.31Z"/><path class="cls-7" d="M598.28,31.3s-12.15,23.4-.1,45.58,35.72-9.66,37.25-13.39,9.65-24.86-6.5-31.27S601.72,24.95,598.28,31.3Z"/><path class="cls-12" d="M602.32,39.61S594,50.59,593,58.7c0,0-6.07-15.47,3.35-30.21s25.49-13.69,39.18-1.54c7.86,7,12.71,17.94-3.07,43.25C632.42,70.2,604,50.48,602.32,39.61Z"/><path class="cls-17" d="M621.73,79.21s-2.11,4.61-10.35,8.89c.05-1.18.09-2.42.08-3.67A19.69,19.69,0,0,0,621.73,79.21Z"/><path class="cls-8" d="M655.79,160.15a27.8,27.8,0,0,1-4.21,7.5c-5.76,7.68-1.82,52.45,0,63.95a3.14,3.14,0,0,1-1.87,3.39l-4.41,1.88a3.76,3.76,0,0,1-5.23-3.73v-.09c3.15-43.67,9.39-112-6.6-136.16h0l.81.39.1.05c8.41,4.08,17.68,9.32,23.24,12.65a12.18,12.18,0,0,1,5.25,6.44c1.86,5.33,5.32,15.24,9.1,26C672,142.41,682.59,191.25,655.79,160.15Z"/><path class="cls-8" d="M576.14,134.37l0,0a191.28,191.28,0,0,1,8.74,23.8l.2.68c2.84,9.61,2.58,20.06,1,31.78C585,199.53,578.37,214,574.38,221a4.78,4.78,0,0,0,.16,3.68h0a2.65,2.65,0,0,0,1.31,1.53l14.42,5.34,3.39,1.25a7.39,7.39,0,0,0,9.88-6c3.21-24.66,7.26-49.85,10.49-59.34,14.18-41.64-5.54-72.93-5.54-72.93S585.24,97.28,580.74,99c-5.12.79-17.82,13.12-24.56,25.56,0,0-11,33.07,1.3,39.56s19.62,5.78,21.15,3"/><circle class="cls-18" cx="577.3" cy="153.58" r="15.23"/><circle class="cls-18" cx="658.24" cy="154.44" r="15.23"/><path class="cls-1" d="M663,157.61a43,43,0,1,1-43-43A43,43,0,0,1,663,157.61Zm-43-33.15a33.15,33.15,0,1,0,33.15,33.15A33.15,33.15,0,0,0,620,124.45Z"/><rect class="cls-7" x="573.76" y="143.2" width="22.43" height="4.32" rx="1.66" ry="1.66" transform="translate(72.85 -172.53) rotate(17.87)"/><rect class="cls-7" x="572.43" y="147.31" width="22.43" height="4.32" rx="1.66" ry="1.66" transform="translate(74.05 -171.93) rotate(17.87)"/><rect class="cls-7" x="571.1" y="151.42" width="22.43" height="4.32" rx="1.66" ry="1.66" transform="translate(75.25 -171.32) rotate(17.87)"/><rect class="cls-7" x="569.5" y="155.44" width="22.43" height="4.32" rx="1.66" ry="1.66" transform="matrix(0.95, 0.31, -0.31, 0.95, 76.41, -170.64)"/><rect class="cls-7" x="568.18" y="159.56" width="22.43" height="4.32" rx="1.66" ry="1.66" transform="translate(77.6 -170.03) rotate(17.87)"/><rect class="cls-7" x="642.77" y="144.06" width="22.43" height="4.32" rx="1.66" ry="1.66" transform="translate(1321.28 84.64) rotate(162.13)"/><rect class="cls-7" x="644.09" y="148.17" width="22.43" height="4.32" rx="1.66" ry="1.66" transform="translate(1325.13 92.26) rotate(162.13)"/><rect class="cls-7" x="645.42" y="152.28" width="22.43" height="4.32" rx="1.66" ry="1.66" transform="matrix(-0.95, 0.31, -0.31, -0.95, 1328.98, 99.88)"/><rect class="cls-7" x="647.02" y="156.3" width="22.43" height="4.32" rx="1.66" ry="1.66" transform="translate(1333.34 107.24) rotate(162.13)"/><rect class="cls-7" x="648.35" y="160.41" width="22.43" height="4.32" rx="1.66" ry="1.66" transform="matrix(-0.95, 0.31, -0.31, -0.95, 1337.19, 114.86)"/><path class="cls-19" d="M311.69,150.72s128.78-6.77,202.36-6.41,208.79,6.41,208.79,6.41"/><path class="cls-7" d="M456.35,144.77s35,51.11,31.36,55.85c-5,6.63-48.73,24.7-48.73,24.7l7.26,15s77.12-19,71.18-41.3-36-72.39-36-72.39Z"/><path class="cls-7" d="M442.73,243.36s8.47-6.74,9.32-10.83S442,224.39,442,224.39l-7.53,2.34Z"/><path class="cls-7" d="M439.88,227s-10.18-3.72-11.75-4.23-6,1.12-10.18,4.17a84.1,84.1,0,0,0-9.62,8c-.59.68-1.28,1.06-.23,3.37a10.23,10.23,0,0,0,3.06,3.72s.12,3.43,2.7,5a5.52,5.52,0,0,0,3.4,4.47s.32,3.15,2.66,3.85a30.54,30.54,0,0,1,5.93-1.46c1.73,0,10.24-3.69,17.81-8.64C443.66,245.27,449.21,237.81,439.88,227Z"/><path class="cls-7" d="M427.72,223.82s-5.76,6.77-7.27,11.85c-.34,1.15-.47,2.32.47,3.07s3.21.35,5.86-2.46a32.47,32.47,0,0,1,7.34-5.22S436,227.38,427.72,223.82Z"/><path class="cls-7" d="M409.9,240.88s12-7,13.43-7-1.07-4.44-2.29-4.4-11.92,5.13-12.91,5.78S406.48,239.72,409.9,240.88Z"/><path class="cls-7" d="M413.13,232.49S391.72,244.28,392.54,246c1.2,2.44,7.17,1.71,23.13-8.2C431.19,228.12,413.13,232.49,413.13,232.49Z"/><path class="cls-20" d="M459.22,297.18"/><path class="cls-10" d="M346.59,288.3l112.63,8.88s-.63-55.51-1.91-64.94-1.56-46.75,1.3-72.13c.64-5.72,8.2-1.67,8.2-1.67l5.12-11.06,10.49-19.67c-6.1-7.42-38.3-25-54.76-28.73-14.59-3.34-18.91-2.85-28.36-2.58-24.8.7-62.65,27.11-63.93,33.51,0,0-2.22,4.78-1.26,6.8.81,1.7,19.83,14.64,24.42,13.7a27.13,27.13,0,0,1,0,5C358.31,158.46,344.31,266.34,346.59,288.3Z"/><g class="cls-13"><path class="cls-14" d="M365.91,265.91a.67.67,0,0,1-.59-.39.78.78,0,0,1,.27-1,108,108,0,0,0,33.27-31.05.64.64,0,0,1,.95-.13.79.79,0,0,1,.12,1,109.5,109.5,0,0,1-33.7,31.45A.64.64,0,0,1,365.91,265.91Z"/></g><g class="cls-13"><path class="cls-14" d="M401.3,286a.61.61,0,0,1-.41-.17.91.91,0,0,1-.12-1.13c8.66-13.29,14.85-24.49,18.94-39.21a.65.65,0,0,1,.85-.51.85.85,0,0,1,.43,1c-4.15,14.94-10.4,26.26-19.15,39.69A.64.64,0,0,1,401.3,286Z"/></g><g class="cls-13"><path class="cls-14" d="M431.12,274.62h-.07a.86.86,0,0,1-.8-.93c1.15-15.42,2.54-30.18,3.89-44.44,1-10.69,2-21.74,3-33.19,1.15-13.81,1.38-40.08-5.09-51a.86.86,0,1,1,1.49-.88c6.69,11.27,6.49,38,5.32,52-1,11.46-2,22.51-3,33.21-1.34,14.26-2.73,29-3.88,44.41A.87.87,0,0,1,431.12,274.62Z"/></g><g class="cls-13"><path class="cls-14" d="M410.16,113.69c-.55,0-1.1,0-1.65,0A28.64,28.64,0,0,1,390,105.18a.92.92,0,1,1,1.31-1.28A26.45,26.45,0,0,0,426.76,106a.92.92,0,0,1,1.15,1.43A28.64,28.64,0,0,1,410.16,113.69Z"/></g><path class="cls-7" d="M392.52,76.61V98s17.31,18.35,33.21.43l-1.39-21.85Z"/><path class="cls-7" d="M405.16,27c-18.53,2-19.52,22.92-17.83,40.29s10.27,28.25,22.13,28.19,19.46-12.53,21.73-28.73S434.86,23.7,405.16,27Z"/><path class="cls-7" d="M390.66,62.64s-.57-7.09-6.32-4.85.87,18.32,7.26,16.62S390.66,62.64,390.66,62.64Z"/><path class="cls-7" d="M427.19,64.71s.35-7.1,6.17-5S433,78,426.6,76.51,427.19,64.71,427.19,64.71Z"/><polygon class="cls-21" points="402.05 180.1 407.44 156.15 430.24 160.6 417.11 205.09 397.25 198.59 402.05 180.1"/><path class="cls-7" d="M404.56,208.51s-12.78,2.74-15.52,0-.81-15.4-.81-15.4,6.28-7.87,6.62-11,5.48-10.61,7.19-9.87,0,7.82,0,7.82L426.69,177c5.48-.68,3.08,2.74,2.74,4.45s-6.6,3.76-6.6,3.76,2.84,4.64,2.15,5.75-2.15,3.5-2.15,3.5,2.84,5.48,1.81,6.5-4,1.37-4,1.37-.82,3.8-1.51,4.3S404.56,208.51,404.56,208.51Z"/><path class="cls-8" d="M399.87,70.92a7.92,7.92,0,1,1,7.26-8.53A7.93,7.93,0,0,1,399.87,70.92Zm-1.12-14a6.09,6.09,0,1,0,6.55,5.58A6.1,6.1,0,0,0,398.75,57Z"/><path class="cls-8" d="M419.64,71.09a7.92,7.92,0,1,1,7.26-8.53A7.93,7.93,0,0,1,419.64,71.09Zm-1.12-14a6.09,6.09,0,1,0,6.55,5.58A6.09,6.09,0,0,0,418.53,57.12Z"/><path class="cls-8" d="M411.18,63.25a2.65,2.65,0,0,0-1.9-1.47A3.3,3.3,0,0,0,406.93,63l-1.42-1.17c.07-.08,1.79-2,3.88-1.93a4.33,4.33,0,0,1,3.33,2.31Z"/><path class="cls-9" d="M409,96.38c-.43,0-.86,0-1.29-.05a19,19,0,0,1-13.54-7.25.92.92,0,0,1,1.43-1.15,17.19,17.19,0,0,0,12.25,6.57c5,.35,9.58-1.62,13.54-5.94a.92.92,0,0,1,1.36,1.24C418.75,94.12,414,96.38,409,96.38Z"/><path class="cls-10" d="M384,56.47l3.62,5.81h3.84v-10s4.84-4.91,5.36-10.51l29,2.07s-.93,7.16,1.37,10v11.5h3.58l3.27-3.1s7-25.52,4.19-31.91-8.74-4.09-8.74-4.09S420,15,406.62,18.83s-24.1,12-26.14,17.63S384,56.47,384,56.47Z"/><path class="cls-7" d="M334.51,137.18s-8.09,64.37-8.09,71c0,13.36,15.95,18.35,24.75,17.36,8-.9,39.48-9.74,46.43-15.53s-3-20.29-3-20.29-32.4,13.47-39,12.13,2.89-51.44,2.89-51.44S342.14,144.08,334.51,137.18Z"/><path class="cls-22" d="M703.62,296.46h51.72c9.3,0,16.91,8.18,16.91,18.19V418.42c0,10-7.61,18.19-16.91,18.19H703.62c-9.3,0-16.91-8.18-16.91-18.19V314.65C686.71,304.65,694.32,296.46,703.62,296.46Z"/><path class="cls-22" d="M276.84,296.46h51.72c9.3,0,16.91,8.18,16.91,18.19V418.42c0,10-7.61,18.19-16.91,18.19H276.84c-9.3,0-16.91-8.18-16.91-18.19V314.65C259.93,304.65,267.54,296.46,276.84,296.46Z"/><path class="cls-23" d="M517.12,0C705.68,0,687.59,3.18,739.52,158.07,811.87,204.2,780.75,260.54,786,335.33a2568.23,2568.23,0,0,1-418.29,9.75Q308,341.6,248.24,335.33c5.26-74.79-25.86-131.12,46.49-177.26C346.66,3.18,328.57,0,517.12,0Zm-142,20.21C333.22,37.85,315,119,311.69,150.72c137.92-9.42,274.9-8.64,411.15,0C719.49,119,701.31,37.85,659.39,20.21,642,12.87,579.5,8.64,517.26,8.29,455,8.64,392.57,12.87,375.14,20.21Z"/><path class="cls-24" d="M749.81,127.41h22.31c10.35,0,18.82,7.21,18.82,16v5.47c0,8.81-8.47,16-18.82,16H749.81c-10.35,0-18.82-7.21-18.82-16v-5.47C731,134.62,739.46,127.41,749.81,127.41Z"/><path class="cls-24" d="M262.12,127.41h22.32c10.35,0,18.82,7.21,18.82,16v5.47c0,8.81-8.47,16-18.82,16H262.12c-10.35,0-18.82-7.21-18.82-16v-5.47C243.3,134.62,251.77,127.41,262.12,127.41Z"/><path class="cls-25" d="M293.74,163.63q-1,3-2.08,6.07s18.84-8,49,6.95,49,57.77,55.29,84.51S406,312.36,406,312.36H622.11s3.77-24.46,10.05-51.2,25.13-69.54,55.29-84.51,49-6.95,49-6.95c-.72-2-1.4-4.05-2.08-6.07-5.37-.12-10.64-.38-14.88-.89-7.45-.89-106.47-.9-205.43-.69-99-.21-198-.2-205.43.69C304.37,163.24,299.11,163.51,293.74,163.63Z"/><path class="cls-4" d="M255.84,312.36H772.26c10.53,0,19.15,7.34,19.15,16.31v25.15c0,9-8.62,16.31-19.15,16.31H255.84c-10.53,0-19.15-7.34-19.15-16.31V328.67C236.69,319.7,245.31,312.36,255.84,312.36Z"/><path class="cls-24" d="M312.39,274.53c29.41,0,53.4-20.42,53.4-45.47s-24-45.47-53.4-45.47S259,204,259,229.07,283,274.53,312.39,274.53Z"/><path class="cls-24" d="M719.48,274.53c29.41,0,53.4-20.42,53.4-45.47s-24-45.47-53.4-45.47-53.4,20.42-53.4,45.47S690.07,274.53,719.48,274.53Z"/><path class="cls-25" d="M312.39,261.7c21.11,0,38.32-14.66,38.32-32.63s-17.22-32.63-38.32-32.63-38.32,14.66-38.32,32.63S291.28,261.7,312.39,261.7Z"/><path class="cls-25" d="M719.48,261.7c21.11,0,38.32-14.66,38.32-32.63s-17.22-32.63-38.32-32.63-38.32,14.66-38.32,32.63S698.38,261.7,719.48,261.7Z"/><path class="cls-26" d="M279.45,337.22h40.84a3.24,3.24,0,0,1,3.45,2.94V351.4a3.24,3.24,0,0,1-3.45,2.94H279.45A3.24,3.24,0,0,1,276,351.4V340.17A3.24,3.24,0,0,1,279.45,337.22Z"/><path class="cls-26" d="M707.82,337.22h40.84a3.24,3.24,0,0,1,3.46,2.94V351.4a3.24,3.24,0,0,1-3.46,2.94H707.82a3.24,3.24,0,0,1-3.45-2.94V340.17A3.24,3.24,0,0,1,707.82,337.22Z"/><path class="cls-15" d="M548,294.42H470a12.09,12.09,0,0,1,0-24.17H548a12.09,12.09,0,0,1,0,24.17ZM470,277.15c-2.57,0-5,2.61-5,5.37a5.34,5.34,0,0,0,5,5H548a5.08,5.08,0,0,0,5-5,5.21,5.21,0,0,0-5-5.37Z"/><line class="cls-27" x1="292.71" y1="209.2" x2="305.7" y2="222.18"/><line class="cls-27" x1="292.71" y1="222.18" x2="305.7" y2="209.2"/><path class="cls-27" d="M297.65,247.17c0-6.94,6.6-12.57,14.74-12.57s14.74,5.63,14.74,12.57"/><line class="cls-27" x1="319.07" y1="209.2" x2="332.06" y2="222.18"/><line class="cls-27" x1="319.07" y1="222.18" x2="332.06" y2="209.2"/><line class="cls-27" x1="699.81" y1="210.08" x2="712.8" y2="223.07"/><line class="cls-27" x1="699.81" y1="223.07" x2="712.8" y2="210.08"/><path class="cls-27" d="M704.74,248.05c0-6.94,6.6-12.57,14.74-12.57s14.74,5.63,14.74,12.57"/><line class="cls-27" x1="726.17" y1="210.08" x2="739.16" y2="223.07"/><line class="cls-27" x1="726.17" y1="223.07" x2="739.16" y2="210.08"/><ellipse class="cls-1" cx="191.15" cy="426.44" rx="191.15" ry="29.94"/><path class="cls-28" d="M98.47,344.36s-19.54,25.72-35.76,25.93-25.74,10.83-18,17.47,91.6-3.79,91.6-3.79.79-31.61-6.48-36.22S98.47,344.36,98.47,344.36Z"/><path class="cls-28" d="M308.6,375.23s3,20.37-6.25,34.26,16.7,19.25,16.7,19.25,18.84,5.25,20.22-13.37.93-32.85-.84-34.37-3.24-12-3.24-12Z"/><path class="cls-2" d="M12.75,413.71S12.07,347.82,77.26,321l15.14-28.8,7.26-17.69a43,43,0,0,1,30.4-25.66l11.74-2.64,3.63-15.3a43,43,0,0,1,34.38-32.47,120.39,120.39,0,0,1,21.65-2,18.63,18.63,0,0,1,15.83,9.27h0s61.76-.68,64.5,32.95c0,0,6.18,30.87,15.1,36.37,0,0,15.1-3.43,30.19,18.53l16.47,56.27s43.23,40.49,30.19,77.5c0,0-17.84,25.39-108.43,8.23,0,0-96.76,29.48-148.26-11C117.06,424.68,31.29,441.15,12.75,413.71Z"/><path class="cls-29" d="M56,403.41s13.73-19.22,13-32.95,3.23-47.17,3.23-47.17"/><path class="cls-29" d="M106.08,351.94s13.72-25.39,12.35-39.11c0,0,14.41-26.11,25.39-24"/><path class="cls-29" d="M195.29,311.46s39.8-17.84,39.8-22.65H255s28.83,37.75,25.4,54.22"/><path class="cls-29" d="M242,338.9s-38.43-2.75-52.16,8.24-38.43,16.47-38.43,16.47S137,394.49,131.46,400s-14.41,24.71-14.41,24.71"/><path class="cls-29" d="M242,375.28s4.11,14.41,9.6,22.64,13.72,37.74,13.72,37.74"/><path class="cls-29" d="M306.47,417.13s8.71,24.24,16.37,24.47"/><path class="cls-29" d="M249.41,313.11S272,319.22,281.5,334s38.35,28.25,38.35,28.25"/><g class="cls-30"><path d="M342.15,349.2l-16.47-56.27c-15.1-22-30.19-18.53-30.19-18.53-8.92-5.49-15.1-36.37-15.1-36.37-2.75-33.63-64.51-32.94-64.51-32.94h0A18.63,18.63,0,0,0,200,195.81c-2.91,0-5.9.09-8.88.34q2.53.25,4.84.72l4.8,8.24s61.76-.69,64.5,32.94c0,0,6.18,30.88,15.1,36.37,0,0,15.1-3.44,30.19,18.53l16.47,56.27s43.23,40.49,30.19,77.5c0,0-8.8,12.53-45.42,14,49.37,1.81,60.52-14,60.52-14C385.38,389.68,342.15,349.2,342.15,349.2Z"/><path d="M100.59,424a320.44,320.44,0,0,1-44,4.81c17.19.66,35.08-1.2,46.6-2.79C102.33,425.33,101.46,424.67,100.59,424Z"/><path d="M248.82,435A281.84,281.84,0,0,1,184,445.22c31.63,1.15,61.6-5.45,73.95-8.62C255,436.11,252,435.54,248.82,435Z"/></g><ellipse class="cls-1" cx="788.38" cy="469.86" rx="108.79" ry="18.43"/><path class="cls-10" d="M709.32,474.48H872.46a9.14,9.14,0,0,0,8-13.47L798.93,309.53a9.13,9.13,0,0,0-16.08,0L701.28,461a9.14,9.14,0,0,0,8,13.47Zm92-27.68H780.51V426h20.76Zm0-34.59H780.51V370.7h20.76Z"/></g></g></svg>
