<svg xmlns="http://www.w3.org/2000/svg" viewBox="0 0 554.73 434.61"><defs><style>.cwp_cls-1,.cwp_cls-10{fill:#2f3031;}.cwp_cls-1,.cwp_cls-14,.cwp_cls-2,.cwp_cls-22,.cwp_cls-23,.cwp_cls-24,.cwp_cls-25,.cwp_cls-3{fill-rule:evenodd;}.cwp_cls-18,.cwp_cls-2{fill:#999;}.cwp_cls-12,.cwp_cls-13,.cwp_cls-24,.cwp_cls-3{fill:#fff;}.cwp_cls-4{fill:#ff6a6a;}.cwp_cls-5{fill:#e48868;}.cwp_cls-23,.cwp_cls-6{fill:#007ad9;}.cwp_cls-7{fill:#ba745d;}.cwp_cls-25,.cwp_cls-8{fill:#fab348;}.cwp_cls-22,.cwp_cls-9{fill:#65c8cf;}.cwp_cls-11,.cwp_cls-13,.cwp_cls-19,.cwp_cls-24{opacity:0.2;}.cwp_cls-14,.cwp_cls-15{fill:#e4ddd7;}.cwp_cls-16{fill:#a77860;}.cwp_cls-17{fill:#072643;}.cwp_cls-19{fill:none;stroke:#fff;stroke-miterlimit:10;stroke-width:4px;}.cwp_cls-20{fill:#dc5955;}.cwp_cls-21{fill:#004a90;}</style></defs><title>VoitureContente</title><g id="Calque_2" data-name="Calque 2"><g id="Calque_1-2" data-name="Calque 1"><path class="cwp_cls-1" d="M466.94,294.46h51.72c9.3,0,16.91,8.18,16.91,18.19V416.42c0,10-7.61,18.19-16.91,18.19H466.94c-9.3,0-16.91-8.18-16.91-18.19V312.65C450,302.65,457.63,294.46,466.94,294.46Z"/><path class="cwp_cls-1" d="M40.15,294.46H91.88c9.3,0,16.91,8.18,16.91,18.19V416.42c0,10-7.61,18.19-16.91,18.19H40.15c-9.3,0-16.91-8.18-16.91-18.19V312.65C23.25,302.65,30.85,294.46,40.15,294.46Z"/><path class="cwp_cls-2" d="M138.45,20.21C96.54,37.85,78.35,119,75,150.72c137.92-9.42,274.9-8.64,411.15,0C482.8,119,464.62,37.85,422.7,20.21,405.28,12.87,342.82,8.64,280.58,8.29,218.34,8.64,155.88,12.87,138.45,20.21Z"/><path class="cwp_cls-3" d="M186.28,31.16H387c22,0,40,16.19,40,36V92.85c0,19.78-18,36-40,36H186.28c-22,0-40-16.19-40-36V67.13C146.25,47.34,164.26,31.16,186.28,31.16Z"/><path class="cwp_cls-4" d="M99,109.89c-5.64,13.2-25,15.6-31.38,28.45-4.29,8.64-.95,19.58,5.76,26.51s16.1,10.55,25.4,13.1c20.73,5.69,43.07,7,63.61.68,7.36-2.26,14.55-5.56,20.29-10.7s9.94-12.29,10.43-20-3.19-15.78-9.92-19.54c-4.07-2.28-9.06-3-12.53-6.09-5.14-4.61-5.06-12.53-4.87-19.43a246.16,246.16,0,0,0-2-38.56c-1.28-9.85-3.42-20.18-10.08-27.55-7.27-8-19.28-11.1-29.8-8.45S104.55,38.89,99.79,48.64s-5.61,21.15-3.42,31.78C98.41,90.26,102.9,100.65,99,109.89Z"/><path class="cwp_cls-5" d="M86.85,110.76c-9.09,5.6-47.64,48.74-49.38,54s45.28,63.38,45.28,63.38l6.76-11.74-26-45,30.29-34.89Z"/><path class="cwp_cls-5" d="M174.8,112.61c9.09,5.6,45.44,46.89,47.18,52.12s-45.28,63.38-45.28,63.38l-6.76-11.74,26-45-30.29-34.89Z"/><path class="cwp_cls-6" d="M156.75,200.1,166,159.37c8.33-7.87,8.8-20.37,8.8-25.92V112.61s-37-18.05-45.36-18.05-42.59,16.2-42.59,16.2V133c-2.78,16.2,9.72,26.85,9.72,26.85L104,200.1"/><path class="cwp_cls-5" d="M122,79V99.4s10.32,17.44,19.79.41L141,79Z"/><path class="cwp_cls-5" d="M126.15,30.76c-17.56,2.3-20.37,22.6-16.15,38.63,3.15,12,10.32,24.05,21.59,23.76S149.64,77.46,151.66,68C154.9,52.81,154.3,27.07,126.15,30.76Z"/><path class="cwp_cls-5" d="M112.09,65s-.68-6.72-6.1-4.48,1.19,17.39,7.23,15.65S112.09,65,112.09,65Z"/><path class="cwp_cls-5" d="M148.17,64.62s.2-6.75,5.76-4.91.06,17.43-6.09,16.13S148.17,64.62,148.17,64.62Z"/><path class="cwp_cls-7" d="M131.66,94A15.09,15.09,0,0,1,124,92a.87.87,0,1,1,.89-1.5A13.8,13.8,0,0,0,139.21,90a.87.87,0,1,1,1,1.44A15.18,15.18,0,0,1,131.66,94Z"/><path class="cwp_cls-4" d="M140.4,41.86c.17,5-2.66,10.08-10.3,17.54-6.42,6.27-14,5.1-24.61,6.08-3.77-9.22-3.32-12.3-3.32-12.3,1.23-9.89,5.27-12.48,13.25-18.44s19.44-7.5,28.14-2.64c7.28,4.07,11.82,11.93,13.77,20s2,7.2,1.65,15.53C146.8,61.19,138.7,55.54,140.4,41.86Z"/><path class="cwp_cls-5" d="M169.94,216.38s-2.76-6.58-3.63-6.43-7.85,8-8.29,9,1,3.05,1,3.05l2.76-1.45,1.16,4.07h2.73s-2.88,2-2.73,3.49a2.34,2.34,0,0,0,1.6,1.89l4.3-2.62,3.17,5.82,4.67-5.09Z"/><path class="cwp_cls-7" d="M164.56,230.88a.92.92,0,0,1-.25,0,3.16,3.16,0,0,1-2.21-2.64,3.78,3.78,0,0,1,1.27-2.7H163a.87.87,0,0,1-.84-.63l-.87-3-1.81,1a.86.86,0,0,1-1.11-.26c-.41-.57-1.7-2.54-1.11-3.9a.86.86,0,0,1,1.13-.45.87.87,0,0,1,.47,1.14,2.91,2.91,0,0,0,.52,1.56l2-1.08a.85.85,0,0,1,.75,0,.87.87,0,0,1,.49.56l1,3.44h2.07a.87.87,0,0,1,.5,1.58c-1.16.82-2.42,2.15-2.37,2.69a1.32,1.32,0,0,0,.67,1l3.91-2.38a.87.87,0,0,1,.91,1.49l-4.3,2.62A.89.89,0,0,1,164.56,230.88Z"/><path class="cwp_cls-5" d="M89.51,216.38s2.76-6.58,3.63-6.43,7.85,8,8.29,9-1,3.05-1,3.05l-2.76-1.45-1.16,4.07H93.76s2.88,2,2.73,3.49a2.34,2.34,0,0,1-1.6,1.89l-4.3-2.62-3.17,5.82-4.67-5.09Z"/><path class="cwp_cls-7" d="M94.89,230.88a.89.89,0,0,1-.45-.13l-4.3-2.62a.87.87,0,0,1,.91-1.49L95,229a1.33,1.33,0,0,0,.67-1c.05-.54-1.21-1.86-2.37-2.69a.87.87,0,0,1,.5-1.58h2.08l1-3.44a.87.87,0,0,1,1.24-.53l2.05,1.08a2.93,2.93,0,0,0,.52-1.56.87.87,0,0,1,1.6-.69c.59,1.36-.7,3.33-1.11,3.9a.88.88,0,0,1-1.11.27l-1.81-1-.87,3a.87.87,0,0,1-.84.63h-.4a3.81,3.81,0,0,1,1.27,2.7,3.16,3.16,0,0,1-2.22,2.64A.92.92,0,0,1,94.89,230.88Z"/><path class="cwp_cls-8" d="M376.54,104c-11.72-12.58-9.66-21.33,3.22-30S376.24,37.08,385,25.17s52.09,6.37,58.39,19.34S436.28,113,436.28,113Z"/><path class="cwp_cls-5" d="M414.13,30.86c-12.28-.79-23.85,6.1-20.64,32,.25,2,0,9.87.43,11.6,2.55,11.25,13.19,18.25,18.12,18.29,7.67,0,15.09-7.8,18.92-19.18a43.1,43.1,0,0,0,2.16-11.33C434.34,46.53,431.06,31.94,414.13,30.86Z"/><path class="cwp_cls-8" d="M427.28,31.78c-7-7.14-22.81-3.34-31.47,1.68S385.26,51.55,385,61.55a62.56,62.56,0,0,0,35.49-19.36A78.42,78.42,0,0,0,433,74.41c.74-6.08,1.49-12.23.86-18.33S431.58,36.15,427.28,31.78Z"/><path class="cwp_cls-4" d="M436.08,196.95s17.56-84.9,12.51-88.86-29.21-9.66-29.21-9.66H401.14s-32.07,1.54-34.27,2.86-4,29.43-4,29.43l1.32,72.41"/><path class="cwp_cls-5" d="M402.37,86.51v15.82c0,3.51,3.6,8.4,3.6,8.4.66,0,7-5.05,7.91-6.15S419.37,89,419.37,89Z"/><polygon class="cwp_cls-4" points="400.01 106.56 399.19 94.07 419.92 95.27 416.09 106.56 405.67 112.97 400.01 106.56"/><path class="cwp_cls-7" d="M415.14,91.51a14.14,14.14,0,0,1-8.87-.86A.88.88,0,1,1,407,89a12.51,12.51,0,0,0,9.54.19.89.89,0,0,1,1.14.49.88.88,0,0,1-.49,1.14A13.76,13.76,0,0,1,415.14,91.51Z"/><path class="cwp_cls-9" d="M408.9,67.54H393.14V57.66H408.9ZM407.17,59h-12.3v7.27h12.3Z"/><path class="cwp_cls-9" d="M412.9,64.15a2.49,2.49,0,0,0-1.79-1.38A3.1,3.1,0,0,0,408.9,64l-1.33-1.1c.07-.08,1.68-1.91,3.65-1.81a4.07,4.07,0,0,1,3.13,2.17Z"/><path class="cwp_cls-9" d="M428.6,67.54H412.84V57.66H428.6ZM426.87,59h-12.3v7.27h12.3Z"/><path class="cwp_cls-10" d="M246.46,101.56s-9.68.39-11.23-5.81a21.06,21.06,0,0,1,0-10.84s-10.45-5.81-8.9-12.58,7-6.65,7-6.65-6.19-8.25-2.71-12.51,13.94-4.72,13.94-4.72-3.48-9.6,0-12.7,12.77,0,12.77,0,3.48-11.35,12-11.67,10.06,4.32,10.06,4.32,3.1-6.7,11.61-4.32S301,32.8,301,32.8s6.19-4.5,11.23,0,3.1,9.53,3.1,9.53,4.26-1.16,7.36,3.48,0,10.84,0,10.84,7.74.21,9.29,5.91-4.26,9.76-4.26,9.76,3.79-3.48,5.57,6.49-8.9,8.42-8.9,8.42,7.19,5.42,3.71,11.61-14.71,5.21-14.71,5.21Z"/><path class="cwp_cls-9" d="M305.16,214.41l9.67-42.57c8.71-8.22,9.19-21.28,9.19-27.09s-2.51-23.7-2.51-23.7-36.19-16.93-44.9-16.93-40.86,16.93-40.86,16.93l-3.65,23.22c-2.9,16.93,10.16,28.06,10.16,28.06l6.38,41.83"/><path class="cwp_cls-9" d="M321.52,121.05c9.11,5,17,33.91,17.62,44.35s-.23,55.92-14.52,57.23-76-8.49-76-8.49L250,199.38l59.83-5.56,4.67-50.18Z"/><path class="cwp_cls-9" d="M235.77,121.05c-13.91,7.4-16.48,48.18-15.8,62.12s-3.81,36.83,7.85,37.54S294,216,294,216l11.24-21.11-52.4-5Z"/><g class="cwp_cls-11"><path class="cwp_cls-12" d="M286.64,147l-.19,0a42.63,42.63,0,0,1-24.08-15.29.87.87,0,1,1,1.38-1.07,40.87,40.87,0,0,0,23.09,14.65.87.87,0,0,1-.19,1.72Z"/></g><g class="cwp_cls-11"><path class="cwp_cls-12" d="M314.51,171.65a.87.87,0,0,1-.74-1.34,35.27,35.27,0,0,0,2.5-32.14.86.86,0,0,1,0-.74c.7-1.35,1.35-2.81,2-4.26s1.34-3,2.05-4.35a.87.87,0,1,1,1.55.8c-.7,1.35-1.35,2.81-2,4.26s-1.22,2.71-1.86,4a37.05,37.05,0,0,1-2.79,33.38A.87.87,0,0,1,314.51,171.65Z"/></g><g class="cwp_cls-11"><path class="cwp_cls-12" d="M241.94,171.65a.87.87,0,0,1-.74-.41,37.05,37.05,0,0,1-2.79-33.38c-.64-1.28-1.25-2.63-1.86-4s-1.31-2.91-2-4.26a.87.87,0,1,1,1.55-.8c.72,1.38,1.38,2.86,2.05,4.35s1.31,2.91,2,4.26a.86.86,0,0,1,0,.74,35.27,35.27,0,0,0,2.5,32.14.87.87,0,0,1-.28,1.2A.86.86,0,0,1,241.94,171.65Z"/></g><path class="cwp_cls-5" d="M268.84,91.55v21.28s10.78,18.22,20.68.43l-.87-21.71Z"/><path class="cwp_cls-5" d="M273.19,41.09c-18.35,2.41-21.29,23.62-16.88,40.37,3.29,12.5,10.78,25.13,22.56,24.83s18.87-16.4,21-26.28C303.24,64.13,302.61,37.24,273.19,41.09Z"/><path class="cwp_cls-5" d="M258.5,76.83s-.71-7-6.38-4.68,1.25,18.18,7.56,16.36S258.5,76.83,258.5,76.83Z"/><path class="cwp_cls-5" d="M296.2,76.48s.2-7.06,6-5.13.06,18.22-6.36,16.86S296.2,76.48,296.2,76.48Z"/><path class="cwp_cls-10" d="M294.47,41.66a13.46,13.46,0,0,0-4.06-.68,3.56,3.56,0,0,0-1.91-1.88c-5.65-2.44-19-2.07-24.92,0s-12.7,10.7-14.24,15.68c-1.64,5.29,0,10.84,1.64,16.13.47,1.52,1.1,3.21,2.83,4,6.29,2.74,16.8-5.53,20.59-8.65A41.86,41.86,0,0,0,287.15,49c-2.08,5.5-.11,26.15,11.3,25.78a3.09,3.09,0,0,0,2.39-1.88c1.83-3.19,3.69-6.49,3.83-10S298.49,43.08,294.47,41.66Z"/><path class="cwp_cls-7" d="M278.95,107.17a15.74,15.74,0,0,1-8-2.13.87.87,0,1,1,.89-1.5,14.46,14.46,0,0,0,15-.49.87.87,0,1,1,1,1.44A15.84,15.84,0,0,1,278.95,107.17Z"/><path class="cwp_cls-13" d="M256.11,197.8a.94.94,0,0,1-.1-1.88L302.88,191l7.59-13.22a.94.94,0,0,1,1.63.94L304,192.81l-47.83,5Z"/><path class="cwp_cls-13" d="M280.18,195.29h-.1l-23.75-2.48-8.07-14.05a.94.94,0,0,1,1.63-.94L257.48,191l22.8,2.38a.94.94,0,0,1-.1,1.88Z"/><path class="cwp_cls-14" d="M344.09,88.32h47.06c31.8,0,57.82,23.38,57.82,52v8.67q-81.16-4.28-162.69-4.61v-4.06C286.28,111.7,312.3,88.32,344.09,88.32Z"/><path class="cwp_cls-14" d="M149.29,87.08h41.94c28.34,0,51.53,23.38,51.53,52v5.32q-72.32.42-145,5.26V139C97.76,110.46,120.94,87.08,149.29,87.08Z"/><path class="cwp_cls-14" d="M245.06,21.08h66.59c3.46,0,6.28,2.54,6.28,5.65V37.45c0,3.1-2.83,5.65-6.28,5.65H245.06c-3.46,0-6.28-2.54-6.28-5.65V26.73C238.78,23.62,241.6,21.08,245.06,21.08Z"/><rect class="cwp_cls-15" x="273.25" y="8.69" width="7.54" height="16.72"/><path class="cwp_cls-10" d="M358.68,43.08c-8.56,40.72-18.07,59.37-18.07,59.37s20.13-1.55,35.9-1.58,37.65,1.58,37.65,1.58-9.8-49.9-8.86-57.48S358.68,43.08,358.68,43.08Z"/><path class="cwp_cls-5" d="M383.08,104.89c-11.6-2.7-9.13-10.63-9.13-10.63s.54-4.48.75-10.15c.05-1.45.09-3,.08-4.52,0-2.35-.1-4.76-.32-7-.95-9.57,21.05-3.87,21.05-3.87s-1.27,19.38,1.76,25.19S394.67,107.59,383.08,104.89Z"/><path class="cwp_cls-5" d="M362.31,96.31s23.39,27,32,33.27c0,0,9.94-9,3.81-32.69C398.17,96.89,386.87,91.24,362.31,96.31Z"/><path class="cwp_cls-5" d="M361.59,31.3s-12.15,23.4-.1,45.58,35.72-9.66,37.25-13.39,9.65-24.86-6.5-31.27S365,24.95,361.59,31.3Z"/><path class="cwp_cls-10" d="M365.63,39.61s-8.36,11-9.35,19.1c0,0-6.07-15.47,3.35-30.21s25.49-13.69,39.18-1.54c7.86,7,12.71,17.94-3.07,43.25C395.73,70.2,367.35,50.48,365.63,39.61Z"/><path class="cwp_cls-16" d="M385,79.21s-2.11,4.61-10.35,8.89c.05-1.18.09-2.42.08-3.67A19.69,19.69,0,0,0,385,79.21Z"/><path class="cwp_cls-6" d="M419.1,160.15a27.8,27.8,0,0,1-4.21,7.5c-5.76,7.68-1.82,52.45,0,63.95A3.14,3.14,0,0,1,413,235l-4.41,1.88a3.76,3.76,0,0,1-5.23-3.73v-.09c3.15-43.67,9.39-112-6.6-136.16h0l.81.39.1.05c8.41,4.08,17.68,9.32,23.24,12.65a12.18,12.18,0,0,1,5.25,6.44c1.86,5.33,5.32,15.24,9.1,26C435.32,142.41,445.9,191.25,419.1,160.15Z"/><path class="cwp_cls-6" d="M339.45,134.37l0,0a191.28,191.28,0,0,1,8.74,23.8l.2.68c2.84,9.61,2.58,20.06,1,31.78-1.16,8.86-7.77,23.33-11.75,30.38a4.78,4.78,0,0,0,.16,3.68h0a2.65,2.65,0,0,0,1.31,1.53l14.42,5.34,3.39,1.25a7.39,7.39,0,0,0,9.88-6c3.21-24.66,7.26-49.85,10.49-59.34,14.18-41.64-5.54-72.93-5.54-72.93S348.55,97.28,344.06,99c-5.12.79-17.82,13.12-24.56,25.56,0,0-11,33.07,1.3,39.56s19.62,5.78,21.15,3"/><circle class="cwp_cls-17" cx="340.61" cy="153.58" r="15.23"/><circle class="cwp_cls-17" cx="421.55" cy="154.44" r="15.23"/><path class="cwp_cls-18" d="M426.35,157.61a43,43,0,1,1-43-43A43,43,0,0,1,426.35,157.61Zm-43-33.15a33.15,33.15,0,1,0,33.15,33.15A33.15,33.15,0,0,0,383.34,124.45Z"/><rect class="cwp_cls-5" x="337.07" y="143.2" width="22.43" height="4.32" rx="1.66" ry="1.66" transform="translate(61.43 -99.88) rotate(17.87)"/><rect class="cwp_cls-5" x="335.74" y="147.31" width="22.43" height="4.32" rx="1.66" ry="1.66" transform="translate(62.63 -99.28) rotate(17.87)"/><rect class="cwp_cls-5" x="334.42" y="151.42" width="22.43" height="4.32" rx="1.66" ry="1.66" transform="translate(63.82 -98.67) rotate(17.87)"/><rect class="cwp_cls-5" x="332.81" y="155.44" width="22.43" height="4.32" rx="1.66" ry="1.66" transform="translate(64.98 -97.99) rotate(17.87)"/><rect class="cwp_cls-5" x="331.49" y="159.56" width="22.43" height="4.32" rx="1.66" ry="1.66" transform="translate(66.18 -97.38) rotate(17.87)"/><rect class="cwp_cls-5" x="406.08" y="144.06" width="22.43" height="4.32" rx="1.66" ry="1.66" transform="translate(859.33 157.29) rotate(162.13)"/><rect class="cwp_cls-5" x="407.41" y="148.17" width="22.43" height="4.32" rx="1.66" ry="1.66" transform="translate(863.18 164.91) rotate(162.13)"/><rect class="cwp_cls-5" x="408.73" y="152.28" width="22.43" height="4.32" rx="1.66" ry="1.66" transform="translate(867.03 172.53) rotate(162.13)"/><rect class="cwp_cls-5" x="410.33" y="156.3" width="22.43" height="4.32" rx="1.66" ry="1.66" transform="translate(871.39 179.89) rotate(162.13)"/><rect class="cwp_cls-5" x="411.66" y="160.41" width="22.43" height="4.32" rx="1.66" ry="1.66" transform="matrix(-0.95, 0.31, -0.31, -0.95, 875.24, 187.5)"/><path class="cwp_cls-19" d="M75,150.72s128.78-6.77,202.36-6.41,208.79,6.41,208.79,6.41"/><path class="cwp_cls-5" d="M219.66,144.77s35,51.11,31.36,55.85c-5,6.63-48.73,24.7-48.73,24.7l7.26,15s77.12-19,71.18-41.3-36-72.39-36-72.39Z"/><path class="cwp_cls-5" d="M206,243.36s8.47-6.74,9.32-10.83-10.08-8.15-10.08-8.15l-7.53,2.34Z"/><path class="cwp_cls-5" d="M203.19,227s-10.18-3.72-11.75-4.23-6,1.12-10.18,4.17a84.1,84.1,0,0,0-9.62,8c-.59.68-1.28,1.06-.23,3.37a10.23,10.23,0,0,0,3.06,3.72s.12,3.43,2.7,5a5.52,5.52,0,0,0,3.4,4.47s.32,3.15,2.66,3.85a30.54,30.54,0,0,1,5.93-1.46c1.73,0,10.24-3.69,17.81-8.64C207,245.27,212.52,237.81,203.19,227Z"/><path class="cwp_cls-5" d="M191,223.82s-5.76,6.77-7.27,11.85c-.34,1.15-.47,2.32.47,3.07s3.21.35,5.86-2.46a32.47,32.47,0,0,1,7.34-5.22S199.31,227.38,191,223.82Z"/><path class="cwp_cls-5" d="M173.22,240.88s12-7,13.43-7-1.07-4.44-2.29-4.4-11.92,5.13-12.91,5.78S169.79,239.72,173.22,240.88Z"/><path class="cwp_cls-5" d="M176.45,232.49S155,244.28,155.85,246c1.2,2.44,7.17,1.71,23.13-8.2C194.51,228.12,176.45,232.49,176.45,232.49Z"/><path class="cwp_cls-20" d="M222.54,297.18"/><path class="cwp_cls-8" d="M109.9,288.3l112.63,8.88s-.63-55.51-1.91-64.94-1.56-46.75,1.3-72.13c.64-5.72,8.2-1.67,8.2-1.67l5.12-11.06,10.49-19.67c-6.1-7.42-38.3-25-54.76-28.73-14.59-3.34-18.91-2.85-28.36-2.58-24.8.7-62.65,27.11-63.93,33.51,0,0-2.22,4.78-1.26,6.8.81,1.7,19.83,14.64,24.42,13.7a27.13,27.13,0,0,1,0,5C121.63,158.46,107.62,266.34,109.9,288.3Z"/><g class="cwp_cls-11"><path class="cwp_cls-12" d="M129.22,265.91a.67.67,0,0,1-.59-.39.78.78,0,0,1,.27-1,108,108,0,0,0,33.27-31.05.64.64,0,0,1,.95-.13.79.79,0,0,1,.12,1,109.5,109.5,0,0,1-33.7,31.45A.64.64,0,0,1,129.22,265.91Z"/></g><g class="cwp_cls-11"><path class="cwp_cls-12" d="M164.61,286a.61.61,0,0,1-.41-.17.91.91,0,0,1-.12-1.13c8.66-13.29,14.85-24.49,18.94-39.21a.65.65,0,0,1,.85-.51.85.85,0,0,1,.43,1c-4.15,14.94-10.4,26.26-19.15,39.69A.64.64,0,0,1,164.61,286Z"/></g><g class="cwp_cls-11"><path class="cwp_cls-12" d="M194.43,274.62h-.07a.86.86,0,0,1-.8-.93c1.15-15.42,2.54-30.18,3.89-44.44,1-10.69,2-21.74,3-33.19,1.15-13.81,1.38-40.08-5.09-51a.86.86,0,1,1,1.49-.88c6.69,11.27,6.49,38,5.32,52-1,11.46-2,22.51-3,33.21-1.34,14.26-2.73,29-3.88,44.41A.87.87,0,0,1,194.43,274.62Z"/></g><g class="cwp_cls-11"><path class="cwp_cls-12" d="M173.47,113.69c-.55,0-1.1,0-1.65,0a28.64,28.64,0,0,1-18.52-8.46.92.92,0,1,1,1.31-1.28A26.45,26.45,0,0,0,190.07,106a.92.92,0,0,1,1.15,1.43A28.64,28.64,0,0,1,173.47,113.69Z"/></g><path class="cwp_cls-5" d="M155.83,76.61V98s17.31,18.35,33.21.43l-1.39-21.85Z"/><path class="cwp_cls-5" d="M168.47,27c-18.53,2-19.52,22.92-17.83,40.29s10.27,28.25,22.13,28.19,19.46-12.53,21.73-28.73S198.17,23.7,168.47,27Z"/><path class="cwp_cls-5" d="M154,62.64s-.57-7.09-6.32-4.85.87,18.32,7.26,16.62S154,62.64,154,62.64Z"/><path class="cwp_cls-5" d="M190.5,64.71s.35-7.1,6.17-5-.32,18.34-6.76,16.84S190.5,64.71,190.5,64.71Z"/><polygon class="cwp_cls-21" points="165.36 180.1 170.75 156.15 193.55 160.6 180.43 205.09 160.57 198.59 165.36 180.1"/><path class="cwp_cls-5" d="M167.88,208.51s-12.78,2.74-15.52,0-.81-15.4-.81-15.4,6.28-7.87,6.62-11,5.48-10.61,7.19-9.87,0,7.82,0,7.82L190,177c5.48-.68,3.08,2.74,2.74,4.45s-6.6,3.76-6.6,3.76,2.84,4.64,2.15,5.75-2.15,3.5-2.15,3.5S189,200,187.95,201s-4,1.37-4,1.37-.82,3.8-1.51,4.3S167.88,208.51,167.88,208.51Z"/><path class="cwp_cls-6" d="M163.18,70.92a7.92,7.92,0,1,1,7.26-8.53A7.93,7.93,0,0,1,163.18,70.92Zm-1.12-14a6.09,6.09,0,1,0,6.55,5.58A6.1,6.1,0,0,0,162.06,57Z"/><path class="cwp_cls-6" d="M183,71.09a7.92,7.92,0,1,1,7.26-8.53A7.93,7.93,0,0,1,183,71.09Zm-1.12-14a6.09,6.09,0,1,0,6.55,5.58A6.09,6.09,0,0,0,181.84,57.12Z"/><path class="cwp_cls-6" d="M174.49,63.25a2.65,2.65,0,0,0-1.9-1.47A3.3,3.3,0,0,0,170.24,63l-1.42-1.17c.07-.08,1.79-2,3.88-1.93A4.33,4.33,0,0,1,176,62.26Z"/><path class="cwp_cls-7" d="M172.28,96.38c-.43,0-.86,0-1.29-.05a19,19,0,0,1-13.54-7.25.92.92,0,0,1,1.43-1.15,17.19,17.19,0,0,0,12.25,6.57c5,.35,9.58-1.62,13.54-5.94A.92.92,0,0,1,186,89.8C182.06,94.12,177.33,96.38,172.28,96.38Z"/><path class="cwp_cls-8" d="M147.33,56.47l3.62,5.81h3.84v-10s4.84-4.91,5.36-10.51l29,2.07s-.93,7.16,1.37,10v11.5h3.58l3.27-3.1s7-25.52,4.19-31.91-8.74-4.09-8.74-4.09S183.3,15,169.93,18.83s-24.1,12-26.14,17.63S147.33,56.47,147.33,56.47Z"/><path class="cwp_cls-5" d="M97.82,137.18s-8.09,64.37-8.09,71c0,13.36,15.95,18.35,24.75,17.36,8-.9,39.48-9.74,46.43-15.53s-3-20.29-3-20.29-32.4,13.47-39,12.13,2.89-51.44,2.89-51.44S105.45,144.08,97.82,137.18Z"/><path class="cwp_cls-22" d="M280.44,0C469,0,450.9,3.18,502.83,158.07c72.35,46.14,41.23,102.47,46.49,177.26A2568.23,2568.23,0,0,1,131,345.08q-59.72-3.48-119.47-9.75C16.81,260.54-14.31,204.2,58,158.07,110,3.18,91.88,0,280.44,0Zm-142,20.21C96.54,37.85,78.35,119,75,150.72c137.92-9.42,274.9-8.64,411.15,0C482.8,119,464.62,37.85,422.7,20.21,405.28,12.87,342.82,8.64,280.58,8.29,218.34,8.64,155.88,12.87,138.45,20.21Z"/><path class="cwp_cls-23" d="M513.12,127.41h22.31c10.35,0,18.82,7.21,18.82,16v5.47c0,8.81-8.47,16-18.82,16H513.12c-10.35,0-18.82-7.21-18.82-16v-5.47C494.3,134.62,502.77,127.41,513.12,127.41Z"/><path class="cwp_cls-23" d="M25.44,127.41H47.75c10.35,0,18.82,7.21,18.82,16v5.47c0,8.81-8.47,16-18.82,16H25.44c-10.35,0-18.82-7.21-18.82-16v-5.47C6.61,134.62,15.08,127.41,25.44,127.41Z"/><path class="cwp_cls-24" d="M57,163.63q-1,3-2.08,6.07s18.84-8,49,6.95,49,57.77,55.29,84.51,10.05,51.2,10.05,51.2H385.43s3.77-24.46,10.05-51.2,25.13-69.54,55.29-84.51,49-6.95,49-6.95c-.72-2-1.4-4.05-2.08-6.07-5.37-.12-10.64-.38-14.88-.89-7.45-.89-106.47-.9-205.43-.69-99-.21-198-.2-205.43.69C67.69,163.24,62.42,163.51,57,163.63Z"/><path class="cwp_cls-2" d="M19.15,312.36H535.58c10.53,0,19.15,7.34,19.15,16.31v25.15c0,9-8.62,16.31-19.15,16.31H19.15C8.62,370.13,0,362.79,0,353.82V328.67C0,319.7,8.62,312.36,19.15,312.36Z"/><path class="cwp_cls-23" d="M75.7,274.53c29.41,0,53.4-20.42,53.4-45.47s-24-45.47-53.4-45.47S22.3,204,22.3,229.07,46.29,274.53,75.7,274.53Z"/><path class="cwp_cls-23" d="M482.8,274.53c29.41,0,53.4-20.42,53.4-45.47s-24-45.47-53.4-45.47S429.4,204,429.4,229.07,453.38,274.53,482.8,274.53Z"/><path class="cwp_cls-24" d="M75.7,261.7C96.81,261.7,114,247,114,229.07S96.81,196.44,75.7,196.44s-38.32,14.66-38.32,32.63S54.59,261.7,75.7,261.7Z"/><path class="cwp_cls-24" d="M482.8,261.7c21.11,0,38.32-14.66,38.32-32.63s-17.22-32.63-38.32-32.63-38.32,14.66-38.32,32.63S461.69,261.7,482.8,261.7Z"/><path class="cwp_cls-25" d="M42.76,337.22H83.6a3.24,3.24,0,0,1,3.45,2.94V351.4a3.24,3.24,0,0,1-3.45,2.94H42.76a3.24,3.24,0,0,1-3.46-2.94V340.17A3.24,3.24,0,0,1,42.76,337.22Z"/><path class="cwp_cls-25" d="M471.13,337.22H512a3.24,3.24,0,0,1,3.46,2.94V351.4a3.24,3.24,0,0,1-3.46,2.94H471.13a3.24,3.24,0,0,1-3.45-2.94V340.17A3.24,3.24,0,0,1,471.13,337.22Z"/><path class="cwp_cls-13" d="M311.27,294.42H233.34a12.09,12.09,0,0,1,0-24.17h77.93a12.09,12.09,0,0,1,0,24.17Zm-77.93-17.28c-2.57,0-5,2.61-5,5.37a5.34,5.34,0,0,0,5,5h77.93a5.08,5.08,0,0,0,5-5,5.21,5.21,0,0,0-5-5.37Z"/></g></g></svg>
