<svg clip-rule="evenodd" fill-rule="evenodd" stroke-linejoin="round" stroke-miterlimit="1.414" version="1.1"
     viewBox="0 0 300 40" xmlns="http://www.w3.org/2000/svg">
  <defs>
    <clipPath id="a">
      <path d="m0 0h245.81v130h-245.81z"/>
    </clipPath>
  </defs>
  <g transform="translate(62.307 -.38225)" fill="#373c42" fill-rule="nonzero">
    <g transform="matrix(.30351 0 0 .30351 -43.367 .023805)">
      <g transform="matrix(3.2563 0 0 3.2563 554.37 4.4625)">
        <path
          d="m0 25.052v-12.268h2.343v3.916c0.46-0.427 0.92-0.731 1.383-0.912 0.462-0.181 1.012-0.272 1.649-0.272 0.931 0 1.772 0.211 2.524 0.633a4.562 4.562 0 0 1 1.766 1.747c0.425 0.743 0.638 1.574 0.638 2.493 0 1.249-0.382 2.338-1.146 3.268-0.896 1.076-2.102 1.614-3.618 1.614-0.724 0-1.344-0.106-1.861-0.316-0.517-0.211-1.028-0.571-1.533-1.079v1.176zm5.005-7.509c-0.816 0-1.486 0.271-2.012 0.811-0.525 0.541-0.788 1.23-0.788 2.068 0 0.827 0.27 1.504 0.81 2.031s1.232 0.791 2.076 0.791c0.839 0 1.522-0.261 2.05-0.783 0.529-0.521 0.793-1.201 0.793-2.039 0-0.849-0.272-1.541-0.814-2.076-0.543-0.535-1.248-0.803-2.115-0.803zm17.267 3.892h-7.572c0.143 0.557 0.456 0.998 0.939 1.322 0.482 0.324 1.071 0.487 1.765 0.487 0.483 0 0.885-0.069 1.206-0.207 0.322-0.138 0.635-0.374 0.939-0.71h2.559c-0.138 0.417-0.396 0.844-0.775 1.282-1.011 1.108-2.303 1.662-3.877 1.662a5.84 5.84 0 0 1-2.085-0.373 5.255 5.255 0 0 1-1.684-1.01 4.71 4.71 0 0 1-1.115-1.524 4.39 4.39 0 0 1-0.414-1.877c0-0.887 0.229-1.702 0.685-2.445a4.908 4.908 0 0 1 1.869-1.76 5.356 5.356 0 0 1 2.598-0.644c0.959 0 1.823 0.212 2.593 0.636a4.612 4.612 0 0 1 1.804 1.768c0.434 0.754 0.651 1.601 0.651 2.542 0 0.303-0.029 0.587-0.086 0.851zm-7.641-1.946h5.418c-0.149-0.589-0.456-1.04-0.922-1.354-0.465-0.313-1.059-0.47-1.783-0.47-0.7 0-1.282 0.155-1.744 0.466-0.463 0.311-0.786 0.764-0.969 1.358zm10.323 5.563v-7.192h-1.146v-2.011h1.146v-3.065h2.343v3.065h1.413v2.011h-1.413v7.192zm15.604-9.203v9.203h-2.145v-1.192c-0.471 0.503-0.957 0.863-1.46 1.082-0.502 0.219-1.098 0.329-1.787 0.329-0.942 0-1.788-0.204-2.537-0.612a4.448 4.448 0 0 1-1.758-1.707c-0.422-0.73-0.633-1.552-0.633-2.465 0-0.925 0.213-1.756 0.638-2.494a4.516 4.516 0 0 1 1.774-1.731c0.758-0.416 1.614-0.624 2.567-0.624 0.707 0 1.315 0.115 1.827 0.344 0.511 0.23 0.967 0.596 1.369 1.099v-1.232zm-5.134 1.816c-0.815 0-1.489 0.27-2.02 0.811-0.531 0.54-0.797 1.227-0.797 2.059 0 0.806 0.269 1.459 0.806 1.959s1.233 0.75 2.089 0.75c0.85 0 1.534-0.254 2.054-0.763 0.52-0.508 0.78-1.173 0.78-1.994 0-0.833-0.272-1.511-0.814-2.035-0.543-0.525-1.242-0.787-2.098-0.787zm9.178 5.726a0.958 0.958 0 0 0-0.971 0.947c0 0.481 0.442 0.897 0.953 0.897 0.547 0 1.006-0.399 1.006-0.897 0-0.515-0.459-0.947-0.988-0.947zm11.59-7.542h2.239v7.46c0 0.913-0.084 1.671-0.254 2.274a3.857 3.857 0 0 1-0.822 1.545c-0.931 1.065-2.26 1.597-3.989 1.597-1.194 0-2.231-0.257-3.11-0.77a4.496 4.496 0 0 1-1.912-2.157h2.662c0.344 0.357 0.703 0.609 1.077 0.758 0.373 0.149 0.832 0.223 1.378 0.223 0.873 0 1.536-0.243 1.99-0.73 0.453-0.486 0.7-1.224 0.741-2.213-0.46 0.508-0.938 0.874-1.435 1.098-0.496 0.225-1.089 0.337-1.779 0.337-0.918 0-1.744-0.208-2.476-0.625a4.394 4.394 0 0 1-1.71-1.739c-0.408-0.743-0.612-1.582-0.612-2.518 0-1.362 0.457-2.494 1.37-3.397s2.062-1.354 3.446-1.354c1.401 0 2.466 0.459 3.196 1.378zm-2.964 1.816c-0.804 0-1.451 0.258-1.942 0.774-0.491 0.517-0.737 1.199-0.737 2.048 0 0.838 0.249 1.507 0.745 2.007 0.497 0.5 1.165 0.75 2.003 0.75 0.85 0 1.528-0.253 2.033-0.759 0.506-0.505 0.758-1.182 0.758-2.031 0-0.832-0.263-1.505-0.788-2.019-0.525-0.513-1.216-0.77-2.072-0.77zm12.77-2.027c0.931 0 1.792 0.216 2.584 0.649a4.942 4.942 0 0 1 1.878 1.763c0.46 0.743 0.69 1.55 0.69 2.421 0 0.864-0.232 1.666-0.694 2.404a4.951 4.951 0 0 1-1.891 1.751 5.397 5.397 0 0 1-2.601 0.645 5.443 5.443 0 0 1-2.615-0.645 4.981 4.981 0 0 1-1.899-1.751 4.427 4.427 0 0 1-0.698-2.404c0-0.66 0.136-1.288 0.409-1.886a4.735 4.735 0 0 1 1.111-1.54 5.317 5.317 0 0 1 1.676-1.026 5.573 5.573 0 0 1 2.05-0.381zm-0.095 2.027c-0.758 0-1.411 0.274-1.959 0.823-0.549 0.549-0.823 1.204-0.823 1.966 0 0.768 0.276 1.425 0.827 1.971a2.726 2.726 0 0 0 1.99 0.819c0.781 0 1.45-0.272 2.007-0.815 0.557-0.544 0.836-1.196 0.836-1.958 0-0.79-0.279-1.455-0.836-1.995-0.557-0.541-1.238-0.811-2.042-0.811zm16.225-1.816v9.203h-2.171v-0.884c-0.448 0.405-0.88 0.691-1.297 0.855-0.416 0.165-0.917 0.248-1.503 0.248-0.66 0-1.252-0.126-1.774-0.377a3.201 3.201 0 0 1-1.267-1.075 3.651 3.651 0 0 1-0.534-1.232c-0.103-0.449-0.155-1.049-0.155-1.8v-4.938h2.352v4.5c0 0.638 0.037 1.136 0.112 1.496 0.075 0.359 0.201 0.642 0.379 0.847 0.339 0.368 0.792 0.552 1.361 0.552 0.408 0 0.771-0.077 1.09-0.231 0.318-0.155 0.561-0.372 0.728-0.653 0.126-0.206 0.214-0.472 0.262-0.799 0.049-0.327 0.074-0.785 0.074-1.374v-4.338zm5.818 9.203-3.937-9.203h2.61l2.257 6.097 2.223-6.097h2.653l-3.937 9.203zm7.042-1.66c-0.498 0-0.913 0.415-0.913 0.946 0 0.481 0.415 0.896 0.896 0.896 0.515 0 0.946-0.398 0.946-0.896 0-0.515-0.431-0.946-0.929-0.946z"/>
        <path
          d="m98.103 16.537h1.927l-1.949 9.023c-0.508 2.33-1.207 3.495-2.118 3.495-0.254 0-0.423-0.148-0.423-0.36 0-0.063 0.021-0.106 0.084-0.212a0.63 0.63 0 0 0 0.106-0.36 0.832 0.832 0 0 0-0.847-0.826c-0.445 0-0.784 0.403-0.784 0.911 0 0.72 0.742 1.292 1.674 1.292 1.927 0 3.431-2.118 4.363-6.079l1.589-6.884h2.351l0.127-0.678h-2.309c0.635-3.389 1.462-4.893 2.648-4.893 0.296 0 0.466 0.106 0.466 0.275 0 0.043-0.021 0.106-0.085 0.212a0.72 0.72 0 0 0-0.127 0.445c0 0.508 0.318 0.847 0.784 0.847 0.487 0 0.91-0.402 0.91-0.868 0-0.784-0.783-1.377-1.842-1.377-1.038 0-1.886 0.466-2.669 1.462-0.636 0.847-1.081 1.821-1.737 3.897h-1.991zm7.477 8.515c1.165-3.707 1.525-4.575 2.499-6.206 0.741-1.208 1.335-1.864 1.695-1.864 0.148 0 0.254 0.084 0.36 0.296 0.169 0.36 0.339 0.466 0.762 0.466 0.636 0 0.996-0.381 0.996-1.059s-0.403-1.101-0.996-1.101c-0.487 0-1.08 0.317-1.631 0.91-0.889 0.89-1.779 2.182-2.118 3.008l-0.318 0.784 1.187-4.66-0.064-0.042c-1.546 0.275-1.779 0.317-3.326 0.572v0.36c0.466-0.085 0.551-0.106 0.721-0.106 0.466 0 0.741 0.212 0.741 0.593 0 0.275-0.169 1.144-0.339 1.779l-1.8 6.27z"/>
        <g fill="#333" aria-label="covoiturage. ">
          <path
            d="m-91.344 22.466t1.3438 0q-0.375 0.71094-0.6875 1.1172-0.3125 0.39844-0.75 0.72656-1.2031 0.94531-2.8516 0.94531-1.3281 0-2.4219-0.60156-1.0938-0.60938-1.7188-1.6641-0.625-1.0625-0.625-2.3438 0-1.2578 0.61719-2.3047 0.625-1.0469 1.7031-1.6484 1.0781-0.60938 2.3672-0.60938 1.4844 0 2.6484 0.77344 1.1719 0.77344 1.7031 2.0938h-1.3281q-0.50781-0.85938-1.2891-1.3203-0.78125-0.46094-1.75-0.46094-1.4609 0-2.4688 1.0156-1 1.0156-1 2.4922 0 1.4609 1.0156 2.4766 1.0234 1.0078 2.5 1.0078 0.9375 0 1.6172-0.39062 0.6875-0.39062 1.375-1.3047z"/>
          <path
            d="m-84.071 16.083q1.2734 0 2.2969 0.60156 1.0312 0.59375 1.6094 1.6484 0.58594 1.0547 0.58594 2.3594 0 1.9688-1.2656 3.2656t-3.1953 1.2969q-1.3203 0-2.3906-0.59375-1.0703-0.59375-1.6797-1.6406-0.60156-1.0469-0.60156-2.3438 0-1.9922 1.3125-3.2891 1.3125-1.3047 3.3281-1.3047zm-0.09375 1.0859q-1.4375 0-2.3906 1.0078-0.95312 1-0.95312 2.5156 0 1.5 0.97656 2.4844 0.97656 0.98438 2.4609 0.98438 1.4453 0 2.3672-0.96875 0.92969-0.97656 0.92969-2.4844 0-1.5469-0.95312-2.5391-0.95312-1-2.4375-1z"/>
          <path
            d="m-75.485 25.044t-3.6797-8.75q0 0 1.2031 0 0 0 3.0703 7.3594 0 0 3.1406-7.3594 0 0 1.1953 0 0 0-3.6797 8.75 0 0-1.25 0z"/>
          <path
            d="m-65.477 16.083q1.2734 0 2.2969 0.60156 1.0312 0.59375 1.6094 1.6484 0.58594 1.0547 0.58594 2.3594 0 1.9688-1.2656 3.2656t-3.1953 1.2969q-1.3203 0-2.3906-0.59375-1.0703-0.59375-1.6797-1.6406-0.60156-1.0469-0.60156-2.3438 0-1.9922 1.3125-3.2891 1.3125-1.3047 3.3281-1.3047zm-0.09375 1.0859q-1.4375 0-2.3906 1.0078-0.95312 1-0.95312 2.5156 0 1.5 0.97656 2.4844 0.97656 0.98438 2.4609 0.98438 1.4453 0 2.3672-0.96875 0.92969-0.97656 0.92969-2.4844 0-1.5469-0.95312-2.5391-0.95312-1-2.4375-1z"/>
          <path
            d="m-59.313 25.044t0-8.75q0 0 1.1875 0 0 0 0 8.75 0 0-1.1875 0zm0-9.8047t0-2.0156q0 0 1.1875 0 0 0 0 2.0156 0 0-1.1875 0z"/>
          <path
            d="m-55.055 25.044t0-7.6797q0 0-1.8828 0 0 0 0-1.0703 0 0 1.8828 0 0 0 0-3.0703 0 0 1.1875 0 0 0 0 3.0703 0 0 1.9688 0 0 0 0 1.0703 0 0-1.9688 0 0 0 0 7.6797 0 0-1.1875 0z"/>
          <path
            d="m-42.977 16.294t0 8.75q0 0-1.1797 0 0 0 0-1.3594-0.44531 0.8125-1.125 1.1953-0.67969 0.375-1.6953 0.375t-1.8047-0.375q-0.78125-0.38281-1.2656-1.1016-0.64062-0.92188-0.64062-2.7656v-4.7188t1.1875 0q0 0 0 4.7188 0 1.4375 0.44531 2.1094 0.3125 0.49219 0.875 0.76562 0.57031 0.27344 1.2812 0.27344 0.69531 0 1.2656-0.28125 0.57812-0.28125 0.94531-0.80469 0.53125-0.78906 0.53125-2.2891v-4.4922z"/>
          <path
            d="m-40.969 25.044t0-8.75q0 0 1.1875 0 0 0 0 1.2422 0.34375-0.71875 0.92969-1.0625 0.59375-0.34375 1.5469-0.39062v1.1719q-2.4766 0.23438-2.4766 2.6875 0 0 0 5.1016 0 0-1.1875 0z"/>
          <path
            d="m-27.68 16.294t0 8.75q0 0-1.1875 0 0 0 0-1.5391-0.69531 0.9375-1.4766 1.3438-0.77344 0.40625-1.8828 0.40625-1.3359 0-2.4141-0.58594-1.0703-0.59375-1.6797-1.6328-0.60938-1.0469-0.60938-2.3438t0.60156-2.3516q0.60156-1.0547 1.6562-1.6562 1.0547-0.60156 2.3516-0.60156 1.1484 0 1.9688 0.42188 0.82812 0.41406 1.4844 1.3359v-1.5469zm-4.6562 0.875q-1.4062 0-2.3984 1.0156-0.99219 1.0156-0.99219 2.4609 0 1.4766 1.0156 2.5 1.0156 1.0156 2.4688 1.0156 1.4297 0 2.3984-1.0078 0.97656-1.0156 0.97656-2.5078 0-1.4922-0.99219-2.4844-0.99219-0.99219-2.4766-0.99219z"/>
          <path
            d="m-16.907 16.294t0 7.1797q0 1.2891-0.1875 2.0703-0.17969 0.78125-0.625 1.375-0.5625 0.75-1.4844 1.1562t-2.0703 0.40625q-1.6562 0-2.7891-0.8125-1.125-0.8125-1.6094-2.3516h1.1484q0.28906 0.51562 0.46875 0.77344 0.1875 0.25781 0.42969 0.47656 0.92188 0.82812 2.3203 0.82812 1.0234 0 1.7734-0.41406 0.75-0.41406 1.0938-1.1719 0.35156-0.74219 0.35156-1.9531v-0.58594q-0.51562 1.0078-1.3359 1.5-0.82031 0.48438-2.0078 0.48438-0.95312 0-1.8047-0.35156-0.84375-0.35156-1.4531-0.95312-0.60156-0.60938-0.95312-1.4531-0.35156-0.84375-0.35156-1.7891 0-1.3125 0.57812-2.3672 0.57812-1.0625 1.5938-1.6562 1.0234-0.60156 2.2891-0.60156 1.1172 0 1.9531 0.42188 0.83594 0.42188 1.4922 1.3359v-1.5469zm-4.6406 0.875q-1.3828 0-2.3125 0.99219-0.92969 0.98438-0.92969 2.4531 0 1.5234 0.95312 2.5391 0.96094 1.0078 2.4062 1.0078 1.4297 0 2.3828-1.0234 0.96094-1.0312 0.96094-2.5547 0-1.4766-0.98438-2.4453t-2.4766-0.96875z"/>
          <path
            d="m-5.9848 21.06t-7.9141 0q0.07031 1.2969 1.0625 2.2031 0.99219 0.89844 2.3438 0.89844 1 0 1.8437-0.54688 0.84375-0.55469 1.2109-1.4531h1.2344q-0.48438 1.3828-1.6562 2.2422-1.1719 0.85156-2.6016 0.85156-0.95312 0-1.8125-0.35938t-1.4766-0.97656q-0.61719-0.61719-0.97656-1.4766t-0.35938-1.8125q0-1.25 0.60156-2.2969 0.60156-1.0469 1.6406-1.6484 1.0391-0.60156 2.2891-0.60156 1.2969 0 2.3828 0.64062 1.0938 0.64062 1.6641 1.7422 0.28906 0.55469 0.40625 1.1406 0.11719 0.57812 0.11719 1.4531zm-7.8828-1.0703h6.7031q-0.29688-1.3047-1.2109-2.0625-0.90625-0.75781-2.1797-0.75781-1.2422 0-2.1562 0.78125-0.91406 0.77344-1.1562 2.0391z"/>
          <path d="m-3.7348 25.044t0-2.0156q0 0 1.1797 0 0 0 0 2.0156 0 0-1.1797 0z"/>
        </g>
      </g>
      <g transform="translate(-62.265,1.4062)" clip-path="url(#a)" fill-rule="nonzero">
        <path d="m0 0h244.56v74.613h-244.56z" fill="#fff"/>
        <path
          d="m195.29 129.92c-0.134-0.049-0.143-0.183-0.029-0.475 0.142-0.371 0.21-0.401 0.762-0.335 0.498 0.062 0.646 0.019 0.848-0.252 0.404-0.517 0.094-0.891-0.646-0.768-0.566 0.095-0.566 0.089-0.458-0.298 0.337-1.232 0.364-1.163-0.646-1.346a6.175 6.175 0 0 1-3.273-1.728c-1.346-1.346-1.804-2.707-1.67-4.896 0.068-1.114 0.162-1.549 0.553-2.325 1.185-2.372 3.905-3.58 7.568-3.365 0.794 0.047 1.791 0.17 2.235 0.271l0.794 0.183 0.081 2.639h-0.485c-0.282 0-0.484-0.079-0.484-0.183 0-0.379-0.983-1.241-1.67-1.476-0.889-0.314-2.613-0.236-3.488 0.143-1.979 0.863-2.882 3.097-2.276 5.658 0.283 1.175 0.741 1.972 1.616 2.795 0.835 0.771 1.684 1.085 2.949 1.085 1.334 0 2.263-0.484 2.855-1.49 0.404-0.679 0.539-0.77 0.929-0.548 0.175 0.104 0.175 0.339 0.014 1.424l-0.202 1.306-0.727 0.222c-0.404 0.118-1.32 0.262-2.034 0.314-1.252 0.078-1.319 0.105-1.319 0.418 0 0.248 0.094 0.34 0.363 0.34 0.525 0 1.024 0.366 1.145 0.849 0.134 0.562-0.31 1.385-0.889 1.659-0.417 0.196-2.06 0.275-2.478 0.118zm-94.605-0.603c-1.373-0.366-2.558-0.919-3.986-1.856l-1.225-0.812-1.899-0.089c-2.114-0.098-2.854-0.311-4.215-1.218-3.016-1.996-3.124-7.079-0.202-9.55 2.209-1.865 6.074-2.248 8.848-0.882 3.757 1.844 4.161 7.286 0.74 10.138-0.525 0.442-1.037 0.804-1.144 0.804-0.323 0 3.42 1.846 4.511 2.224 1.212 0.418 2.612 0.473 3.649 0.143 0.754-0.239 0.889-0.209 1.01 0.225 0.081 0.255-0.054 0.362-0.808 0.679-1.198 0.502-3.703 0.595-5.211 0.194zm-4.659-4.435c2.666-1.254 3.178-5.274 0.997-7.841-2.02-2.378-5.562-2.019-6.895 0.701-1.198 2.456 0.175 6.256 2.626 7.262 0.996 0.405 2.262 0.361 3.286-0.122zm-83.572 1.487c-0.727-0.287-1.53-1.182-2.795-3.122-1.946-2.985-2.311-3.424-2.855-3.424h-0.472l4e-3 1.617c7e-3 2.946 0.337 3.953 1.365 4.187 0.274 0.062 0.382 0.186 0.382 0.442v0.356h-6.518v-0.326c0-0.248 0.122-0.366 0.499-0.471 0.276-0.065 0.651-0.313 0.835-0.535 0.327-0.392 0.334-0.536 0.334-5.971s-7e-3 -5.579-0.334-5.971c-0.184-0.222-0.559-0.457-0.835-0.536-0.364-0.091-0.499-0.209-0.499-0.444 0-0.313 0.017-0.313 4.038-0.405 4.279-0.091 5.222-0.026 6.428 0.51 1.053 0.457 1.933 1.855 1.934 3.07 3e-3 1.398-1.145 2.966-2.66 3.645l-0.794 0.353 1.755 2.365c2.06 2.796 2.706 3.541 3.312 3.828 0.566 0.261 0.62 0.849 0.095 0.967-0.647 0.157-2.734 0.091-3.219-0.105zm-3.976-7.996c2.131-0.535 2.85-3.206 1.238-4.599-0.759-0.653-1.564-0.892-2.593-0.764l-0.781 0.098v5.425h0.754c0.417 0 1.05-0.072 1.387-0.16zm36.635 7.996c-0.871-0.279-1.692-0.78-2.127-1.293-0.791-0.937-0.875-1.428-0.884-5.233-0.01-3.977-0.094-4.416-0.902-4.753-0.323-0.136-0.514-0.32-0.517-0.503-3e-3 -0.274 0.102-0.288 2.7-0.288 2.697 0 2.704 0 2.704 0.324 0 0.217-0.094 0.323-0.291 0.323-0.159 0-0.463 0.167-0.676 0.37l-0.385 0.371v3.899c0 3.668 0.019 3.932 0.33 4.465 0.485 0.837 1.454 1.264 2.696 1.197 1.333-0.073 2.06-0.5 2.585-1.536 0.404-0.795 0.418-0.834 0.418-4.325 0-3.122-0.027-3.564-0.283-3.906-0.162-0.213-0.458-0.428-0.673-0.476-0.256-0.056-0.404-0.192-0.404-0.362 0-0.252 0.148-0.27 2.141-0.27s2.141 0.018 2.141 0.27c0 0.17-0.148 0.306-0.39 0.361-0.741 0.156-0.795 0.47-0.876 4.612l-0.081 3.88-0.484 0.836c-0.566 0.993-1.482 1.686-2.653 1.999-0.997 0.262-3.326 0.275-4.121 0.013zm62.015 0c-0.881-0.282-1.694-0.781-2.144-1.314-0.75-0.889-0.858-1.542-0.867-5.289-0.014-3.893-0.108-4.338-0.903-4.677-0.336-0.135-0.525-0.319-0.525-0.502-0.013-0.274 0.094-0.288 2.693-0.288 2.667 0 2.694 4e-3 2.694 0.314 0 0.209-0.122 0.327-0.35 0.359-0.189 0.026-0.499 0.228-0.674 0.451-0.31 0.379-0.336 0.614-0.39 3.76-0.068 3.864 0.054 4.678 0.781 5.348 1.306 1.215 4.04 0.875 4.807-0.588 0.485-0.928 0.606-2.077 0.552-5.122-0.067-3.214-0.175-3.619-1.01-3.802-0.256-0.052-0.404-0.183-0.404-0.352 0-0.249 0.148-0.262 2.141-0.262s2.155 0.026 2.155 0.275c0 0.17-0.189 0.339-0.471 0.444-0.256 0.104-0.526 0.287-0.593 0.418s-0.161 1.986-0.215 4.129l-0.095 3.893-0.484 0.849c-0.566 0.993-1.482 1.686-2.667 1.999-0.996 0.275-3.326 0.288-4.12 0.026zm50.332-4e-3c-0.636-0.251-1.391-1.1-2.561-2.881-1.511-2.299-1.684-2.508-2.077-2.508-0.35-3e-3 -0.357 0.026-0.357 1.795 0 2.145 0.198 2.75 0.947 2.885 0.377 0.068 0.485 0.163 0.485 0.428v0.34h-5.408v-0.34c0-0.265 0.107-0.36 0.485-0.428 0.906-0.163 0.969-0.551 0.915-5.546l-0.048-4.423-0.385-0.371c-0.212-0.203-0.516-0.37-0.676-0.37-0.179 0-0.29-0.104-0.29-0.274 0-0.235 0.162-0.288 1.172-0.374 0.646-0.065 2.41-0.078 3.932-0.052 2.478 0.039 2.841 0.078 3.434 0.366 1.05 0.496 1.642 1.476 1.642 2.704 0 1.176-0.74 2.208-2.1 2.901-0.431 0.222-0.714 0.444-0.62 0.496 0.095 0.053 0.795 0.941 1.562 1.986 1.509 2.051 2.344 2.966 2.694 2.966 0.309 0 0.282 0.666-0.027 0.771-0.445 0.157-2.195 0.078-2.694-0.118zm-2.938-6.751c0.632-0.294 1.252-1.003 1.368-1.563 0.151-0.719-0.202-1.66-0.808-2.182-0.562-0.471-1.104-0.614-2.044-0.51l-0.573 0.065v4.416h0.803c0.431 0 0.996-0.091 1.252-0.209zm70.777 6.726c-0.475-0.117-0.894-0.235-0.929-0.267-0.033-0.026-0.151-0.667-0.256-1.424l-0.196-1.372h0.448c0.247 0 0.449 0.052 0.449 0.117 0 0.379 1.043 1.477 1.648 1.738 1.636 0.719 3.599 0.039 3.598-1.228 0-0.836-0.45-1.333-1.982-2.195-2.149-1.215-2.98-1.855-3.407-2.639-0.431-0.771-0.505-1.986-0.183-2.862 0.213-0.575 1.212-1.45 2.053-1.777 0.846-0.339 3.496-0.326 4.592 0.014l0.835 0.261v2.561h-0.458c-0.358 0-0.482-0.079-0.56-0.353-0.165-0.601-1.018-1.346-1.732-1.516-1.898-0.457-3.433 1.307-2.235 2.587 0.229 0.248 1.266 0.967 2.303 1.607 2.02 1.228 2.76 1.908 3.016 2.705 0.552 1.777-0.363 3.358-2.329 4.011-1.051 0.366-3.327 0.392-4.66 0.065zm-208.31-0.3c0-0.256 0.089-0.332 0.385-0.332 0.229 0 0.521-0.157 0.717-0.379 0.316-0.363 0.328-0.542 0.328-4.886 0-3.154-0.067-4.606-0.188-4.824-0.243-0.402-0.62-0.662-0.97-0.666-0.188-5e-3 -0.283-0.122-0.283-0.366v-0.358h9.548v3.031l-0.418-0.044c-0.323-0.034-0.471-0.166-0.606-0.536-0.323-0.854-0.848-1.074-2.733-1.137l-1.67-0.055v4.087l1.279-0.065c1.387-0.075 2.088-0.379 2.182-0.954 0.027-0.228 0.161-0.309 0.471-0.309h0.418v3.736h-0.431c-0.35 0-0.445-0.065-0.445-0.34 0-0.64-0.538-0.875-2.087-0.927l-1.414-0.052v2.025c0 2.43 0.014 2.469 1.832 2.469 1.79 0 2.72-0.405 3.191-1.398 0.229-0.496 0.781-0.64 0.956-0.248 0.108 0.261-0.337 1.947-0.673 2.535l-0.243 0.418-4.605-0.027-4.605-0.026v-0.326zm12.244 0.044c0-0.261 0.107-0.359 0.457-0.424 0.835-0.152 0.876-0.366 0.93-4.974 0.053-4.799-0.014-5.232-0.889-5.596-0.364-0.152-0.512-0.314-0.525-0.551v-0.338l3.609 0.061c3.905 0.065 4.228 0.13 5.292 0.927 1.158 0.889 1.468 2.652 0.673 3.959-0.687 1.15-1.885 1.751-3.77 1.921l-0.997 0.091-0.242-0.549-0.256-0.548 0.579-0.079c0.74-0.091 1.548-0.522 1.979-1.045 0.243-0.287 0.337-0.601 0.324-1.15-0.027-1.398-0.889-2.247-2.411-2.365l-0.862-0.065 0.041 4.795c0.054 5.226 0.08 5.37 0.969 5.54 0.323 0.065 0.431 0.17 0.431 0.431v0.34h-5.4v-0.34zm26.393-0.052c0-0.222 0.094-0.324 0.296-0.324 0.162 0 0.472-0.124 0.674-0.274l0.377-0.275 0.04-4.447c0.054-4.978-0.013-5.354-0.929-5.665-0.296-0.098-0.485-0.267-0.485-0.418 0-0.233 0.216-0.262 2.424-0.293 4.632-0.068 5.615-0.021 6.37 0.308 0.969 0.428 1.427 1.046 1.508 2.052 0.027 0.453 0.013 0.982-0.041 1.176-0.161 0.561-0.902 1.251-1.723 1.594l-0.768 0.316 0.647 0.173a3.1 3.1 0 0 1 2.302 3.411c-0.175 1.306-0.794 2.051-2.249 2.652-0.767 0.313-0.969 0.326-4.645 0.326h-3.81v-0.326zm7.003-1.08c0.807-0.489 1.131-1.154 1.036-2.156-0.134-1.503-1.306-2.398-3.137-2.398h-0.97l0.041 2.167c0.04 2.074 0.067 2.176 0.417 2.439 0.539 0.4 1.872 0.374 2.572-0.052zm-0.66-5.962c0.969-0.34 1.481-1.028 1.387-1.864-0.135-1.124-1.145-1.749-2.815-1.749h-0.956v3.874l0.835-8e-3c0.458-4e-3 1.145-0.117 1.535-0.253zm6.517 7.05c0-0.231 0.108-0.327 0.418-0.358 0.229-0.026 0.565-0.222 0.754-0.451 0.323-0.392 0.336-0.562 0.336-4.808 0-3.527-0.053-4.472-0.228-4.76-0.283-0.448-0.647-0.705-1.01-0.712-0.189-0.013-0.283-0.117-0.283-0.339 0-0.327 0-0.327 2.855-0.327 2.854 0 2.854 0 2.854 0.314 0 0.222-0.094 0.313-0.309 0.313-0.175 0-0.512 0.157-0.754 0.34l-0.404 0.379-0.054 4.52-0.041 4.521 0.404 0.235c0.324 0.183 0.66 0.222 1.643 0.17 1.508-0.078 2.222-0.418 2.64-1.267 0.269-0.562 0.579-0.693 0.996-0.458 0.148 0.092 0.121 0.353-0.121 1.242-0.175 0.614-0.431 1.28-0.566 1.463l-0.256 0.34-4.443-0.053-4.444-0.052v-0.313zm11.123 0.044c0-0.265 0.108-0.36 0.485-0.428 0.875-0.157 0.943-0.549 0.943-5.36 0-3.995-0.027-4.303-0.31-4.736-0.175-0.254-0.498-0.504-0.714-0.554-0.283-0.052-0.404-0.183-0.404-0.392 0-0.3 0.041-0.3 2.707-0.3s2.693 0.013 2.693 0.313c0 0.209-0.134 0.34-0.39 0.405a1.328 1.328 0 0 0-0.674 0.484c-0.255 0.353-0.282 0.823-0.282 4.769 0 4.873 0.067 5.265 0.888 5.422 0.337 0.065 0.445 0.17 0.445 0.431v0.34h-5.4v-0.34zm38.002-0.026c0-0.235 0.121-0.337 0.484-0.402 0.876-0.157 0.943-0.549 0.943-5.375 0-4.228-0.013-4.295-0.364-4.776-0.202-0.267-0.525-0.509-0.713-0.533-0.256-0.032-0.35-0.143-0.35-0.394v-0.349h9.372v1.506c0 1.49-0.013 1.503-0.39 1.503-0.31 0-0.404-0.092-0.485-0.497-0.189-0.849-0.835-1.136-2.734-1.202l-1.602-0.052-0.108 0.68c-0.054 0.365-0.108 1.293-0.108 2.038v1.358l1.347-0.078c1.481-0.091 2.074-0.327 2.235-0.901 0.068-0.262 0.202-0.366 0.472-0.366h0.377v3.723h-0.391c-0.269 0-0.404-0.078-0.404-0.248-0.013-0.718-0.781-1.045-2.383-1.045h-1.307l0.054 2.012c0.068 2.443 0.054 2.43 1.953 2.43 1.683 0 2.558-0.366 3.016-1.254 0.229-0.457 0.404-0.614 0.66-0.614 0.189 0 0.404 0.065 0.458 0.157 0.148 0.209-0.566 2.547-0.848 2.796-0.189 0.169-0.997 0.196-4.741 0.169l-4.511-0.026v-0.313zm17.492 0.034c0-0.235 0.148-0.392 0.498-0.538 0.283-0.112 0.647-0.387 0.835-0.61 0.323-0.392 0.323-0.569 0.323-5.812 0-6.088-0.013-6.153-1.117-6.48-0.431-0.131-0.566-0.248-0.566-0.523v-0.352h11.123v3.593h-0.485c-0.39 0-0.484-0.066-0.484-0.327 0-0.536-0.593-1.254-1.239-1.503-0.377-0.143-1.239-0.261-2.37-0.3l-1.791-0.065v4.912l1.306-0.013c1.751-0.013 2.343-0.209 2.72-0.888 0.242-0.445 0.377-0.549 0.754-0.549h0.471v4.324l-0.511-0.052c-0.35-0.039-0.539-0.143-0.593-0.339-0.256-0.85-1.225-1.229-3.164-1.229h-1.024l0.068 2.548c0.067 2.901 0.202 3.332 1.158 3.632 0.417 0.131 0.552 0.262 0.552 0.51v0.326h-6.518v-0.326zm25.438-0.026c0-0.261 0.08-0.358 0.309-0.358 0.485 0 1.037-0.895 2.249-3.619 1.616-3.653 3.151-7.365 3.151-7.63 0-0.179 0.162-0.23 0.754-0.227l0.754 2e-3 2.142 4.961c2.329 5.387 2.76 6.224 3.299 6.441 0.215 0.085 0.35 0.265 0.35 0.464 0 0.327 0 0.327-2.707 0.327h-2.707v-0.343c0-0.261 0.108-0.36 0.472-0.426 0.687-0.122 0.727-0.54 0.202-1.959l-0.458-1.219h-3.757l-0.377 1.006c-0.485 1.267-0.458 2.129 0.067 2.208 0.256 0.039 0.35 0.143 0.35 0.392v0.352h-4.134v-0.352zm7.312-5.024c0-0.209-1.172-3.083-1.266-3.083-0.067 0-0.229 0.274-0.364 0.614l-0.673 1.581-0.404 0.967h1.347c0.74 0 1.346-0.026 1.346-0.065zm6.84 5.044c0-0.249 0.108-0.353 0.431-0.418 0.862-0.157 0.889-0.353 0.956-5.044 0.068-4.834 0-5.239-0.929-5.552-0.282-0.092-0.484-0.262-0.484-0.418 0-0.223 0.175-0.249 1.791-0.249h1.777l1.037 1.189c0.566 0.654 2.033 2.247 3.259 3.554a165.61 165.61 0 0 1 2.585 2.809l0.364 0.431-0.054-3.24c-0.054-3.528-0.148-3.893-0.997-4.089-0.255-0.053-0.404-0.196-0.404-0.366 0-0.248 0.149-0.275 2.142-0.275 2.02 0 2.141 0.027 2.141 0.288 0 0.183-0.135 0.3-0.35 0.326-0.189 0.027-0.499 0.236-0.674 0.458-0.323 0.392-0.336 0.588-0.39 5.709l-0.054 5.305h-0.7c-0.633 0-0.754-0.052-1.226-0.601-0.431-0.484-7.164-8.022-7.42-8.284-0.04-0.039-0.04 1.542 0 3.515 0.068 4.011 0.175 4.481 0.93 4.625 0.35 0.065 0.457 0.157 0.457 0.418v0.34h-4.282v-0.34zm27.821-0.013c0-0.209 0.081-0.353 0.216-0.353 0.31 0 0.902-0.666 1.32-1.516 0.579-1.163 3.299-7.499 3.77-8.78l0.431-1.189 1.427 0.105 2.101 4.886c1.158 2.692 2.235 5.109 2.397 5.383 0.35 0.641 0.875 1.15 1.145 1.15 0.121 0 0.215 0.157 0.215 0.366v0.366h-5.413v-0.366c0-0.248 0.081-0.353 0.283-0.353 0.767 0 0.834-0.601 0.255-2.182l-0.417-1.11h-3.73l-0.337 0.967c-0.633 1.829-0.606 2.338 0.148 2.338 0.216 0 0.297 0.105 0.297 0.366v0.366h-4.134v-0.366zm6.747-6.415c-0.31-0.81-0.593-1.568-0.646-1.686-0.054-0.131-0.377 0.418-0.795 1.372-0.39 0.875-0.7 1.633-0.7 1.685 0 0.066 0.592 0.118 1.333 0.118h1.333l-0.552-1.463zm7.245 6.428c0-0.275 0.081-0.353 0.363-0.353 0.202 0 0.512-0.131 0.674-0.301 0.269-0.274 0.296-0.614 0.336-4.768 0.027-2.457 0.014-4.612-0.04-4.782-0.108-0.405-0.7-0.902-1.064-0.902-0.202 0-0.296-0.104-0.296-0.313 0-0.314 0-0.314 2.693-0.314 2.599 0 2.707 0.013 2.707 0.287 0 0.183-0.175 0.366-0.472 0.471-0.255 0.104-0.525 0.366-0.619 0.575-0.229 0.548-0.364 5.03-0.216 7.447 0.095 1.685 0.162 2.09 0.418 2.339 0.162 0.169 0.431 0.3 0.592 0.3 0.202 0 0.283 0.105 0.283 0.366v0.366h-5.4v-0.366zm17.802-0.026c0-0.249 0.094-0.327 0.39-0.327 0.229 0 0.512-0.157 0.714-0.379 0.31-0.366 0.323-0.536 0.323-4.886 0-3.149-0.054-4.599-0.188-4.821-0.243-0.392-0.62-0.654-0.97-0.667-0.188 0-0.283-0.117-0.283-0.366v-0.352h9.534v3.031l-0.417-0.039c-0.31-0.027-0.458-0.157-0.593-0.536-0.309-0.849-0.834-1.071-2.733-1.137l-1.67-0.052v4.05h0.997c1.373-0.013 2.046-0.235 2.343-0.81 0.175-0.34 0.336-0.457 0.633-0.457h0.39v3.723h-0.404c-0.363 0-0.444-0.065-0.444-0.339 0-0.64-0.525-0.876-2.088-0.928l-1.413-0.052v2.012c0 2.43 0.026 2.469 1.844 2.469 1.791 0 2.721-0.405 3.192-1.398 0.229-0.496 0.781-0.64 0.956-0.248 0.108 0.261-0.337 1.947-0.673 2.535l-0.243 0.418-9.211-0.052v-0.34zm-213.02-13.106-0.387-0.271 0.946-1.293c0.52-0.719 1.046-1.307 1.171-1.307 0.536 0 2.249 0.327 2.206 0.431-0.086 0.207-3.224 2.731-3.387 2.727-0.087 0-0.334-0.123-0.548-0.274zm-20.199-9.914h242.17v1.287h-242.18v-1.291zm92.169-2.94c-1.272-0.41-1.988-1.476-1.756-2.626 0.161-0.771 0.646-1.314 1.508-1.672l0.754-0.314-0.458-0.235c-0.256-0.137-0.458-0.362-0.458-0.523 0-0.261 1.172-1.306 1.454-1.306 0.068 0-0.026-0.239-0.215-0.531-0.808-1.246-0.162-3.047 1.36-3.752 0.822-0.383 1.104-0.399 3.986-0.233 1.656 0.097 1.724 0.113 1.629 0.405-0.04 0.17-0.08 0.356-0.094 0.416 0 0.059-0.269 0.107-0.619 0.107h-0.62l0.081 0.834c0.189 1.82-1.252 3.066-3.568 3.1-1.199 0.017-1.778 0.248-1.307 0.52 0.135 0.076 0.916 0.333 1.724 0.572 2.639 0.771 3.124 1.159 3.016 2.391-0.107 1.287-1.252 2.404-2.908 2.855-0.943 0.257-2.653 0.255-3.461-5e-3zm3.541-0.888c1.29-0.579 1.849-1.686 1.145-2.261-0.477-0.388-2.543-0.985-3.079-0.888-1.09 0.196-2.114 1.398-1.925 2.26 0.256 1.189 2.195 1.637 3.851 0.891zm0.426-6.494c0.969-0.53 1.346-2.045 0.7-2.792-0.889-1.024-2.586 0.118-2.599 1.751 0 0.507 0.081 0.686 0.444 0.967 0.539 0.418 0.835 0.431 1.482 0.078zm6.032 3.332c-0.7-0.131-1.063-0.549-1.144-1.294-0.202-1.907 1.575-4.708 3.568-5.611 1.037-0.471 3.084-0.518 4.444-0.105 0.121 0.039 0.041 0.529-0.283 1.538-0.606 1.973-0.969 3.948-0.767 4.289 0.134 0.223 0.229 0.24 0.66 0.108 0.39-0.131 0.525-0.118 0.633 0.039 0.228 0.326 0.094 0.444-0.822 0.731-1.212 0.379-1.777 0.301-1.966-0.261l-0.135-0.444-0.646 0.327c-1.091 0.561-2.599 0.849-3.501 0.679zm2.748-1.29c0.471-0.198 0.942-0.503 1.077-0.679 0.215-0.291 0.862-2.443 1.118-3.698 0.107-0.513 0.094-0.531-0.485-0.675-1.064-0.272-2.141 0.431-2.99 1.96-0.889 1.594-1.117 3.02-0.538 3.39 0.404 0.254 0.646 0.209 1.844-0.3zm75.289 1.248c-0.714-0.157-0.957-0.379-1.159-1.032-0.296-0.993 0.391-2.871 1.563-4.259 1.4-1.66 2.949-2.222 5.238-1.895 0.606 0.086 1.144 0.203 1.198 0.257 0.068 0.053-0.134 0.971-0.444 2.039-0.296 1.064-0.566 2.355-0.579 2.869l-0.027 0.938 0.673-0.026c0.606-0.026 0.674 0.013 0.674 0.3 0 0.275-0.149 0.366-0.916 0.575-1.252 0.353-1.845 0.275-1.912-0.235-0.027-0.209-0.081-0.392-0.108-0.392s-0.444 0.157-0.916 0.34c-0.754 0.3-2.302 0.692-2.612 0.653-0.054 0-0.337-0.065-0.62-0.118zm2.666-1.228c0.39-0.183 0.835-0.444 0.983-0.588 0.35-0.366 0.983-2.234 1.32-3.88 0.094-0.445 0.067-0.471-0.539-0.615-0.512-0.13-0.727-0.117-1.185 0.079-1.01 0.431-2.007 1.894-2.532 3.697-0.498 1.728 0.121 2.135 1.98 1.299zm-172.45 0.901c-0.041-0.183 0.242-1.515 0.633-2.965 0.781-2.862 0.781-3.097-0.081-2.875-0.417 0.105-0.458 0.079-0.458-0.209 0-0.274 0.148-0.366 0.916-0.572 0.498-0.131 1.171-0.256 1.468-0.274 0.525-0.031 0.565-4e-3 0.606 0.449 0.027 0.265-0.243 1.577-0.606 2.914-0.364 1.34-0.62 2.534-0.566 2.657 0.081 0.176 0.242 0.201 0.821 0.123 0.687-0.096 0.728-0.084 0.674 0.228-0.041 0.262-0.243 0.379-0.929 0.575-0.472 0.131-1.212 0.249-1.63 0.249-0.646 0-0.754-0.04-0.835-0.314zm6.113 0.066-0.363-0.275 1.239-4.886c0.673-2.688 1.212-5.069 1.185-5.297-0.054-0.422-0.108-0.444-0.727-0.274-0.297 0.082-0.35 0.044-0.35-0.261 0-0.419 0.565-0.621 2.114-0.758 0.888-0.079 0.915-0.075 0.915 0.261 0 0.191-0.242 1.372-0.552 2.624-0.309 1.254-0.552 2.358-0.552 2.46 0 0.144 0.175 0.117 0.687-0.086 1.777-0.706 3.313-0.667 3.878 0.091 0.525 0.719 0.256 2.561-0.592 4.076-0.431 0.797-1.737 2.026-2.451 2.313-0.929 0.379-3.865 0.392-4.39 0zm4.027-0.915c0.808-0.509 1.697-2.234 1.939-3.75 0.256-1.528-0.862-1.829-2.639-0.718a2.13 2.13 0 0 0-0.835 0.954c-0.283 0.705-0.876 2.992-0.876 3.399 0 0.601 1.549 0.672 2.424 0.105zm6.073 0.732c-0.431-0.405-0.458-0.523-0.458-1.477 0.027-2.425 1.549-4.592 3.65-5.187 1.05-0.3 1.979-0.195 2.598 0.281 0.364 0.277 0.431 0.45 0.431 1.036 0 1.477-1.481 2.6-3.635 2.731-0.62 0.039-1.185 0.144-1.239 0.231-0.175 0.246-0.135 1.072 0.067 1.424 0.404 0.68 0.97 0.699 2.33 0.066 0.848-0.392 1.023-0.431 1.158-0.248 0.283 0.401 0.148 0.527-1.078 1.051-1.023 0.434-1.414 0.523-2.275 0.523-0.943 0-1.078-0.037-1.509-0.439zm2.855-3.449c1.36-0.34 2.249-1.647 1.562-2.274-0.431-0.394-0.835-0.381-1.401 0.046-0.444 0.34-1.171 1.415-1.387 2.056-0.08 0.262-0.04 0.314 0.27 0.314 0.202 0 0.646-0.078 0.983-0.157zm5.359 3.834c0-0.021 0.283-1.136 0.633-2.469 0.35-1.337 0.647-2.712 0.647-3.057v-0.628l-0.633 0.092c-0.566 0.078-0.633 0.057-0.633-0.196 0-0.314 0.512-0.555 1.804-0.847 0.889-0.196 1.226-0.061 1.226 0.497v0.337l0.565-0.345c0.997-0.601 1.603-0.719 2.316-0.418 0.351 0.144 0.606 0.326 0.58 0.418-0.431 1.372-0.674 1.803-1.024 1.803-0.31 0-0.363-0.065-0.363-0.483 0-1.046-0.997-1.046-1.738-0.014-0.444 0.654-0.915 2.117-1.292 4.064-0.108 0.588-0.283 1.071-0.364 1.097-0.283 0.079-1.683 0.209-1.683 0.17zm7.986-0.136c-0.175-0.183-0.081-0.705 0.835-4.442l0.377-1.542h-0.539c-0.296 0-0.539-0.039-0.539-0.078 0-0.222 0.364-0.64 0.553-0.64 0.39 0 1.131-0.68 1.454-1.32 0.35-0.705 0.485-0.823 1.01-0.823 0.35 0 0.377 0.052 0.283 0.47-0.054 0.262-0.148 0.719-0.202 1.007l-0.095 0.535h0.741c0.754 0 0.862 0.118 0.646 0.64-0.067 0.17-0.309 0.236-0.848 0.236-0.889 0-0.741-0.288-1.441 2.861-0.512 2.312-0.485 2.521 0.377 2.299 0.727-0.183 0.781-0.169 0.727 0.196-0.04 0.249-0.242 0.379-0.848 0.562-0.97 0.301-2.195 0.34-2.437 0.079zm6.423-0.183c-1.158-1.123-0.323-4.35 1.535-5.853 0.754-0.614 1.939-1.084 2.707-1.084 0.498 0 1.575 0.457 1.737 0.731 0.256 0.432 0.175 1.464-0.148 1.947-0.66 0.993-2.114 1.633-3.69 1.633h-0.929v0.758c0 1.476 0.687 1.725 2.464 0.941 0.566-0.248 1.064-0.431 1.105-0.392 0.04 0.039 0.094 0.196 0.134 0.353 0.041 0.235-0.175 0.392-1.117 0.823-1.024 0.47-1.32 0.535-2.276 0.535-0.983 0-1.145-0.039-1.481-0.365zm2.801-3.514c0.848-0.248 1.427-0.693 1.683-1.241 0.216-0.458 0.216-0.536-0.067-0.876-0.431-0.522-0.862-0.535-1.522-0.013-0.511 0.405-1.373 1.751-1.373 2.143 0 0.209 0.606 0.196 1.279-0.013zm59.722 3.802c-0.215-0.196-0.081-1.045 0.687-3.972 1.037-3.972 1.589-6.324 1.589-6.703 0-0.274-0.067-0.3-0.552-0.222-0.498 0.079-0.552 0.053-0.552-0.261 0-0.353 0.404-0.523 1.979-0.797 0.822-0.131 1.051-0.039 1.051 0.431 0 0.222-0.525 2.483-1.185 5.043-0.66 2.561-1.199 4.874-1.199 5.135v0.484l0.727-0.079c0.687-0.078 0.728-0.065 0.674 0.235-0.041 0.249-0.243 0.379-0.916 0.562-0.889 0.261-2.087 0.34-2.276 0.17zm5.993-0.079c-0.189-0.287-0.081-0.901 0.592-3.305 0.364-1.241 0.62-2.378 0.593-2.509-0.068-0.248-0.108-0.261-0.795-0.117-0.363 0.078-0.444 0.052-0.444-0.196 0-0.34 0.687-0.64 1.925-0.862 0.889-0.144 1.266-0.066 1.266 0.261 0 0.117-0.323 1.437-0.713 2.926-0.391 1.49-0.674 2.783-0.606 2.862 0.067 0.091 0.377 0.117 0.808 0.065 0.673-0.078 0.713-0.065 0.659 0.235-0.04 0.249-0.242 0.379-0.929 0.562-1.023 0.301-2.154 0.34-2.316 0.092zm5.871-0.065c-0.054-0.131-0.014-0.601 0.094-1.032 0.364-1.437 1.131-4.756 1.131-4.821 0-0.039-0.215-0.065-0.484-0.065-0.687 0-0.553-0.405 0.255-0.784 0.485-0.222 0.768-0.51 1.158-1.189 0.458-0.771 0.593-0.889 0.984-0.889h0.444l-0.216 0.902c-0.121 0.496-0.215 0.94-0.215 1.006 0 0.052 0.35 0.104 0.794 0.104 0.835 0 0.862 0.013 0.701 0.536-0.081 0.287-0.202 0.327-0.916 0.327h-0.821l-0.539 2.417c-0.296 1.332-0.498 2.521-0.444 2.652 0.08 0.183 0.202 0.209 0.619 0.091 0.727-0.182 0.768-0.169 0.768 0.209 0 0.288-0.135 0.379-0.93 0.575-1.225 0.314-2.222 0.314-2.356 0zm6.558-0.078c-0.391-0.301-0.471-0.471-0.525-1.281-0.121-1.803 0.794-3.841 2.154-4.782 1.508-1.032 3.151-1.162 4.067-0.339 0.431 0.392 0.471 0.496 0.391 1.149-0.149 1.425-1.657 2.457-3.731 2.548-1.292 0.066-1.427 0.209-1.171 1.215 0.283 1.098 0.781 1.215 2.37 0.536 1.05-0.444 1.293-0.444 1.293 0 0 0.457-1.899 1.202-3.273 1.267-1.01 0.053-1.171 0.026-1.575-0.3zm3.366-3.841c0.997-0.458 1.428-1.464 0.862-2.026-0.713-0.705-2.02 0.223-2.68 1.895l-0.228 0.614 0.713-0.091a5.94 5.94 0 0 0 1.347-0.379zm38.015 4.115c0-0.026 0.283-1.137 0.633-2.469 0.35-1.333 0.647-2.705 0.647-3.058v-0.627l-0.633 0.092c-0.566 0.078-0.633 0.065-0.633-0.196 0-0.34 0.282-0.484 1.575-0.784 1.118-0.261 1.455-0.157 1.455 0.444v0.34l0.565-0.34c0.997-0.601 1.603-0.718 2.316-0.431 0.35 0.144 0.62 0.3 0.62 0.34 0 0.052-0.148 0.496-0.35 0.98-0.297 0.744-0.418 0.901-0.714 0.901s-0.364-0.078-0.364-0.483c0-0.98-0.929-1.059-1.629-0.131-0.525 0.706-0.795 1.476-1.239 3.488-0.188 0.915-0.39 1.699-0.444 1.738-0.095 0.092-1.764 0.301-1.764 0.222zm18.341-0.17c-0.121-0.3 0.027-1.189 0.633-3.723l0.525-2.156-0.444-0.039c-0.525-0.053-0.62-0.523-0.121-0.667 0.565-0.156 1.212-0.744 1.521-1.385 0.35-0.705 0.485-0.823 1.01-0.823 0.35 0 0.377 0.053 0.283 0.471-0.054 0.261-0.148 0.718-0.202 1.006l-0.094 0.535h0.74c0.754 0 0.862 0.118 0.647 0.641-0.068 0.169-0.31 0.235-0.849 0.235-0.875 0-0.74-0.288-1.44 2.861-0.512 2.313-0.485 2.522 0.377 2.3 0.727-0.183 0.781-0.17 0.727 0.196-0.041 0.248-0.243 0.378-0.849 0.561-1.05 0.327-2.275 0.34-2.41 0.04zm6.423-0.143c-1.198-1.085-0.363-4.338 1.509-5.854 0.754-0.614 1.939-1.084 2.706-1.084 0.499 0 1.576 0.457 1.737 0.732 0.256 0.431 0.175 1.463-0.148 1.959-0.673 1.006-2.114 1.633-3.703 1.633h-0.943l0.081 0.889c0.121 1.398 0.687 1.594 2.424 0.81 0.566-0.248 1.064-0.431 1.104-0.392 0.041 0.039 0.095 0.196 0.135 0.353 0.054 0.235-0.175 0.392-1.118 0.823-1.01 0.47-1.319 0.536-2.235 0.536-0.929 0-1.118-0.04-1.481-0.366zm3.34-3.737c1.118-0.497 1.616-1.646 0.916-2.13-0.458-0.313-0.795-0.261-1.401 0.222-0.511 0.405-1.373 1.751-1.373 2.156 0 0.235 1.09 0.092 1.845-0.248zm4.834 3.998c0-0.065 0.297-1.228 0.647-2.587 0.363-1.359 0.633-2.678 0.606-2.927-0.041-0.418-0.081-0.444-0.633-0.418-0.445 0.013-0.593-0.039-0.66-0.248-0.054-0.222 0.081-0.327 0.741-0.549a13.29 13.29 0 0 1 1.414-0.379c0.619-0.104 0.605-0.117 0.996 0.732 0.013 0.013 0.431-0.17 0.943-0.405 1.104-0.497 1.279-0.523 1.952-0.144l0.512 0.275-0.337 0.927c-0.283 0.784-0.404 0.941-0.7 0.941s-0.364-0.078-0.364-0.47c0-1.255-1.319-1.006-2.033 0.379-0.175 0.339-0.539 1.541-0.794 2.665-0.256 1.123-0.499 2.051-0.526 2.077-0.134 0.105-1.723 0.196-1.723 0.105zm7.959 0c0-0.065 0.256-1.019 0.579-2.117 0.337-1.202 0.579-2.391 0.592-2.992l0.027-1.006-0.565 0.053c-0.445 0.039-0.593-0.014-0.647-0.223-0.067-0.222 0.068-0.313 0.728-0.496 1.44-0.405 1.777-0.431 2.06-0.17a0.885 0.885 0 0 1 0.256 0.575c0 0.183 0.027 0.34 0.067 0.34 0.027 0 0.498-0.196 1.05-0.431 1.28-0.549 2.976-0.837 3.488-0.588 0.323 0.156 0.35 0.235 0.256 0.901-0.067 0.392-0.323 1.503-0.579 2.456-0.256 0.954-0.485 1.96-0.512 2.235-0.04 0.496-0.04 0.496 0.62 0.483 0.457-0.013 0.7 0.052 0.754 0.196 0.121 0.3-0.027 0.392-1.024 0.653-1.131 0.301-2.181 0.301-2.302 0-0.054-0.13 0.188-1.372 0.538-2.783 0.7-2.822 0.741-3.148 0.404-3.253-0.35-0.118-1.562 0.418-2.289 1.006-0.606 0.483-0.673 0.64-1.05 2.051-0.216 0.85-0.445 1.843-0.512 2.221-0.067 0.379-0.202 0.719-0.296 0.745-0.485 0.131-1.697 0.196-1.697 0.092zm10.907-0.105c-0.054-0.13 0.229-1.45 0.633-2.952 0.404-1.49 0.7-2.796 0.647-2.914-0.054-0.144-0.202-0.157-0.606-0.052a7.761 7.761 0 0 1-0.566 0.143c-0.013 0-0.04-0.143-0.04-0.326 0-0.275 0.148-0.366 0.835-0.549 1.885-0.509 2.464-0.418 2.275 0.34-0.04 0.196-0.377 1.437-0.727 2.77-0.35 1.332-0.606 2.521-0.552 2.639 0.067 0.157 0.269 0.196 0.822 0.117 0.673-0.078 0.713-0.065 0.673 0.236-0.108 0.614-3.151 1.149-3.38 0.601zm6.006 0c-0.107-0.248 0.027-0.927 0.647-3.423 0.686-2.757 0.686-2.508 0.107-2.508-0.7 0-0.579-0.392 0.229-0.771 0.472-0.222 0.754-0.51 1.131-1.15 0.418-0.692 0.593-0.862 0.943-0.901 0.485-0.053 0.485-0.013 0.148 1.528l-0.094 0.471h0.835c0.7 0 0.821 0.039 0.74 0.222a1.4 1.4 0 0 0-0.094 0.431c0 0.157-0.215 0.209-0.848 0.209h-0.849l-0.525 2.417c-0.283 1.333-0.471 2.522-0.417 2.652 0.081 0.196 0.202 0.209 0.633 0.105 0.727-0.183 0.767-0.17 0.767 0.209 0 0.3-0.134 0.379-0.929 0.575-1.212 0.313-2.222 0.313-2.356 0zm6.545-0.104c-0.445-0.353-0.458-0.392-0.458-1.777 0-1.346 0.027-1.463 0.606-2.509 0.714-1.28 1.508-1.972 2.814-2.404 2.263-0.757 3.879 0.536 2.882 2.3-0.566 1.006-2.06 1.724-3.595 1.724-0.916 0-0.983 0.027-1.078 0.379-0.134 0.484 0.041 1.202 0.35 1.529 0.364 0.379 0.983 0.314 2.101-0.209 0.835-0.379 1.01-0.418 1.131-0.248 0.283 0.405 0.148 0.562-0.915 1.019-0.822 0.366-1.347 0.483-2.195 0.522-1.024 0.053-1.172 0.027-1.589-0.3zm3.474-3.868c1.077-0.535 1.441-1.607 0.687-2.051-0.283-0.17-0.498-0.196-0.835-0.091-0.552 0.157-1.36 1.097-1.683 1.973l-0.256 0.679 0.74-0.091c0.404-0.053 1.018-0.236 1.367-0.419zm-240.49 3.775c0.027-0.14 0.192-0.274 0.364-0.304 0.471-0.079 0.875-0.458 1.199-1.106 0.417-0.862 1.737-6.846 1.777-8.087 0.027-1.058 0.027-1.071-0.485-1.359-0.983-0.562-0.713-0.653 2.034-0.653 2.181 0 2.545 0.039 2.545 0.222 0 0.131-0.202 0.261-0.485 0.313-1.01 0.183-1.4 1.085-2.357 5.527-0.888 4.155-0.888 4.077-0.484 4.442 0.309 0.275 0.471 0.301 1.71 0.249 1.67-0.079 2.276-0.327 2.855-1.202 0.457-0.68 0.484-0.693 0.808-0.51 0.188 0.105 0.175 0.248-0.041 0.823a7.105 7.105 0 0 1-0.619 1.281l-0.364 0.574-4.255 0.04c-3.986 0.026-4.255 0.013-4.202-0.223zm80.425 0.043c0-0.112 0.27-0.321 0.606-0.466 0.418-0.183 0.701-0.458 0.943-0.91 0.458-0.842 1.831-6.953 1.858-8.244 0.027-0.974 0.014-1.006-0.484-1.291-1.064-0.614-0.822-0.653 4.026-0.653 4.444 0 4.538 8e-3 4.444 0.284-0.054 0.143-0.189 0.718-0.296 1.254-0.162 0.823-0.243 0.98-0.539 1.019-0.283 0.039-0.35-0.026-0.35-0.34 0-0.954-0.62-1.228-2.855-1.228h-1.535l-0.431 1.829a136.79 136.79 0 0 1-0.512 2.078c-0.067 0.222 0.068 0.248 1.333 0.248 1.589 0 2.061-0.157 2.518-0.823 0.418-0.601 0.957-0.64 0.835-0.079l-0.363 1.712c-0.216 1.045-0.337 1.32-0.539 1.32-0.161 0-0.296-0.157-0.363-0.432-0.054-0.235-0.256-0.509-0.458-0.601-0.377-0.183-2.882-0.274-3.057-0.104-0.108 0.091-0.579 2.156-0.781 3.449-0.094 0.614-0.067 0.693 0.296 0.915 0.323 0.196 0.687 0.222 1.805 0.183 1.656-0.079 2.248-0.314 2.93-1.189 0.296-0.379 0.579-0.601 0.704-0.549 0.31 0.104 0.275 0.366-0.194 1.372-0.7 1.502-0.31 1.398-5.184 1.398-3.569 0-4.269-0.039-4.269-0.209zm80.784 3e-3c0-0.114 0.242-0.28 0.525-0.366 1.01-0.31 1.346-1.128 2.343-5.772 0.862-3.998 0.848-4.638-0.162-4.929-0.175-0.052-0.296-0.169-0.256-0.261 0.054-0.117 1.293-0.176 4.485-0.204 4.336-0.039 4.417-0.039 4.309 0.236-0.054 0.156-0.189 0.718-0.296 1.254-0.162 0.823-0.243 0.98-0.539 1.019s-0.35-0.026-0.35-0.405c0-0.915-0.768-1.202-2.936-1.137l-1.252 0.039-0.445 1.856c-0.242 1.019-0.444 1.946-0.444 2.038 0 0.261 2.424 0.235 3.003-0.039 0.242-0.118 0.539-0.405 0.646-0.654 0.122-0.274 0.324-0.444 0.499-0.444 0.377 0 0.377-0.104-0.041 1.829-0.283 1.359-0.39 1.62-0.633 1.62-0.175 0-0.282-0.104-0.282-0.261 0-0.666-1.482-1.176-2.855-0.967l-0.606 0.092-0.323 1.607c-0.566 2.822-0.539 3.083 0.323 3.397 0.956 0.352 0.404 0.483-2.141 0.522-2.088 0.04-2.492 0.013-2.492-0.17zm-93.28-3.086c-0.714-0.292-1.333-1.193-1.333-1.929 0-1.14 1.117-2.159 2.37-2.155 1.495 5e-3 2.41 0.825 2.41 2.147 0.014 1.686-1.697 2.653-3.434 1.947zm80.945 0.068c-0.27-0.109-0.701-0.437-0.943-0.732-0.364-0.435-0.444-0.672-0.431-1.28 0.027-1.317 0.929-2.13 2.384-2.13 0.727 0 0.969 0.072 1.454 0.431 1.104 0.797 1.279 2.13 0.404 3.07-0.727 0.79-1.831 1.037-2.841 0.641zm-95.076-5.102c-0.31-0.311-0.337-0.279 1.467-2.135l0.609-0.627 0.905 0.183c0.498 0.102 0.906 0.227 0.906 0.279 0 0.097-3.407 2.585-3.537 2.585-0.041 0-0.202-0.127-0.364-0.284zm80.893 0-0.354-0.256 1.198-1.236c0.66-0.68 1.253-1.236 1.334-1.236 0.39 0 1.75 0.352 1.723 0.444-0.04 0.094-3.003 2.244-3.38 2.456-0.094 0.047-0.323-0.03-0.511-0.17zm105.7 2e-3 -0.384-0.261 1.244-1.235c0.683-0.679 1.3-1.234 1.37-1.234 0.323 0 1.75 0.345 1.737 0.418 0 0.078-3.003 2.264-3.394 2.476-0.094 0.052-0.35-0.02-0.556-0.164zm-226.93-0.737c-0.646-0.582-0.016-1.706 0.956-1.706 0.679 0 1.031 0.32 1.031 0.934 0 0.958-1.246 1.443-1.988 0.771zm107.31 0.102c-0.391-0.266-0.368-1.153 0.04-1.522 0.654-0.588 1.907-0.196 1.907 0.601 0 0.863-1.199 1.437-1.939 0.941zm105.61-0.102c-0.66-0.593-0.013-1.706 0.983-1.706 0.997 0 1.428 1.006 0.7 1.657-0.494 0.441-1.238 0.464-1.696 0.049zm-139.32-4.102c-0.243-0.243-0.189-0.331 0.961-1.459l1.226-1.203 0.909 0.196c0.498 0.105 0.902 0.223 0.902 0.275-0.014 0.144-3.205 2.352-3.488 2.417-0.148 0.039-0.377-0.052-0.511-0.196z"/>
        <path
          d="m139.94 74.613 0.372-0.864c0.629-1.564 1.279-2.757 2.222-4.068 0.996-1.387 3.191-3.431 4.103-3.821 1.122-0.481 2.515-0.65 4.242-0.515 1.481 0.118 6.028 0.788 7.864 1.163 1.398 0.282 3.445 0.309 4.407 0.056 1.855-0.486 2.953-1.428 3.475-2.976 0.401-1.189 0.397-2.274-0.01-2.992-0.547-0.967-0.454-1.228 0.875-2.365 0.655-0.575 1.192-1.098 1.194-1.163 0-0.392-0.916-1.921-1.145-1.934-0.148 0-0.431-0.13-0.633-0.274l-0.377-0.274 0.781-0.366c1.077-0.497 1.872-1.268 1.872-1.816 0-0.235-0.229-0.81-0.512-1.281-0.539-0.901-0.673-1.764-0.377-2.273 0.189-0.34 0.539-0.483 2.209-0.915 1.4-0.365 1.912-0.744 2.114-1.554 0.161-0.693 0.08-1.137-0.377-1.973-0.377-0.68-2.828-4.064-3.528-4.887-0.957-1.11-2.128-3.031-2.465-4.063-0.336-1.019-0.35-1.084-0.094-2.391 0.525-2.783 0.215-5.082-1.279-9.564-1.118-3.345-1.414-4.155-1.751-4.782-0.633-1.123-0.552-1.385 0.741-2.338 0.619-0.458 1.185-0.941 1.266-1.085 0.39-0.653-0.054-1.92-0.782-2.273-0.471-0.222-0.727-0.066-1.198 0.718-0.364 0.601-0.512 0.706-0.889 0.706-0.633 0-0.74-0.235-0.336-0.719 0.457-0.575 0.431-0.666-0.31-0.757-0.552-0.066-0.835-0.262-2.034-1.359-1.589-1.464-2.666-2.143-4.793-3.031-0.983-0.405-1.32-0.601-0.97-0.549 0.31 0.039 1.387 0.117 2.41 0.17 2.95 0.13 3.663-0.222 4.35-2.143 0.458-1.307 0.687-1.908-0.391-2.822l-3.849-3.239h88.213v74.613z"
          fill="#e2011c"/>
        <path
          d="m64.722 74.613c-0.639-0.06-1.194-0.086-1.233-0.121-0.068-0.06 0.655-0.48 3.967-2.3 1.064-0.585 1.5-0.898 1.352-0.97-0.121-0.058-1.047-0.149-2.061-0.204-1.505-0.079-1.941-0.058-2.383 0.127-0.3 0.124-1.492 0.449-2.65 0.723-2.882 0.68-3.838 1.148-4.767 2.3l-0.35 0.444h-56.597v-74.612h112.32l-2.176 1.28c-1.198 0.539-2.591 1.285-3.094 1.66-1.708 1.267-4.009 4.157-4.583 5.755-0.215 0.588-0.404 0.806-1.05 1.206-0.997 0.609-2.182 1.769-3.165 3.091-1.333 1.795-3.878 5.84-4.376 6.961-0.781 1.741-0.714 3.067 0.431 8.268 0.498 2.29 1.037 4.617 1.198 5.17 0.162 0.553 0.337 1.49 0.391 2.081 0.094 1.059 0.175 1.287 0.862 2.585 0.188 0.355 0.336 0.757 0.336 0.896 0 0.138 0.135 0.331 0.31 0.431a0.67 0.67 0 0 1 0.31 0.54c0 0.248 0.363 0.721 1.158 1.509 1.818 1.803 3.137 3.493 3.137 4.028 0 0.439-0.713 0.552-1.871 0.296-1.347-0.3-2.451-0.946-4.148-2.435-0.727-0.634-1.306-1.058-1.306-0.946s0.485 0.702 1.091 1.307c1.198 1.209 1.387 1.539 1.131 1.976-0.229 0.385-0.781 0.497-1.535 0.31-0.876-0.216-1.374 0.085-1.239 0.728 0.081 0.405 0.067 0.444-0.189 0.366-0.485-0.17-1.562-0.366-2.518-0.458-0.889-0.078-0.956-0.117-1.481-0.784-0.404-0.509-0.727-0.744-1.145-0.849-1.575-0.392-5.507-1.019-8.133-1.28-4.633-0.458-5.75-0.497-7.972-0.248-1.71 0.182-2.168 0.3-3.098 0.718-1.656 0.758-4.524 3.136-4.524 3.75 0 0.287 0.633 0.196 1.346-0.209 2.182-1.215 9.683-2.94 13.359-3.071 1.818-0.065 1.724 0.014-0.471 0.379-0.606 0.105-2.034 0.432-3.178 0.745-1.145 0.314-3.125 0.784-4.39 1.058-1.266 0.262-2.707 0.614-3.178 0.771l-0.876 0.288 1.347 0.013c6.895 0.065 14.732 2.038 17.937 4.507 1.373 1.059 1.872 1.189 3.891 0.993 2.774-0.261 6.356-1.45 7.932-2.639 0.687-0.51 1.239-0.719 1.239-0.444 0 0.47-0.902 2.992-1.293 3.606-0.431 0.705-0.458 0.797-0.229 0.954 0.135 0.091 0.216 0.209 0.162 0.248-0.054 0.052 0.054 0.131 0.242 0.183 0.525 0.157 0.391 0.3-0.444 0.483-0.808 0.196-1.455 0.523-1.455 0.745 0 0.078 0.108 0.144 0.243 0.144 0.404 0 0.108 0.261-0.431 0.365-0.364 0.079-0.431 0.131-0.269 0.223 0.161 0.091 0.161 0.13 0.013 0.13-0.108 0-0.202 0.144-0.202 0.327 0 0.222-0.161 0.379-0.485 0.509-0.794 0.327-0.579 0.497 0.512 0.405 0.552-0.052 0.889-0.052 0.754 0-0.135 0.04-1.023 0.405-1.979 0.81-0.97 0.392-2.222 0.876-2.788 1.059-0.646 0.209-1.05 0.418-1.091 0.575-0.053 0.248 0.243 0.235 0.997-0.026 0.135-0.053 0.256-0.027 0.256 0.039 0 0.065-1.657 0.927-3.677 1.92-2.033 0.993-3.918 2.012-4.214 2.261-0.297 0.261-0.66 0.47-0.835 0.47-0.162 0-0.377 0.17-0.485 0.366-0.31 0.614-0.256 0.692 0.485 0.575 1.09-0.17 1.602-0.157 1.67 0.039 0.04 0.104-0.068 0.183-0.243 0.183a0.747 0.747 0 0 0-0.498 0.209c-0.108 0.117-0.377 0.235-0.606 0.248-0.283 0.039-0.539 0.209-0.754 0.51-0.175 0.248-0.458 0.496-0.633 0.535s0.071 0.053 0.552 0.013c7.15-0.483 8.484-0.718 11.369-2.038 2.459-1.123 5.01-2.809 6.828-4.481 0.525-0.484 1.01-0.876 1.077-0.876 0.246 0 0.112 0.797-0.252 1.516-0.633 1.228-1.952 2.352-4.673 3.985-1.373 0.823-2.854 1.607-3.293 1.725-1.366 0.391-3.569 0.81-5.885 1.11-7.532 0.98-10.415 1.725-13.27 3.436-0.482 0.275-0.983 0.497-1.117 0.471-0.135-0.013-0.498 0.156-0.795 0.392-0.848 0.666-0.229 0.548 1.549-0.275 1.831-0.849 2.68-0.98 1.239-0.196-1.764 0.967-3.097 1.581-4.417 1.581h-7.023zm-9.356-8.322c0.285-0.109 1.231-0.588 2.101-1.064 0.871-0.475 1.904-0.998 2.298-1.159l2.465-1.006c2.015-0.82 4.975-1.594 5.144-1.345 0.06 0.086 0.502 0.183 0.983 0.213 0.669 0.041 0.786 0.081 0.511 0.169-0.196 0.062-0.358 0.17-0.358 0.241 0 0.259 1.488 0.183 2.114-0.111 0.247-0.118 0.802-0.248 1.234-0.301 0.538-0.065 0.786-0.156 0.786-0.3 0-0.17 0.138-0.196 0.622-0.118 0.67 0.105 2.106-0.143 5.979-1.019 2.62-0.601 4.606-1.202 6.35-1.92l1.261-0.523-1.261-0.732c-3.077-1.777-6.168-2.874-12.951-4.586-1.181-0.3-2.218-0.614-2.305-0.692-0.105-0.092-0.054-0.105 0.159-0.039 0.677 0.222 1.193 0.261 1.193 0.091 0-0.209-0.512-0.379-1.519-0.509-0.92-0.118-1.514-0.366-0.875-0.366 0.989 0-0.711-0.575-2.616-0.863-1.409-0.222-1.49-0.274-0.902-0.535 0.512-0.222 1.064-1.072 0.92-1.411-0.121-0.301-0.269-0.262-1.037 0.196-1.468 0.888-2.814 2.351-3.568 3.867-0.431 0.862-0.283 0.941 1.939 1.032 1.831 0.066 1.858 0.079 1.387 0.301a4.987 4.987 0 0 1-1.172 0.326c-1.293 0.17-2.006 0.732-1.36 1.059 0.189 0.091 0.121 0.169-0.35 0.379-0.525 0.222-0.552 0.274-0.31 0.391 0.162 0.079 0.62 0.118 1.024 0.092 0.565-0.039 0.821 0.013 1.09 0.222l0.351 0.274-0.701 0.392c-0.39 0.222-0.821 0.614-0.969 0.863-0.148 0.248-0.674 0.849-1.185 1.332-0.499 0.484-0.916 0.98-0.916 1.111 0 0.118-0.727 0.758-1.629 1.398-2.411 1.738-3.461 2.704-3.461 3.162 0 0.248-0.135 0.457-0.377 0.601-0.754 0.444-1.145 0.953-0.727 0.953 0.094 0 0.404-0.091 0.686-0.195zm18.601-1.678c0.595-0.072 1.286-0.239 1.532-0.371l0.45-0.24-0.768-0.345-0.767-0.345-0.765 0.28c-0.422 0.154-1.005 0.361-1.296 0.461-1.174 0.401-1.326 0.94-0.226 0.792a131.98 131.98 0 0 1 1.84-0.223zm-26.923-6.53c3.541-3.345 6.043-5.33 9.217-7.316 1.078-0.675 1.84-1.065 1.878-0.963 0.102 0.274 0.565 0.196 1.317-0.235 0.864-0.497 1.296-1.006 2.375-2.757 1.118-1.829 1.543-2.287 3.158-3.41 0.767-0.523 1.872-1.32 2.478-1.751 0.875-0.627 1.077-0.732 1.01-0.483-0.054 0.182-0.014 0.313 0.107 0.313 0.364 0 2.074-0.666 2.128-0.823 0.094-0.261-1.63-0.523-2.909-0.444-0.983 0.052-1.319 0.157-2.545 0.744-2.855 1.398-4.928 2.901-8.874 6.468-2.841 2.561-5.077 4.285-6.208 4.769-0.364 0.156-0.646 0.496-1.091 1.306-0.862 1.594-2.424 3.881-3.891 5.736-1.387 1.751-1.684 2.352-0.606 1.228a139.07 139.07 0 0 1 2.504-2.43zm35.459 15.71c4.255-0.8 4.726-0.86 7.712-0.977 3.353-0.134 3.781-0.212 5.798-1.068 0.647-0.274 0.9-0.324 0.99-0.196 0.156 0.226 1.252-0.313 3.39-1.666 0.875-0.552 2.11-1.26 2.747-1.571 0.96-0.471 1.252-0.549 1.715-0.471 0.493 0.083 0.64 0.026 1.269-0.47 1.745-1.389 3.234-2.03 4.722-2.034 0.445 0 0.597 0.057 0.597 0.228 0 0.147 0.087 0.202 0.238 0.149 0.445-0.156 0.243 0.013-0.897 0.784-1.319 0.876-1.198 1.15 0.148 0.301 1.293-0.81 1.307-0.81 1.307-0.484 0 0.183-0.499 0.654-1.401 1.333-2.06 1.542-3.514 2.822-5.723 5.03l-1.979 1.921h-25.167l4.531-0.823zm0.04-29.23c0.154-0.036 0.404-0.036 0.556 0 0.154 0.037 0.027 0.066-0.277 0.066-0.307 0-0.431-0.029-0.279-0.066z"
          fill="#003189"/>
        <path
          d="m156.72 39.105c-0.695-0.097-0.337-0.33 0.505-0.33 0.843 0 1.287-0.292 1.287-0.846 0-0.262-0.054-0.303-0.323-0.226-0.229 0.065-0.391 0.01-0.552-0.187-0.135-0.183-0.485-0.314-0.997-0.375-0.902-0.109-2.37-0.899-2.114-1.137 0.094-0.081 0.566-0.178 1.037-0.213 0.835-0.063 0.889-0.091 1.05-0.551 0.135-0.344 0.31-0.51 0.606-0.575 0.243-0.05 0.606-0.239 0.822-0.422 0.229-0.183 0.942-0.653 1.589-1.032 1.104-0.654 1.791-1.346 1.548-1.568-0.256-0.235-2.639-0.484-3.77-0.405-1.307 0.091-3.555 0.523-4.485 0.849-0.956 0.327-0.686 0.039 0.647-0.666 1.791-0.967 5.238-1.855 7.137-1.855 0.741 0 3.218 0.522 3.515 0.744 0.579 0.431-0.054 1.947-1.118 2.705l-0.445 0.313 0.728 0.706-0.377 0.274c-0.202 0.144-0.485 0.275-0.62 0.275s-0.485 0.196-0.767 0.444c-0.431 0.379-0.485 0.496-0.364 0.797 0.094 0.222 0.094 0.444-0.027 0.64-0.108 0.183-0.135 0.588-0.067 1.058 0.134 0.954-0.054 1.294-0.835 1.49-0.566 0.143-2.666 0.17-3.582 0.039z"
          fill="#7f7f7f"/>
      </g>
    </g>
  </g>
</svg>
