<svg xmlns="http://www.w3.org/2000/svg" viewBox="0 0 924.89 689.72"><defs><style>.cls-1,.cls-10{fill:#e4ddd7;}.cls-15,.cls-2{fill:#fab348;}.cls-3{fill:#e48868;}.cls-13,.cls-17,.cls-4{fill:#007ad9;}.cls-5{fill:#ba745d;}.cls-6,.cls-8{fill:#999;}.cls-7{fill:#2f3031;}.cls-10,.cls-12,.cls-13,.cls-14,.cls-15,.cls-7,.cls-8,.cls-9{fill-rule:evenodd;}.cls-14,.cls-16,.cls-9{fill:#fff;}.cls-11{fill:none;stroke:#fff;stroke-miterlimit:10;stroke-width:4px;}.cls-11,.cls-14,.cls-16{opacity:0.2;}.cls-12,.cls-18{fill:#65c8cf;}.cls-17{font-size:77.67px;font-family:Comfortaa-Bold, Comfortaa;font-weight:700;}</style></defs><title>MDPOublié</title><g id="Calque_2" data-name="Calque 2"><g id="Calque_1-2" data-name="Calque 1"><path class="cls-1" d="M655.19,177.32a7.45,7.45,0,0,0,10.48.66l6-5.32a7.45,7.45,0,0,0,.66-10.48L659.5,147.6a54.82,54.82,0,1,0-17.17,15.12Z"/><path class="cls-1" d="M756.82,153.88a11.22,11.22,0,0,0,1,15.78l9.11,8a11.22,11.22,0,0,0,15.78-1l19.28-22a82.54,82.54,0,1,0-25.89-22.72Z"/><path class="cls-2" d="M678.29,257.26c-6.4,15-28.37,17.71-35.62,32.3-4.87,9.8-1.08,22.23,6.54,30.09s18.27,12,28.83,14.87c23.53,6.46,48.89,7.95,72.21.77,8.36-2.57,16.51-6.31,23-12.14s11.29-13.95,11.84-22.68-3.62-17.92-11.26-22.19c-4.62-2.58-10.28-3.38-14.22-6.91-5.84-5.24-5.74-14.22-5.52-22.06a279.45,279.45,0,0,0-2.23-43.77c-1.46-11.19-3.88-22.91-11.45-31.28-8.26-9.14-21.89-12.61-33.83-9.59s-22,12-27.37,23.06-6.37,24-3.88,36.07C677.67,235,682.78,246.77,678.29,257.26Z"/><path class="cls-3" d="M664.55,258.26c-10.32,6.36-54.08,55.33-56.06,61.27s51.41,72,51.41,72l7.67-13.33-29.57-51,34.39-39.61Z"/><path class="cls-3" d="M764.4,260.36c10.32,6.36,51.58,53.23,53.56,59.17s-51.41,72-51.41,72l-7.67-13.33,29.57-51-34.39-39.61Z"/><path class="cls-4" d="M743.9,359.67l10.51-46.24c9.46-8.93,10-23.12,10-29.43V260.36s-42-20.49-51.5-20.49-48.34,18.39-48.34,18.39v25.22c-3.15,18.39,11,30.48,11,30.48L684,359.67,657.86,404.5l55.36,9.38,55.36-9.38Z"/><path class="cls-3" d="M704.45,222.24v23.12s11.71,19.79,22.47.46L726,222.24Z"/><path class="cls-3" d="M709.16,167.44c-19.94,2.61-23.13,25.65-18.34,43.86,3.58,13.58,11.71,27.3,24.51,27s20.5-17.82,22.79-28.55C741.81,192.46,741.13,163.25,709.16,167.44Z"/><path class="cls-3" d="M693.2,206.26s-.77-7.63-6.93-5.09,1.35,19.74,8.21,17.77S693.2,206.26,693.2,206.26Z"/><path class="cls-3" d="M734.16,205.88s.22-7.67,6.54-5.57.07,19.79-6.91,18.31S734.16,205.88,734.16,205.88Z"/><path class="cls-5" d="M715.42,239.25a17.13,17.13,0,0,1-8.69-2.32,1,1,0,1,1,1-1.71A15.67,15.67,0,0,0,724,234.7a1,1,0,1,1,1.11,1.64A17.24,17.24,0,0,1,715.42,239.25Z"/><path class="cls-2" d="M725.35,180c.19,5.64-3,11.44-11.7,19.91-7.29,7.12-15.87,5.79-27.93,6.9-4.28-10.47-3.77-14-3.77-14,1.4-11.22,6-14.16,15-20.93s22.07-8.52,31.94-3c8.26,4.62,13.42,13.54,15.63,22.74s2.24,8.18,1.87,17.63C732.61,202,723.41,195.57,725.35,180Z"/><path class="cls-3" d="M758.88,378.15s-3.14-7.46-4.13-7.3-8.91,9.08-9.41,10.23,1.16,3.47,1.16,3.47l3.14-1.65,1.32,4.62h3.1s-3.27,2.31-3.1,4a2.65,2.65,0,0,0,1.82,2.15l4.89-3,3.6,6.6,5.3-5.78Z"/><path class="cls-3" d="M667.57,378.15s3.14-7.46,4.13-7.3,8.91,9.08,9.41,10.23-1.16,3.47-1.16,3.47l-3.14-1.65-1.32,4.62h-3.1s3.27,2.31,3.1,4a2.65,2.65,0,0,1-1.82,2.15l-4.89-3-3.6,6.6-5.3-5.78Z"/><path class="cls-1" d="M768.57,404.5l-55.36,9.38-55.36-9.38-.48,269.05h12.77l42.53-240.62,3.87,240.62h12.77s22.23-101.26,23.18-110.49-3.31-37.7-3.31-37.7Z"/><polygon class="cls-6" points="670.15 673.55 666.17 689.72 643.92 689.72 655.05 681.64 657.38 673.55 670.15 673.55"/><polygon class="cls-6" points="716.54 673.55 716.54 689.72 738.79 689.72 727.67 681.64 729.31 673.55 716.54 673.55"/><path class="cls-7" d="M466.94,546.83h51.72c9.3,0,16.91,8.18,16.91,18.19V668.79c0,10-7.61,18.19-16.91,18.19H466.94c-9.3,0-16.91-8.18-16.91-18.19V565C450,555,457.63,546.83,466.94,546.83Z"/><path class="cls-7" d="M40.15,546.83H91.88c9.3,0,16.91,8.18,16.91,18.19V668.79c0,10-7.61,18.19-16.91,18.19H40.15c-9.3,0-16.91-8.18-16.91-18.19V565C23.25,555,30.85,546.83,40.15,546.83Z"/><path class="cls-8" d="M138.45,272.57C96.54,290.22,78.35,371.32,75,403.09c137.92-9.42,274.9-8.64,411.15,0-3.35-31.77-21.53-112.87-63.45-130.52-17.43-7.33-79.88-11.56-142.12-11.92C218.34,261,155.88,265.24,138.45,272.57Z"/><path class="cls-9" d="M186.28,283.52H387c22,0,40,16.19,40,36v25.72c0,19.78-18,36-40,36H186.28c-22,0-40-16.19-40-36V319.49C146.25,299.71,164.26,283.52,186.28,283.52Z"/><path class="cls-10" d="M344.09,340.69h47.06c31.8,0,57.82,23.38,57.82,52v8.67Q367.81,397,286.28,396.7v-4.06C286.28,364.06,312.3,340.69,344.09,340.69Z"/><path class="cls-10" d="M149.29,339.45h41.94c28.34,0,51.53,23.38,51.53,52v5.32q-72.32.42-145,5.26V391.4C97.76,362.83,120.94,339.45,149.29,339.45Z"/><path class="cls-10" d="M245.06,273.45h66.59c3.46,0,6.28,2.54,6.28,5.65v10.73c0,3.1-2.83,5.65-6.28,5.65H245.06c-3.46,0-6.28-2.54-6.28-5.65V279.09C238.78,276,241.6,273.45,245.06,273.45Z"/><rect class="cls-1" x="273.25" y="261.05" width="7.54" height="16.72"/><path class="cls-11" d="M75,403.09s128.78-6.77,202.36-6.41,208.79,6.41,208.79,6.41"/><path class="cls-12" d="M280.44,252.36c188.56,0,170.47,3.18,222.39,158.07,72.35,46.14,41.23,102.47,46.49,177.26A2568.23,2568.23,0,0,1,131,597.44Q71.31,594,11.55,587.69C16.81,512.9-14.31,456.57,58,410.43,110,255.55,91.88,252.36,280.44,252.36Zm-142,20.21C96.54,290.22,78.35,371.32,75,403.09c137.92-9.42,274.9-8.64,411.15,0-3.35-31.77-21.53-112.87-63.45-130.52-17.43-7.33-79.88-11.56-142.12-11.92C218.34,261,155.88,265.24,138.45,272.57Z"/><path class="cls-13" d="M513.12,379.78h22.31c10.35,0,18.82,7.21,18.82,16v5.47c0,8.81-8.47,16-18.82,16H513.12c-10.35,0-18.82-7.21-18.82-16V395.8C494.3,387,502.77,379.78,513.12,379.78Z"/><path class="cls-13" d="M25.44,379.78H47.75c10.35,0,18.82,7.21,18.82,16v5.47c0,8.81-8.47,16-18.82,16H25.44c-10.35,0-18.82-7.21-18.82-16V395.8C6.61,387,15.08,379.78,25.44,379.78Z"/><path class="cls-14" d="M57,416q-1,3-2.08,6.07s18.84-8,49,6.95,49,57.77,55.29,84.51,10.05,51.2,10.05,51.2H385.43s3.77-24.46,10.05-51.2S420.61,444,450.76,429s49-6.95,49-6.95c-.72-2-1.4-4.05-2.08-6.07-5.37-.12-10.64-.38-14.88-.89-7.45-.89-106.47-.9-205.43-.69-99-.21-198-.2-205.43.69C67.69,415.61,62.42,415.87,57,416Z"/><path class="cls-8" d="M19.15,564.72H535.58c10.53,0,19.15,7.34,19.15,16.31v25.15c0,9-8.62,16.31-19.15,16.31H19.15C8.62,622.49,0,615.16,0,606.19V581C0,572.06,8.62,564.72,19.15,564.72Z"/><path class="cls-13" d="M75.7,526.9c29.41,0,53.4-20.42,53.4-45.47S105.11,436,75.7,436s-53.4,20.42-53.4,45.47S46.29,526.9,75.7,526.9Z"/><path class="cls-13" d="M482.8,526.9c29.41,0,53.4-20.42,53.4-45.47S512.21,436,482.8,436s-53.4,20.42-53.4,45.47S453.38,526.9,482.8,526.9Z"/><path class="cls-14" d="M75.7,514.06c21.11,0,38.32-14.66,38.32-32.63S96.81,448.8,75.7,448.8s-38.32,14.66-38.32,32.63S54.59,514.06,75.7,514.06Z"/><path class="cls-14" d="M482.8,514.06c21.11,0,38.32-14.66,38.32-32.63S503.9,448.8,482.8,448.8s-38.32,14.66-38.32,32.63S461.69,514.06,482.8,514.06Z"/><path class="cls-15" d="M42.76,589.59H83.6a3.24,3.24,0,0,1,3.45,2.94v11.23a3.24,3.24,0,0,1-3.45,2.94H42.76a3.24,3.24,0,0,1-3.46-2.94V592.53A3.24,3.24,0,0,1,42.76,589.59Z"/><path class="cls-15" d="M471.13,589.59H512a3.24,3.24,0,0,1,3.46,2.94v11.23a3.24,3.24,0,0,1-3.46,2.94H471.13a3.24,3.24,0,0,1-3.45-2.94V592.53A3.24,3.24,0,0,1,471.13,589.59Z"/><path class="cls-16" d="M311.27,546.79H233.34a12.09,12.09,0,0,1,0-24.17h77.93a12.09,12.09,0,0,1,0,24.17Zm-77.93-17.28c-2.57,0-5,2.61-5,5.37a5.34,5.34,0,0,0,5,5h77.93a5.08,5.08,0,0,0,5-5,5.21,5.21,0,0,0-5-5.37Z"/><text class="cls-17" transform="translate(595.02 147.54)">?</text><rect class="cls-4" x="821.2" y="11.47" width="14.63" height="106.67" transform="translate(316.38 719.29) rotate(-56.43)"/><rect class="cls-18" x="779.31" y="46.67" width="12.8" height="12.38" transform="translate(307.2 678.3) rotate(-56.43)"/><rect class="cls-18" x="790.76" y="54.27" width="12.8" height="12.38" transform="translate(305.99 691.23) rotate(-56.43)"/><rect class="cls-16" x="828.25" y="15.51" width="3.66" height="100.66" transform="translate(316.22 721.06) rotate(-56.43)"/><path class="cls-18" d="M901.43,81.8a26.16,26.16,0,1,1-36.26,7.33A26.16,26.16,0,0,1,901.43,81.8ZM874.58,95.38a14.86,14.86,0,1,0,20.59-4.16A14.86,14.86,0,0,0,874.58,95.38Z"/><path class="cls-1" d="M820.15,244.77a4.24,4.24,0,0,0-5.87,1.14l-2.56,3.8a4.24,4.24,0,0,0,1.14,5.87l9.18,6.18A31.2,31.2,0,1,0,829.32,251Z"/><circle class="cls-4" cx="835.92" cy="274.62" r="5.31"/><circle class="cls-4" cx="851.52" cy="274.62" r="5.31"/><circle class="cls-4" cx="867.11" cy="274.62" r="5.31"/></g></g></svg>