<svg viewBox="0 0 32 32" xmlns="http://www.w3.org/2000/svg" fill-rule="evenodd" clip-rule="evenodd" stroke-linejoin="round" stroke-miterlimit="1.414"><path d="M28.188 1H3.812A2.821 2.821 0 0 0 1 3.813v24.375A2.821 2.821 0 0 0 3.813 31h24.375A2.821 2.821 0 0 0 31 28.187V3.812A2.821 2.821 0 0 0 28.187 1zM9.175 25.352a2.541 2.541 0 0 1-2.549-2.537 2.553 2.553 0 0 1 2.549-2.543 2.55 2.55 0 0 1 2.549 2.543 2.541 2.541 0 0 1-2.549 2.537zm6.399.023a8.913 8.913 0 0 0-2.62-6.339 8.882 8.882 0 0 0-6.328-2.625v-3.668c6.961 0 12.633 5.666 12.633 12.633h-3.685v-.001zm6.51 0c0-8.526-6.932-15.469-15.451-15.469V6.239c10.546 0 19.13 8.589 19.13 19.137h-3.68v-.001z" fill-rule="nonzero"/></svg>