<svg viewBox="0 0 32 32" xmlns="http://www.w3.org/2000/svg" fill-rule="evenodd" clip-rule="evenodd" stroke-linejoin="round" stroke-miterlimit="1.414"><path d="M31.003 6.695c-1.102.492-2.291.82-3.533.966a6.185 6.185 0 0 0 2.706-3.404 12.404 12.404 0 0 1-3.908 1.495 6.154 6.154 0 0 0-4.495-1.94 6.153 6.153 0 0 0-5.994 7.553A17.468 17.468 0 0 1 3.093 4.932a6.15 6.15 0 0 0-.831 3.094 6.147 6.147 0 0 0 2.736 5.122 6.16 6.16 0 0 1-2.789-.768v.076a6.154 6.154 0 0 0 4.94 6.034 6.149 6.149 0 0 1-2.783.106 6.177 6.177 0 0 0 5.748 4.277 12.347 12.347 0 0 1-9.117 2.549 17.4 17.4 0 0 0 9.44 2.766c11.32 0 17.513-9.381 17.513-17.514 0-.269-.005-.533-.017-.796a12.405 12.405 0 0 0 3.07-3.182v-.001z" fill-rule="nonzero"/></svg>