<svg width="80" height="80" viewBox="0 0 80 80" fill="none" xmlns="http://www.w3.org/2000/svg">
  <path
    d="M22.09 55.8384H57.8806V62.6366C57.8998 63.1343 58.1035 63.6063 58.4508 63.9584C58.7982 64.3106 59.2637 64.517 59.7545 64.5366H68.7729C69.0139 64.5328 69.2516 64.4804 69.4724 64.3824C69.6931 64.2845 69.8925 64.143 70.0587 63.9661C70.225 63.7893 70.3548 63.5806 70.4407 63.3524C70.5266 63.1241 70.5668 62.8808 70.559 62.6366C70.559 59.0446 70.559 55.4426 70.559 51.8406C70.559 48.2386 70.559 44.6861 70.559 41.0841L67.8262 34.4145H69.0169C71.3496 34.3552 72.7941 33.6922 73.1943 32.4354C73.2999 32.0951 73.331 31.7355 73.2855 31.3818C73.24 31.028 73.1189 30.6885 72.9308 30.3871H66.0694L61.5504 20.066C59.1787 16.7213 57.4902 15.6427 54.6304 15.6427H25.4182C22.5585 15.6427 20.87 16.7213 18.4983 20.066L13.9793 30.4167H7.02029C6.83237 30.7052 6.70881 31.0317 6.65824 31.3735C6.60767 31.7153 6.6313 32.0642 6.72749 32.3959C7.10813 33.6031 8.58192 34.3057 10.8756 34.375H12.0663L9.33345 41.0446C9.4213 48.2881 9.4213 55.5613 9.4213 62.5971C9.44057 63.0947 9.64419 63.5667 9.99153 63.9189C10.3389 64.271 10.8044 64.4775 11.2953 64.497H20.3137C20.5546 64.4932 20.7924 64.4408 21.0131 64.3428C21.2339 64.2449 21.4332 64.1034 21.5994 63.9265C21.7657 63.7497 21.8955 63.541 21.9814 63.3128C22.0673 63.0845 22.1076 62.8412 22.0998 62.5971L22.09 55.8384Z"
    fill="white"/>
  <path
    d="M29.2346 21.4513C28.7554 21.4513 28.2871 21.5955 27.8888 21.8656C27.4906 22.1357 27.1803 22.5196 26.9974 22.9686C26.8145 23.4176 26.7671 23.9115 26.8613 24.3878C26.9555 24.8641 27.187 25.3014 27.5265 25.6442C27.866 25.987 28.2982 26.22 28.7684 26.3136C29.2386 26.4071 29.7256 26.3571 30.1677 26.1698C30.6098 25.9826 30.9872 25.6665 31.2519 25.2616C31.5167 24.8568 31.6571 24.3813 31.6551 23.8955C31.6577 23.573 31.5969 23.2531 31.476 22.9547C31.3552 22.6563 31.1768 22.3854 30.9514 22.1578C30.726 21.9301 30.458 21.7504 30.1632 21.6291C29.8684 21.5078 29.5527 21.4474 29.2346 21.4513ZM29.2346 28.0121C28.6866 28.0394 28.1389 27.9535 27.6246 27.7597C27.1103 27.5659 26.6402 27.2682 26.2429 26.8846C25.8455 26.501 25.5291 26.0396 25.313 25.5284C25.0968 25.0171 24.9854 24.4666 24.9854 23.9104C24.9854 23.3541 25.0968 22.8036 25.313 22.2924C25.5291 21.7811 25.8455 21.3197 26.2429 20.9361C26.6402 20.5526 27.1103 20.2548 27.6246 20.061C28.1389 19.8672 28.6866 19.7814 29.2346 19.8087C29.7683 19.7994 30.2984 19.8985 30.7938 20.1001C31.2892 20.3017 31.7397 20.6018 32.119 20.9826C32.4982 21.3634 32.7985 21.8173 33.0021 22.3176C33.2057 22.8178 33.3086 23.3543 33.3046 23.8955C33.3046 24.4365 33.1992 24.9721 32.9944 25.4716C32.7896 25.9712 32.4895 26.4248 32.1113 26.8064C31.7332 27.188 31.2843 27.4901 30.7906 27.6953C30.297 27.9005 29.7682 28.0048 29.2346 28.0022V28.0121Z"
    fill="#65C8D0"/>
  <path
    d="M24.9107 33.1083L23.3296 32.7223L23.6029 31.5744C23.7084 30.801 23.9888 30.0627 24.4223 29.4173C24.8557 28.7719 25.4304 28.2368 26.1015 27.8537C26.6508 27.5665 27.2349 27.3536 27.8388 27.2204C28.3202 27.1453 28.806 27.1023 29.2931 27.0918C29.7946 27.0742 30.2963 27.1207 30.7864 27.2303C31.3847 27.3449 31.9613 27.5554 32.4944 27.8537C33.1678 28.24 33.7444 28.7783 34.1794 29.427C34.6144 30.0757 34.8961 30.8173 35.0028 31.5942L35.2565 32.8015L33.6559 33.1083L33.4411 31.9604C33.3779 31.4223 33.1914 30.9067 32.8965 30.4549C32.6016 30.003 32.2065 29.6273 31.7429 29.3578C31.3353 29.1124 30.8899 28.9385 30.4252 28.8433C29.6576 28.6976 28.87 28.6976 28.1023 28.8433C27.6689 28.9466 27.2494 29.1028 26.853 29.3084C26.398 29.5777 26.0105 29.95 25.721 30.3964C25.4314 30.8427 25.2477 31.3509 25.184 31.8812L24.9107 33.1083Z"
    fill="#65C8D0"/>
  <path
    d="M45.4364 32.8708L43.8552 32.4849L44.1285 31.337C44.2369 30.5671 44.5186 29.8328 44.9519 29.191C45.3852 28.5492 45.9584 28.0171 46.6271 27.6361C47.1764 27.3488 47.7605 27.1359 48.3644 27.0028C48.8457 26.9244 49.3315 26.8781 49.8187 26.8642C50.3202 26.8466 50.8219 26.8932 51.312 27.0028C51.9104 27.1174 52.4869 27.3278 53.02 27.6262C53.6934 28.0124 54.27 28.5508 54.705 29.1995C55.14 29.8482 55.4218 30.5898 55.5284 31.3667L55.7529 32.5245L54.1424 32.8015L53.9277 31.6537C53.8645 31.1156 53.678 30.6 53.3831 30.1481C53.0882 29.6963 52.6931 29.3206 52.2295 29.0511C51.8303 28.8305 51.3985 28.6768 50.9509 28.5959C50.1832 28.4501 49.3956 28.4501 48.628 28.5959C48.1945 28.6992 47.775 28.8553 47.3786 29.061C46.9236 29.3303 46.5361 29.7027 46.2466 30.149C45.9571 30.5954 45.7733 31.1036 45.7097 31.6339L45.4364 32.8708Z"
    fill="#65C8D0"/>
  <path
    d="M49.7698 27.7648C49.2218 27.792 48.674 27.7062 48.1597 27.5124C47.6455 27.3186 47.1754 27.0208 46.778 26.6373C46.3807 26.2537 46.0643 25.7923 45.8481 25.281C45.632 24.7698 45.5205 24.2193 45.5205 23.663C45.5205 23.1068 45.632 22.5563 45.8481 22.0451C46.0643 21.5338 46.3807 21.0724 46.778 20.6888C47.1754 20.3052 47.6455 20.0075 48.1597 19.8137C48.674 19.6199 49.2218 19.534 49.7698 19.5613C50.301 19.5574 50.8277 19.6607 51.3192 19.8653C51.8107 20.0699 52.257 20.3717 52.6323 20.753C53.0075 21.1344 53.304 21.5876 53.5047 22.0864C53.7053 22.5852 53.8059 23.1195 53.8007 23.6581C53.8007 24.7438 53.3767 25.7854 52.6213 26.555C51.8659 27.3245 50.8406 27.7595 49.7698 27.7648ZM49.7698 21.204C49.291 21.204 48.823 21.3479 48.425 21.6176C48.0269 21.8873 47.7167 22.2705 47.5335 22.719C47.3503 23.1674 47.3023 23.6608 47.3957 24.1369C47.4891 24.6129 47.7197 25.0502 48.0582 25.3934C48.3967 25.7366 48.828 25.9703 49.2975 26.065C49.7671 26.1597 50.2538 26.1111 50.696 25.9254C51.1383 25.7396 51.5164 25.4251 51.7823 25.0215C52.0483 24.6179 52.1903 24.1435 52.1903 23.6581C52.1942 23.3347 52.1343 23.0138 52.014 22.7143C51.8938 22.4147 51.7156 22.1426 51.4901 21.9139C51.2645 21.6852 50.9961 21.5046 50.7007 21.3827C50.4052 21.2608 50.0887 21.2 49.7698 21.204Z"
    fill="#65C8D0"/>
  <path
    d="M68.7632 66.1891H59.7448C58.8155 66.1891 57.9243 65.8148 57.2672 65.1486C56.6101 64.4824 56.2409 63.5788 56.2409 62.6366V57.4909H23.72V62.6465C23.7304 63.1084 23.6498 63.5678 23.4829 63.9977C23.316 64.4276 23.0662 64.8195 22.7481 65.1503C22.4299 65.4811 22.0499 65.7443 21.6302 65.9244C21.2106 66.1044 20.7597 66.1978 20.304 66.199H11.2856C10.3563 66.199 9.46503 65.8247 8.80792 65.1585C8.15081 64.4923 7.78165 63.5887 7.78165 62.6465C7.78165 55.5613 7.78165 48.2386 7.69381 40.9456V40.7773L9.64584 35.9681C5.31233 35.4238 5 32.6036 5 31.7031C5 30.3177 5.79057 28.7345 6.86419 28.7345H12.9253L17.1319 19.1457C19.855 15.3062 21.9437 14 25.4183 14H54.6305C58.1051 14 60.1938 15.3062 62.9169 19.1754L62.995 19.3238L67.1138 28.7641H73.1748C74.2289 28.7641 74.9805 30.3079 75 31.7328C75 32.6432 74.6779 35.4634 70.2858 35.9978L72.2379 40.807V40.9752C72.2379 44.6366 72.2379 48.2782 72.2379 51.8603C72.2379 55.4425 72.2379 59.0544 72.2379 62.6465C72.2471 63.1126 72.1637 63.5758 71.9926 64.0086C71.8214 64.4413 71.5662 64.8347 71.2419 65.1652C70.9177 65.4958 70.5311 65.7568 70.1053 65.9327C69.6794 66.1086 69.223 66.1958 68.7632 66.1891ZM22.0901 55.8384H57.8709V62.6366C57.8902 63.1342 58.0938 63.6062 58.4411 63.9584C58.7885 64.3106 59.254 64.517 59.7448 64.5365H68.7632C69.0042 64.5327 69.242 64.4803 69.4627 64.3824C69.6835 64.2844 69.8828 64.1429 70.049 63.9661C70.2153 63.7892 70.3451 63.5806 70.431 63.3523C70.5169 63.1241 70.5572 62.8808 70.5494 62.6366C70.5494 59.0445 70.5494 55.4425 70.5494 51.8406C70.5494 48.2386 70.5494 44.6861 70.5494 41.0841L67.8165 34.4145H69.0072C71.3399 34.3551 72.7844 33.6921 73.1846 32.4354C73.2902 32.0951 73.3213 31.7355 73.2758 31.3817C73.2303 31.028 73.1092 30.6885 72.9211 30.387H66.0694L61.5505 20.066C59.1787 16.7213 57.4902 15.6427 54.6305 15.6427H25.4183C22.5586 15.6427 20.87 16.7213 18.4983 20.066L13.9794 30.4167H7.02036C6.83244 30.7051 6.70888 31.0316 6.6583 31.3735C6.60773 31.7153 6.63136 32.0642 6.72755 32.3958C7.1082 33.6031 8.58199 34.3057 10.8756 34.3749H12.0664L9.33352 41.0445C9.42136 48.2881 9.42136 55.5613 9.42136 62.597C9.44063 63.0947 9.64425 63.5666 9.9916 63.9188C10.3389 64.271 10.8045 64.4774 11.2953 64.497H20.3137C20.5547 64.4931 20.7924 64.4407 21.0132 64.3428C21.2339 64.2449 21.4332 64.1033 21.5995 63.9265C21.7657 63.7496 21.8956 63.541 21.9815 63.3128C22.0674 63.0845 22.1076 62.8412 22.0998 62.597L22.0901 55.8384Z"
    fill="#2977FF"/>
  <path
    d="M64.2247 33.4943H15.824L16.351 32.3266C16.7805 31.337 17.2002 30.4069 17.6394 29.4272C18.6154 27.2403 19.5914 24.9841 20.7919 22.5003C21.7679 20.7587 23.0172 18.9181 25.3499 18.7103H54.6304C57.0314 18.928 58.2612 20.7587 59.2372 22.4607C60.467 24.9445 61.4626 27.2106 62.4191 29.3876C62.8485 30.3772 63.2682 31.3667 63.6976 32.2672L64.2247 33.4943ZM18.3519 31.812H61.687L60.9258 30.0803C59.9497 27.9033 58.9737 25.657 57.8025 23.2524C56.8265 21.5405 55.9676 20.4915 54.5524 20.3629H25.4182C24.0811 20.4915 23.2222 21.5306 22.2169 23.3315C21.0554 25.6867 20.0697 27.933 19.1229 30.1001L18.3519 31.812Z"
    fill="#2977FF"/>
  <path
    d="M49.1744 50.277H30.796C30.0402 50.277 29.3153 49.9726 28.7808 49.4307C28.2463 48.8888 27.946 48.1539 27.946 47.3875C27.946 46.6212 28.2463 45.8862 28.7808 45.3444C29.3153 44.8025 30.0402 44.498 30.796 44.498H49.1744C49.9303 44.498 50.6552 44.8025 51.1897 45.3444C51.7241 45.8862 52.0244 46.6212 52.0244 47.3875C52.0244 48.1539 51.7241 48.8888 51.1897 49.4307C50.6552 49.9726 49.9303 50.277 49.1744 50.277ZM30.796 46.1506C30.4766 46.1777 30.1786 46.3245 29.9602 46.5623C29.7419 46.8002 29.6188 47.1121 29.615 47.437C29.6336 47.7484 29.7639 48.0422 29.9815 48.2628C30.1991 48.4834 30.4889 48.6156 30.796 48.6344H49.1744C49.4861 48.6293 49.7836 48.5015 50.004 48.278C50.2243 48.0546 50.3504 47.753 50.3554 47.437C50.366 47.108 50.2477 46.788 50.0265 46.547C49.8052 46.306 49.4989 46.1635 49.1744 46.1506H30.796Z"
    fill="#2977FF"/>
  <path
    d="M18.3909 51.0687C17.0275 51.0661 15.7207 50.5158 14.7567 49.5384C13.7926 48.5609 13.2499 47.236 13.2473 45.8537C13.2408 45.1671 13.3694 44.486 13.6256 43.8503C13.8817 43.2146 14.2604 42.6371 14.7393 42.1515C15.2182 41.6659 15.7879 41.282 16.4149 41.0223C17.0419 40.7626 17.7136 40.6322 18.3909 40.6388C19.756 40.6388 21.0653 41.1879 22.0315 42.1656C22.9976 43.1433 23.5417 44.4697 23.5443 45.8537C23.5241 47.2321 22.9743 48.5482 22.012 49.5221C21.0496 50.4959 19.7505 51.0508 18.3909 51.0687ZM18.3909 42.2814C17.9268 42.2761 17.4662 42.3649 17.0364 42.5426C16.6066 42.7202 16.2161 42.9832 15.8878 43.3159C15.5596 43.6487 15.3003 44.0446 15.125 44.4804C14.9498 44.9162 14.8623 45.3831 14.8675 45.8537C14.8675 46.8012 15.2387 47.7098 15.8995 48.3797C16.5603 49.0497 17.4565 49.426 18.3909 49.426C19.3184 49.4034 20.2017 49.0198 20.8577 48.3547C21.5137 47.6896 21.892 46.7941 21.9143 45.8537C21.9143 45.3846 21.8232 44.9201 21.6461 44.4867C21.4691 44.0533 21.2095 43.6595 20.8824 43.3277C20.5552 42.996 20.1668 42.7329 19.7393 42.5534C19.3118 42.3738 18.8536 42.2814 18.3909 42.2814Z"
    fill="#65C8D0"/>
  <path
    d="M61.7162 51.1281C60.3528 51.1255 59.046 50.5752 58.082 49.5978C57.1179 48.6204 56.5752 47.2955 56.5726 45.9132C56.5687 45.2282 56.6992 44.5492 56.9565 43.9158C57.2139 43.2824 57.5929 42.7072 58.0716 42.2238C58.5503 41.7403 59.119 41.3582 59.7447 41.0997C60.3704 40.8412 61.0406 40.7114 61.7162 40.718C63.0796 40.7206 64.3864 41.2709 65.3504 42.2483C66.3145 43.2257 66.8572 44.5507 66.8598 45.933C66.8346 47.3062 66.284 48.6158 65.3243 49.5852C64.3645 50.5546 63.0708 51.1078 61.7162 51.1281ZM61.7162 42.3409C61.2521 42.3356 60.7915 42.4244 60.3617 42.602C59.9318 42.7796 59.5413 43.0426 59.2131 43.3754C58.8849 43.7081 58.6256 44.1041 58.4503 44.5399C58.2751 44.9757 58.1876 45.4426 58.1928 45.9132C58.1928 46.8606 58.564 47.7692 59.2248 48.4392C59.8855 49.1091 60.7817 49.4855 61.7162 49.4855C62.6437 49.4629 63.527 49.0792 64.183 48.4141C64.839 47.749 65.2173 46.8535 65.2396 45.9132C65.2396 44.9657 64.8684 44.0571 64.2076 43.3872C63.5469 42.7172 62.6507 42.3409 61.7162 42.3409Z"
    fill="#65C8D0"/>
</svg>
